<?xml version="1.0" encoding="utf-8"?>
<!-- Generator: Adobe Illustrator 27.5.0, SVG Export Plug-In . SVG Version: 6.00 Build 0)  -->
<svg version="1.1" id="Layer_1" xmlns="http://www.w3.org/2000/svg" xmlns:xlink="http://www.w3.org/1999/xlink" x="0px" y="0px"
	 viewBox="0 0 3086 2000" style="enable-background:new 0 0 3086 2000;" xml:space="preserve">
<rect style="fill:#FFFFFF;" width="3086" height="2000"/>
<g>
	<path style="fill:#E2FAFA;" d="M1009.297,1927.821H264.249c0,0-342.402-99.21-123.265-482.01
		c219.137-382.801,150.657-493.638,217.181-718.989c66.524-225.351,244.573-561.883,688.718-646.017
		c444.145-84.133,254.583,148.701,902.099,23.479c647.516-125.221,786.433,410.848,786.433,518.478s9.783,418.726,174.137,657.43
		c164.353,238.703,186.817,615.985-159.701,635.629c-194.183,11.008-496.123,12.695-731.961,12c-190.251-0.562-329.247,0-329.247,0
		H1009.297z"/>
	<path style="opacity:0.6;fill:#CFF3FF;" d="M600.046,1126.45l-92.38,344.93l-51.886,169.241c0,0-4.558,92.602-4.558,94.602
		S466.333,1795,466.333,1795s32.889,42.994,33.111,43.497c0.222,0.503,32.667,27.17,34.667,28.28
		c2,1.111,63.87,34.667,65.935,34.667c2.065,0,46.509,12.152,46.509,12.152l167.556,7.263h172.444
		c0,0,28.074-678.082,28.074-679.859s59.035-148.148,59.443-149.926c0.409-1.778-58.908-45.633-58.908-45.633l-70.149-106.664
		h-25.201l-48.593,37.926l-58.177,44.052l-58.563,32.984l-73.939,30.223l-59.986,17.186l-18.371,11.002L600.046,1126.45z"/>
	<path style="opacity:0.5;fill:#FFFFFF;" d="M1199.288,483.879c11.535-21.176,0.774-48.935-17.84-64.265
		c-18.614-15.331-43.016-21.239-66.502-26.707c-28.898-6.728-57.797-13.457-86.695-20.185c-12.802-2.98-26.895-6.843-33.927-17.948
		c-10.265-16.212,0.305-37.268,11.607-52.776c11.301-15.507,24.233-34.019,18.047-52.182c-5.737-16.848-25.152-24.259-42.516-28.167
		c-46.998-10.577-96.233-11.101-143.446-1.526c-22.557,4.575-44.598,11.408-67.081,16.331c-29.494,6.459-59.595,9.6-89.488,13.847
		c-6.084,0.864-12.159,1.785-18.23,2.733c-53.709,43.133-99.239,90.982-137.78,140.765c12.532-5.52,24.929-11.356,37.204-17.387
		c10.028-4.927,20.162-10.04,31.148-12.079c10.577-1.963,21.452-0.984,32.164,0.002c5.218,0.48,10.961,1.213,14.448,5.126
		c3.281,3.68,3.557,9.078,3.498,14.008c-0.199,16.565-2.947,34.559-14.955,45.972c-16.534,15.716-43.532,12.811-63.279,24.232
		c-21.989,12.717-30.599,40.216-49.345,57.357c-21.087,19.281-51.114,22.616-80.313,22.689
		c-19.994,38.184-36.676,76.014-50.543,112.326c43.196,5.054,85.741,16.777,128.859,23.515
		c54.781,8.56,114.509,8.042,161.115-21.993c42.553-27.423,67.42-74.909,103.892-110.018c10.453-10.062,22.208-19.294,36.006-23.78
		c12.43-4.041,25.764-4.003,38.834-3.926c89.853,0.532,179.707,1.063,269.559,1.595
		C1151.97,511.606,1185.779,508.679,1199.288,483.879z"/>
	<path style="opacity:0.5;fill:#FFFFFF;" d="M2738.115,716.052c-20.646,0.769-43.656-3.461-69.115-14.904
		c-20.74-9.322,26.667-102.51-1.859-159.674c-20.934-41.948-76.014-51.296-122.895-51.279
		c-46.882,0.017-99.826,1.753-133.157-31.215c-3.034-3-5.901-6.361-7.218-10.419c-1.846-5.693-0.371-11.964,2.089-17.419
		c14.134-31.343,53.948-39.694,88.056-44.036c46.521-5.922,93.043-11.845,139.564-17.767c5.604-0.713,11.329-1.498,17.052-2.455
		c-31.89-53.689-74.473-107.551-130.467-153.574c-11.842,28.524-25.243,55.895-49.203,73.397
		c-31.851,23.267-74.464,23.167-113.907,22.978c-130.752-0.625-261.547,8.222-391.022,26.452c-24.88,3.502-50.379,7.579-72.105,20.2
		c-21.726,12.62-39.129,35.803-37.648,60.885c1.677,28.408,26.259,50.352,52.049,62.378c25.792,12.026,54.44,17.624,79.11,31.808
		c10.33,5.938,20.886,15.609,19.549,27.449c-1.221,10.815-11.606,17.721-19.797,24.888c-21.086,18.454-31.92,47.949-27.79,75.664
		c114.78,46.389,243.215,36.034,366.99,38.517c35.331,0.709,72.337,3.019,102.52,21.397c9.961,6.064,19.462,14.652,21.785,26.079
		c1.695,8.337-0.691,16.937-3.594,24.934c-18.676,51.46-60.249,99.819-49.586,153.515c11.535,58.096,77.136,86.251,134.771,99.9
		c28.716,6.801,196.236,43.628,270.102,58.286C2758.854,933.457,2743.438,806.685,2738.115,716.052z"/>
	<path style="fill:#07085B;" d="M2335.284,1019.545c0,0,96.669,161.446,106.96,269.356c8.479,88.902-6.522,87.395-6.522,87.395
		s-46.958,28.044-135.004-166.31l-5.218-22.827c0,0,77.611,164.354,121.961,176.093s-116.743-319.575-116.743-319.575l24.748-36.523
		L2335.284,1019.545z"/>
	<path style="fill:#07085B;" d="M2340.548,1010.646c0,9.485-7.689,17.175-17.175,17.175c-9.484,0-17.174-7.689-17.174-17.175
		c0-9.485,7.689-17.174,17.174-17.174C2332.858,993.471,2340.548,1001.16,2340.548,1010.646z"/>
	<path style="fill:#FFFFFF;" d="M1170.848,1078.67l-0.077-5.326l-130.165,6.634c-8.823-15.325-92.458-144.033-93.863-145.638
		c-1.555-1.776-3.42-2.893-5.372-3.563l0.013-0.061c-0.033-0.007-0.229-0.05-0.571-0.125c-0.677-0.201-1.361-0.346-2.044-0.45
		c-13.112-2.897-73.521-16.443-135.887-33.608c-9.6-2.642-19.395-5.824-29.766-9.193c-41.719-13.554-84.858-27.567-120.903-8.445
		c-24.015,12.741-41.351,38.535-52.994,78.853c-28.559,98.883-11.711,153.763-5.765,168.465
		c-14.868,57.837-86.426,338.266-116.124,429.003l-0.249,0.761c-21.92,66.968-55.044,168.168-6.806,251.339
		c33.9,58.447,103.834,98.955,207.862,120.398l0.513,0.106h307.359l194.632-169.792L1170.848,1078.67z M605.584,1100.641
		c-0.546-42.664-1.998-155.994,55.298-185.347c51.325-26.29,86.419-13.663,127.055,0.964c34.07,12.262,69.864,31.801,122.271,23.715
		c-13.204,8.441-31.244,22.436-55.129,41.167c-15.374,12.056-31.271,24.524-45.483,34.803
		c-42.476,30.719-145.269,64.626-148.478,65.678c-10.69,3.185-39.937,12.532-55.48,23.647
		C605.625,1103.897,605.606,1102.366,605.584,1100.641z M604.175,1131.339c5.453,2.621,13.406,3.911,24.169,3.911
		c4.246-0.002,8.932-0.201,14.065-0.597c17.065-1.315,32.676-4.366,33.333-4.495l0.303-0.068c1.494-0.377,2.994-0.763,4.497-1.152
		c-3.056,12.184-10.279,40.947-19.841,78.798c-34.19-22.854-55.68-42.24-63.443-49.636
		C600.232,1146.624,602.582,1137.518,604.175,1131.339z M809.633,1175.957c12.611,6.163,26.863,12.696,42.584,19.254
		c1.075,30.971,2.473,65.125,4.29,100.81c-30.789-8.409-58.64-18.222-83.367-28.454c3.277-38.877,6.276-75.681,8.7-105.895
		C790.433,1166.311,799.708,1171.106,809.633,1175.957z M782.48,1153.671c2.286-28.596,3.983-50.364,4.805-60.981
		c19.47-8.262,38.319-17.285,55.805-26.919c1.62,1.474,3.595,3.2,5.957,5.151c0.382,24.448,1.204,65.726,2.894,116.208
		c-14.268-6.023-27.292-12.006-38.894-17.672C802.028,1164.076,791.829,1158.769,782.48,1153.671z M775.43,1149.779
		c-25.281-14.142-43.445-26.25-53.071-32.999c19.146-6.154,38.472-13.17,57.32-20.913
		C778.82,1106.925,777.344,1125.801,775.43,1149.779z M774.788,1157.813c-2.418,30.197-5.442,67.367-8.758,106.761
		c-18.425-7.869-35.053-15.915-49.744-23.696c-18.374-9.731-34.743-19.533-49.098-28.866c11.153-44.138,19.242-76.386,21.458-85.229
		c8.224-2.234,16.557-4.651,24.947-7.241C721.653,1125.382,742.935,1140.181,774.788,1157.813z M665.289,1219.527
		c13.942,8.986,29.72,18.371,47.277,27.682c17.164,9.103,34.793,17.482,52.81,25.133c-3.881,45.916-8.123,94.385-12.239,138.035
		c-19.233-10.729-36.772-21.476-52.407-31.736c-24.407-16.018-45.863-31.861-64.095-46.347
		C647.001,1291.722,656.915,1252.645,665.289,1219.527z M696.51,1384.648c18.324,12.032,36.972,23.293,55.865,33.769
		c-5.151,54.075-10.052,99.8-13.736,122.549c-19.867-13.087-38.2-25.998-54.687-38.19c-28.902-21.373-54.38-42.096-75.657-60.381
		c8.624-33.2,17.622-68.184,26.352-102.325C652.432,1354.092,673.125,1369.293,696.51,1384.648z M679.465,1508.584
		c17.368,12.847,36.766,26.485,57.85,40.291c-5.84,35.544-12.074,91.689-7.394,152.659c-32.102-20.161-60.845-40.652-85.438-59.594
		c-27.844-21.445-52.394-42.375-73.069-61.103c0.14-0.507,0.278-1.019,0.419-1.524c8.836-31.604,21.108-77.903,34.408-129.019
		C627.052,1468.084,651.688,1488.037,679.465,1508.584z M639.869,1647.648c29.928,23.057,60.303,44.168,90.857,63.17
		c4.782,50.524,17.336,103.754,43.966,150.898c-93.316-33.082-160.303-71.11-205.498-102.625c-4.783-3.336-9.379-6.641-13.814-9.91
		c-7.376-53.631,0.716-110.259,13.89-160.396C589.454,1606.956,613.158,1627.069,639.869,1647.648z M744.041,1553.244
		c42.579,27.473,91.771,55.339,145.292,78.786c8.537,46.729,18.263,81.618,29.146,104.403
		c12.331,25.815,23.609,47.473,33.806,65.639c-80.073-21.833-153.235-57.919-214.63-95.721
		C732.39,1645.876,738.252,1589.584,744.041,1553.244z M745.345,1545.359c0.018-0.105,0.037-0.218,0.055-0.323
		c3.683-21.362,8.69-67.562,13.974-122.788c31.027,16.826,62.695,31.524,94.707,43.899c4.857,1.878,9.727,3.687,14.601,5.459
		c5.456,59.357,11.828,109.984,19.097,151.722C835.284,1599.981,787.05,1572.428,745.345,1545.359z M760.135,1414.246
		c4.145-43.777,8.428-92.595,12.351-138.939c27.348,11.255,55.567,20.818,84.428,28.601c0.616,11.766,1.277,23.682,1.988,35.689
		c2.643,44.673,5.656,85.93,9.032,123.745C827.987,1448.603,791.835,1431.537,760.135,1414.246z M859.735,1198.299
		c39.581,16.041,87.811,31.897,142.222,42.553c8.472,23.05,17.035,47.21,25.487,72.166c0.946,2.794,1.898,5.624,2.853,8.47
		c-62.05-1.692-117.675-10.756-166.233-23.447C862.242,1262.754,860.829,1228.992,859.735,1198.299z M859.453,1190.256
		c-1.657-48.098-2.523-88.017-2.961-113.473c8.247,6.214,19.373,13.755,33.848,21.924c16.464,9.292,38.978,20.266,68.185,31.013
		c12.538,30.134,26.335,64.986,40.453,103.063C945.476,1221.963,898.161,1206.131,859.453,1190.256z M856.337,1067.265
		c-0.052-3.394-0.094-6.391-0.129-8.991c19.875-11.794,37.551-24.387,51.786-37.518c8.173,13.277,25.347,49.096,46.621,99.621
		C903.487,1100.764,872.333,1079.939,856.337,1067.265z M852.402,1046.636c0,0-92.66,52.061-179.078,72.034
		c-27.486,5.387-60.884,6.988-65.996,0.826c0.705-1.313,4.934-6.957,28.24-16.426c14.498-5.891,28.833-10.179,28.976-10.22
		l0.145-0.046c4.363-1.424,107.362-35.222,151.785-67.35c14.399-10.412,30.388-22.951,45.849-35.076
		c25.799-20.233,66.175-54.568,75.593-48.299c0.063,0.042,4.692,6.042-11.556,37.444
		C915.085,1001.313,888.62,1024.677,852.402,1046.636z M607.676,960.191c10.949-37.906,26.865-61.954,48.664-73.518
		c32.745-17.374,74.083-3.944,114.056,9.041c10.469,3.401,20.355,6.613,30.15,9.309c41.862,11.522,82.843,21.417,109.329,27.577
		c-50.777,8.169-84.479-10.658-119.452-23.245c-40.485-14.573-78.723-28.339-132.885-0.59
		c-61.346,31.425-59.853,148.061-59.291,191.969c0.056,4.395,0.108,8.596,0.053,11.269c-0.038,0.05-0.079,0.099-0.116,0.147
		C592.06,1089.475,584.886,1039.106,607.676,960.191z M595.161,1166.184c9.988,9.224,31.464,27.787,63.633,49.097
		c-8.28,32.756-18.123,71.561-28.444,111.971c-34.014-27.55-55.624-49.39-62.556-56.644
		C578.612,1229.729,588.221,1192.919,595.161,1166.184z M565.601,1278.887c9.567,9.76,31.055,30.703,62.753,56.176
		c-8.677,33.941-17.637,68.801-26.249,101.979c-34.533-30.053-56.827-52.626-63.079-59.083
		C548.099,1344.597,557.177,1310.665,565.601,1278.887z M536.791,1386.168c9.261,9.398,31.287,31.133,63.255,58.799
		c-13.352,51.355-25.725,98.096-34.708,130.329c-33.135-30.431-55.332-54.267-63.844-63.686
		C512.002,1476.004,524.338,1431.839,536.791,1386.168z M486.843,1559.173l0.249-0.761c3.533-10.793,7.567-23.844,11.965-38.584
		c10.544,11.484,32.648,34.709,64.096,63.412c-15.894,59.018-21.164,112.672-15.75,159.961
		c-53.261-40.614-79.606-74.591-87.138-85.152C466.38,1621.704,477.626,1587.331,486.843,1559.173z M479.161,1802.163
		c-24.245-41.801-26.699-89-20.476-133.846c11.834,15.458,39.587,47.576,90.065,85.091c0.711,4.732,1.524,9.404,2.458,14.001
		c12.488,61.45,44.9,109.31,96.431,142.582C564.532,1887.924,507.914,1851.736,479.161,1802.163z M679.7,1917.549
		c-3.224-0.667-6.412-1.354-9.568-2.059l0.325-0.612c-70.142-37.183-102.589-93.895-113.462-155.434
		c2.466,1.773,4.982,3.558,7.549,5.351c47.601,33.25,102.877,62.707,164.29,87.557c16.781,6.789,34.061,13.216,51.76,19.315
		c10.075,16.253,21.947,31.672,35.885,45.882H679.7z M826.906,1917.549c-13.525-13.001-25.182-27.139-35.174-42.101
		c50.803,16.911,105.162,30.999,162.51,42.101H826.906z M984.367,1915.622c-76.328-13.225-142.339-30.753-198.988-50.185
		c-28.012-46.209-41.474-99.171-46.823-149.812c21.487,13.098,43.051,25.161,64.601,36.1
		c51.662,26.223,103.348,46.088,154.247,59.329c28.469,49.231,47.789,70.027,57.14,78.242L984.367,1915.622z M1020.16,1884.397
		c-7.744-6.685-25.702-25.206-52.742-70.833c13.337,3.248,26.619,6.057,39.826,8.382l1.273-7.226
		c-15.647-2.756-31.074-6.152-46.278-10.043c-11.024-19.204-23.424-42.693-37.138-71.405
		c-10.758-22.524-19.846-56.578-27.523-97.684c43.211,18.404,89.099,33.821,136.511,43.724l1.499-7.183
		c-48.536-10.137-95.499-26.104-139.586-45.173c-8-44.958-14.406-97.63-19.535-152.576c60.378,21.207,121.932,34.293,183.315,38.906
		l0.55-7.317c-67.458-5.069-129.531-20.128-184.621-39.784c-4.825-53.191-8.476-108.244-11.235-160.277
		c54.155,13.963,110.605,21.662,168.298,23.001c43.27,130.262,92.7,310.693,95.339,461.313L1020.16,1884.397z M1135.317,1783.937
		c-3.838-149.307-52.113-326.082-94.76-454.873c3.471,0.046,6.943,0.08,10.421,0.08c5.937,0,11.897-0.067,17.857-0.202l-0.166-7.334
		c-10.355,0.231-20.54,0.244-30.569,0.072c-1.241-3.713-2.477-7.391-3.705-11.017c-7.945-23.458-16.011-46.29-24.025-68.212
		c18.678,3.431,38.044,6.238,58.021,8.212l0.723-7.303c-21.296-2.104-41.89-5.167-61.688-8.927
		c-13.645-37.009-27.073-71.257-39.429-101.316c29.486,10.278,65.251,20.158,107.923,27.936l1.316-7.218
		c-44.948-8.192-82.309-18.742-113.025-29.879c-22.727-54.693-41.369-94.151-50.261-108.929c9.751-9.801,17.54-19.871,22.838-30.11
		c5.266-10.176,8.965-18.8,11.151-26.03c40.584,50.063,84.84,128.082,85.306,128.907l1.562,2.763l125.847-6.411l9.647,669.271
		L1135.317,1783.937z"/>
	<path style="fill:#02CCC0;" d="M1065.203,729.266c0,0-58.142-85.402-96.276-120.875c-38.134-35.474-111.811-61.947-128.659-39.875
		c-16.848,22.072,32.695,47.152,51.104,55.273c18.408,8.121,94.845,47.277,180,168.287S1065.203,729.266,1065.203,729.266z"/>
	<path style="fill:#06BFAD;" d="M1108.317,824.975c0.291-2.605-124.492-161.18-326.423-114.527
		c-6.707,1.549-12.838,5.202-16.962,10.713c-5.823,7.78-6.932,18.137,25.861,19.961c53.662,2.984,177.951-7.623,284.908,84.662
		C1182.657,918.069,1108.317,824.975,1108.317,824.975z"/>
	<path style="fill:#02CCC0;" d="M1107.816,839.32c-2.985,0.826-80.782-73.787-210.126-58.824
		c-104.742,12.117-58.341,35.596-35.847,33.469c22.494-2.126,132.532-10.783,217.945,24.788
		C1165.201,874.322,1107.816,839.32,1107.816,839.32z"/>
	<path style="fill:#F7CEAD;" d="M1214.488,816.481c0,0,11.739-286.313,255.66-382.838s405.666,138.265,434.362,382.838
		l-71.741,30.653l-11.74-30.653c0,0,5.218-376.316-242.942-369.794c-245.345,6.448-293.162,375.664-293.162,375.664
		s-39.131,99.134-41.741,90.003C1240.576,903.224,1214.488,816.481,1214.488,816.481z"/>
	<path style="fill:#57ACE5;" d="M2307.515,998.023h-257.656c-8.759,0-15.859,7.1-15.859,15.859l0,0
		c0,8.759,7.101,15.858,15.859,15.858h257.656c8.759,0,15.858-7.1,15.858-15.858l0,0
		C2323.373,1005.123,2316.273,998.023,2307.515,998.023z"/>
	<path style="fill:#FEB546;" d="M1215.517,475.065c0,0-66.576-128.945-172.589-85.415
		c-104.646,46.721-57.222,183.871-57.222,183.871s165.204,425.292,220.59,514.894c53.079,85.868,145.117,44.023,152.695,40.387
		c0.333-0.16,0.674-0.306,1.021-0.437c7.859-2.978,101.646-40.744,76.096-138.406
		C1409.447,888.05,1215.517,475.065,1215.517,475.065z"/>
	<path style="fill:#FFC0BB;" d="M1523.526,726.618c0,0,21.528,13.301,22.138,12.642c0.609-0.66,6.205-2.51,6.146-3.321
		c-0.058-0.811,2.961-14.362,2.961-14.362l-16.545-15.83L1523.526,726.618L1523.526,726.618z"/>
	<path style="fill:#FFC0BB;" d="M1692.631,669.923c0,0-25.822,8.172-29.823,12.267c-4.001,4.094-5.693,13.253-5.693,13.253
		l5.769,6.782L1692.631,669.923z"/>
	<path style="fill:#F9C27A;" d="M1123.064,430.602c-58.682,50.375-75.144,127.638-79.509,175.104
		c-1.481,16.107,18.253,24.984,29.322,13.19c32.622-34.755,79.513-98.331,78.277-175.659
		C1150.924,428.839,1133.991,421.222,1123.064,430.602z"/>
	<path style="opacity:0.6;fill:#FC8D84;" d="M1553.165,728.943c-4.061,0.514-12.741-0.092-21.817-13.429l6.879-9.768l16.545,15.83
		C1554.771,721.576,1553.945,725.288,1553.165,728.943z"/>
	<g>
		<path style="fill:#07085B;" d="M972.267,1725.018c0,0,250.53-177.531,176.926-251.211c0,0-7.292-30.378-101.313,37.343
			c0,0-43.698-0.452-30.422-46.794c13.276-46.342,101.413-93.721,73.717-147.247s-73.146,10.351-106.745,13.987
			c-33.6,3.636,41.995-173.411,8.414-206.596s-68.932,34.78-94.292,35.484c-25.359,0.703-19.797-233.688-140.792-230.956
			c-120.995,2.733-25.063,123.846,9.861,190.486s-62.325,2.978-94.807,61.918c-32.481,58.94,174.899,73.157,136.904,128.298
			c-37.995,55.142-80.664,1.822-106.331,43.932c-41.498,68.08,171.037,61.407,149.521,110.682
			c-17.158,39.295-76.431-10.568-94.354,18.22C740.631,1511.353,820.787,1663.691,972.267,1725.018z"/>
		<path style="opacity:0.1;fill:#FFFFFF;" d="M1153.986,1479.358c-0.596-0.805-1.228-1.598-1.89-2.382
			c-6.53,8.58-14.119,17.793-22.758,27.125c-31.737,34.285-84.521,77.186-156.094,87.709c-4.086-38.984-11.31-80.802-21.653-125.25
			c47.512-86.58,97.315-127.028,130.73-145.716c2.896-1.619,5.713-3.094,8.461-4.462c-0.476-0.896-0.957-1.755-1.443-2.584
			c-2.674,1.337-5.414,2.772-8.23,4.343c-33.44,18.646-83.067,58.771-130.517,144.131c-0.044-0.187-0.086-0.371-0.129-0.558
			c-10.802-45.619-24.862-94.027-42.026-144.782c0.81-4.263,8.732-44.859,24.887-91.294c11.603-33.351,29.333-74.825,53.503-106.017
			c-0.857-0.552-1.715-1.04-2.573-1.478c-24.295,31.489-42.078,73.069-53.717,106.524c-13.524,38.874-21.308,73.695-23.995,86.694
			c-13.202-38.656-28.185-78.651-44.9-119.805c-46.616-114.767-95.941-211.766-122.113-261.001c-1.044,0.165-2.06,0.344-3.058,0.533
			c26.015,48.889,75.591,146.244,122.438,261.579c7.878,19.395,15.88,39.818,23.808,61.025c-9.87-5.407-39.498-21.036-79.56-36.705
			c-33.753-13.201-80.261-28.432-130.1-35.98c-0.08,0.142-0.162,0.279-0.241,0.423c-0.435,0.79-0.818,1.569-1.169,2.344
			c49.92,7.452,96.577,22.723,130.385,35.943c45.848,17.927,77.949,35.788,82.268,38.23c17.482,47.057,34.53,97.864,49.005,149.861
			c-63.385-30.781-176.56-43.855-232.782-48.656c-0.421,0.972-0.788,1.926-1.1,2.865c56.429,4.779,172.159,18.03,234.944,49.607
			c20.407,74.037,35.482,150.335,39.067,221.499c-58.462-9.85-115.839-56.816-153.848-94.726
			c-23.511-23.45-42.677-46.375-54.978-61.992c-0.827,0.516-1.614,1.105-2.364,1.766c12.354,15.687,31.606,38.722,55.224,62.28
			c38.461,38.367,96.654,85.947,156.121,95.695c1.403,30.596,0.654,60.218-2.74,88.275c0.475,0.194,0.942,0.399,1.419,0.592
			c0,0,0.56-0.396,1.616-1.158c4.581-38.563,4.461-81.718-0.331-129.101c4.667-0.683,9.312-1.501,13.931-2.469
			c26.92-5.638,53.003-16.098,77.731-31.189c23.489-14.337,45.813-32.862,66.352-55.06
			C1140.048,1496.872,1147.519,1487.821,1153.986,1479.358z"/>
	</g>
	<path style="fill:#06BFAD;" d="M578.016,1255.094c53.732-28.755,73.72,56.23,78.081,79.303c22.624,3.279,43.114,8,61.377,13.488
		c-16.813-24.144-46.03-32.009-51.462-50.024c-6.092-20.2,2.177-44.795,38.106-24.519c28.468,16.066,23.672,59.43,20.453,76.757
		c31.424,10.082,55.875,22.204,73.115,32.371c-14.945-30.356-47.598-42.925-51.333-63.997c-4.087-23.058,8.225-49.091,45.189-22.068
		c30.554,22.336,17.345,72.705,11.843,89.515c15.517,9.626,23.877,16.84,24.764,17.619c16.953,14.489,32.421,29.257,46.555,44.137
		c-12.489-27.009-37.958-42.875-38.641-62.373c-0.82-23.401,15.015-47.456,47.833-15.526c25.964,25.261,8.635,70.344,0.26,88.083
		c28.729,31.693,51.493,63.716,69.568,94.499c-1.744-27.455-24.564-65.36-17.16-90.936c4.858-16.777,16.78-20.838,25.996-21.271
		c7.875-0.37,15.347,2.859,20.613,8.726c29.765,33.16-12.512,92.093-26.08,109.276c21.774,38.126,36.366,74.149,46.13,105.024
		c-0.776-14.205-2.049-35.644-3.217-46.75c-1.842-17.512,4.9-42.073,18.565-52.028c0.569-0.415,1.138-0.801,1.705-1.159
		c10.851-6.87,25.076-4.1,33.67,5.443c33.619,37.327-32.508,94.364-47.159,106.231c0.062,0.214,0.131,0.437,0.192,0.649
		c22.616,78.324,19.211,133.571,19.056,135.883l-8.552-0.574c0.036-0.537,3.235-53.136-16.959-126.611
		c-80.284-8.726-102.54-54.644-91.663-71.758c11.24-17.684,42.453-24.178,56.74,8.979c8.286,19.231,21.463,37.513,31.077,49.487
		c-9.489-31.163-24.066-68.118-46.368-107.386c-104.841,24.439-114.037-41.684-92.663-57.154
		c21.634-15.658,39.035-6.113,56.136,18.931c11.36,16.636,25.409,27.597,33.587,33.104c-17.615-30.25-39.859-61.766-67.928-92.999
		c-12.712,14.355-47.865,48.829-81.635,34.621c-42.204-17.756-26.237-41.722-4.371-50.1c20.104-7.702,47.913,14.106,81.905,10.96
		c-15.761-17.175-33.278-34.241-52.811-50.935c-0.312-0.276-17.083-14.754-48.884-30.625c-10.935,15.99-41.323,54.203-76.445,44.426
		c-44.109-12.28-31.299-38.071-10.667-49.146c18.41-9.88,47.53,6.894,79.69,1.114c-27.3-12.83-64.241-25.912-110.048-32.71
		c-11.471,16.512-41.366,53.052-75.789,43.469c-44.109-12.28-31.299-38.072-10.667-49.146c18.669-10.021,48.35,7.388,81.049,0.873
		l0.12-0.899c-11.37-4.868-35.53-15.119-47.342-19.43c-15.765-5.754-33.459-21.968-35.452-38.088
		C566.104,1263.73,578.016,1255.094,578.016,1255.094z"/>
	<path style="fill:#FF5B7E;" d="M1030.335,1792.293c0,0-42.748-186.152-255.567-291.871l8.752,69.637l-33.108-77.587
		c0,0-126.184-56.214-224.582-71.875c0,0,125.657,190.08,165.797,222.739l69.284,14.983l-56.691,26.811
		c0,0,67.581,107.425,173.676,151.247C983.992,1880.199,1030.335,1792.293,1030.335,1792.293z"/>
	<g>
		<g>
			<g>
				<path style="fill:#FEB546;" d="M512.477,1726.318c27.803,59.643,64.513,102.61,105.605,133.143
					c23.869-14.539,52.621-31.29,52.621-31.29l-23.334,50.597c167.513,97.577,385.917,20.351,385.917,20.351
					c-58.933-132.161-132.904-197.826-206.438-225.914c-12.9,15.305-31.831,38.295-31.831,38.295l7.776-46.204
					c-36.901-10.187-73.262-11.634-107.104-8.034c-3.898,24.036-8.943,51.213-8.943,51.213l-23.439-46.183
					C576.122,1680.043,512.477,1726.318,512.477,1726.318z"/>
			</g>
			<g>
				<path style="fill:#F4A640;" d="M826.848,1673.204c-12.9,15.305-31.831,38.295-31.831,38.295l7.776-46.204
					c-36.901-10.187-73.262-11.634-107.104-8.034c-3.898,24.036-8.943,51.213-8.943,51.213l-23.439-46.183
					c-87.184,17.752-150.829,64.027-150.829,64.027c186.005,131.902,520.809,172.8,520.809,172.8
					C974.353,1766.957,900.381,1701.292,826.848,1673.204z"/>
			</g>
		</g>
	</g>
	<path style="fill:#F9C27A;" d="M1193.036,590.276c-58.682,50.375-75.144,127.638-79.509,175.104
		c-1.481,16.106,18.253,24.984,29.323,13.19c32.621-34.755,79.513-98.33,78.277-175.658
		C1220.896,588.514,1203.962,580.896,1193.036,590.276z"/>
	<path style="fill:#F9C27A;" d="M1276.007,765.95c-58.682,50.375-75.144,127.639-79.509,175.104
		c-1.481,16.107,18.253,24.984,29.322,13.19c32.622-34.755,79.513-98.33,78.277-175.658
		C1303.867,764.188,1286.934,756.57,1276.007,765.95z"/>
	<g>
		<path style="fill:#8FD0D6;" d="M1864.905,757.008c-6.426,5.34-12.328,16.444-18.578,28.203
			c-9.308,17.511-19.855,37.357-38.9,53.677c-21.065,18.049-45.789,25.554-65.654,31.582c-4.848,1.472-9.528,2.895-13.895,4.378
			l-107.876-31.137c17.926-20.423,40.426-36.81,65.627-47.305c10.531-4.386,21.138-7.606,30.495-10.445
			c13.809-4.19,26.851-8.149,33.836-14.134c6.364-5.455,12.202-16.438,18.383-28.067c9.052-17.03,20.317-38.224,40.126-54.681
			c26.746-22.22,59.015-27.843,84.943-32.36c18.138-3.159,35.269-6.144,43.735-13.435c4.563-3.929,9.442-11.553,14.61-19.626
			c3.258-5.089,6.627-10.353,10.561-15.805c18.093-25.079,42.382-45.27,69.915-58.95l10.571,36.289l2.961-42.375
			c18.112-7.332,37.34-11.939,56.938-13.37c3.142-0.23,6.066-0.368,8.896-0.501c4.547-0.214,46.697-5.472,59.797,5.099l0,0
			c18.044,14.562,20.729,39.369,9.713,57.088l-39.544-7.884l25.45,21.76c-1.076,0.65-2.178,1.275-3.335,1.844
			c-3.265,1.605-6.695,3.055-10.3,4.307c-14.09,4.897-27.143,5.512-37.631,6.004c-2.37,0.112-4.609,0.217-6.612,0.363
			c-29.234,2.135-58.048,18.227-75.197,41.997c-2.498,3.462-5.074,7.487-7.801,11.746c-4.245,6.633-9.074,14.174-15.021,21.697
			l-46.129-4.207l34.648,16.991c-1.558,1.511-3.172,3-4.86,4.454c-26.93,23.191-59.797,28.917-86.207,33.52
			C1890.563,746.862,1873.553,749.825,1864.905,757.008z"/>
		<path style="opacity:0.2;fill:#74BDC1;" d="M2041.089,598.704c-116.657,92.153-82.76,85.442-187.21,123.193
			c-79.483,28.727-83.729,122.292-150.443,145.894l24.442,7.055c4.366-1.482,9.047-2.906,13.895-4.378
			c19.865-6.028,44.589-13.533,65.654-31.582c19.045-16.32,29.593-36.166,38.9-53.677c6.25-11.758,12.152-22.863,18.578-28.203
			c8.647-7.183,25.657-10.146,43.665-13.284c26.41-4.602,59.277-10.329,86.207-33.52c1.688-1.454,3.303-2.943,4.86-4.454
			l-34.648-16.991l46.129,4.207c5.947-7.523,10.776-15.064,15.022-21.697c2.726-4.259,5.302-8.284,7.8-11.746
			c17.149-23.77,45.962-39.862,75.197-41.997c2.003-0.146,4.242-0.251,6.612-0.363c10.488-0.493,23.541-1.107,37.631-6.004
			c3.604-1.251,7.035-2.701,10.3-4.307c1.157-0.569,2.259-1.194,3.335-1.844l-25.45-21.76l39.544,7.884
			c7.488-12.044,8.638-27.361,2.943-40.512C2148.216,545.265,2099.307,552.715,2041.089,598.704z"/>
	</g>
	<g>
		<path style="fill:#74BDC1;" d="M1969.273,518.076c-3.178,14.144-7.05,31.341-15.362,48.448
			c-26.104,6.161-77.091,18.211-71.323,16.994c5.405-1.141,39.904,0.691,60.076,1.89c-20.475,28.598-49.594,45.316-73.549,59.062
			c-18.515,10.623-36.003,20.656-42.631,31.987c-4.925,8.422-6.977,22.964-9.148,38.36c-3.234,22.93-6.901,48.918-21.299,74.423
			c-15.925,28.208-40.069,46.3-59.471,60.836c-7.903,5.922-15.368,11.517-21.381,17.039c-1.104,1.015-2.18,2.065-3.239,3.133
			l-105.495-30.449c10.458-18.005,23.563-34.483,38.968-48.633c9.811-9.013,20.169-16.774,29.308-23.622
			c13.485-10.103,26.221-19.647,31.503-29.001c4.81-8.523,6.839-22.907,8.988-38.135c3.146-22.3,7.062-50.053,22.242-76.013
			c20.498-35.05,53.674-54.086,80.332-69.38c18.648-10.698,36.261-20.804,42.647-32.181c3.441-6.131,5.759-16.445,8.212-27.366
			c1.547-6.885,3.146-14.005,5.291-21.558c16.56-58.334,57.766-108.524,111.423-136.491l16.899,14.134l-4.562-20.076
			c3.008-1.332,5.866-2.53,8.632-3.684c4.905-2.048,49.071-24.622,67.664-18.241l0,0c34.95,11.995,46.154,56.341,20.556,82.988
			c-2.942,3.064-6.13,6.022-9.587,8.833c-13.513,10.992-27.595,16.869-38.909,21.591c-2.558,1.068-4.974,2.077-7.113,3.035
			c-31.236,13.997-56.446,43.146-65.794,76.072C1971.79,506.869,1970.567,512.313,1969.273,518.076z"/>
		<path style="opacity:0.2;fill:#74BDC1;" d="M1945.769,437.765c-76.028,114.551-37.205,118.085-103.548,172.589
			c-66.342,54.505-79.484,44.574-88.506,124.83c-4.216,37.495-46.454,83.106-90.266,121.066l48.497,13.998
			c1.06-1.067,2.135-2.118,3.239-3.133c6.013-5.522,13.478-11.117,21.381-17.039c19.401-14.536,43.545-32.628,59.471-60.836
			c14.397-25.505,18.064-51.493,21.299-74.423c2.172-15.396,4.224-29.938,9.148-38.36c6.628-11.331,24.115-21.365,42.631-31.987
			c23.955-13.745,53.074-30.463,73.549-59.062c-20.172-1.199-54.671-3.031-60.076-1.89c-5.768,1.217,45.219-10.833,71.323-16.994
			c8.313-17.107,12.185-34.305,15.362-48.448c1.294-5.763,2.517-11.207,3.878-16.002c9.348-32.926,34.558-62.075,65.795-76.072
			c2.139-0.958,4.555-1.967,7.111-3.035c11.315-4.722,25.397-10.6,38.91-21.591c3.457-2.811,6.645-5.769,9.587-8.833
			c14.226-14.808,17.08-35.079,10.816-52.229C2056.328,348.436,1989.432,371.977,1945.769,437.765z"/>
	</g>
	<g>
		<path style="fill:#9CDEDC;" d="M1878.15,832.277c-5.667,3.019-11.837,10.457-18.369,18.332
			c-5.302,6.391-10.996,13.243-17.804,19.666l-116.158-33.527c3.72-1.059,7.48-1.988,11.287-2.723
			c8.608-1.662,17.091-2.434,24.575-3.115c11.043-1.004,21.473-1.954,27.662-5.371c5.638-3.115,11.74-10.472,18.202-18.261
			c9.461-11.407,21.237-25.603,38.705-34.905c23.585-12.559,48.744-11.768,68.959-11.133c14.142,0.445,27.497,0.865,35.003-3.304
			c4.045-2.247,8.905-7.225,14.05-12.496c3.243-3.323,6.598-6.76,10.407-10.25c31.47-28.844,75.525-42.733,117.847-37.156
			c2.4,0.315,4.623,0.666,6.772,1.007c3.455,0.546,35.992,3.149,44.205,13.143l0,0c15.439,18.787,6.405,47.499-17.137,53.59
			c-2.707,0.7-5.514,1.257-8.42,1.638c-11.366,1.493-21.284-0.077-29.254-1.338c-1.801-0.284-3.503-0.554-5.032-0.755
			c-22.333-2.944-46.52,4.683-63.125,19.901c-2.418,2.216-4.983,4.844-7.698,7.626c-0.855,0.876-1.737,1.779-2.643,2.698
			l-28.979-7.321l17.119,18.462c-4.479,3.772-9.486,7.431-15.157,10.581c-23.875,13.262-49.5,12.456-70.091,11.81
			C1899.037,828.635,1885.775,828.217,1878.15,832.277z"/>
		<path style="opacity:0.2;fill:#74BDC1;" d="M2021.652,746.628c-85.161,39.867-96.563,47.991-138.925,54.69
			c-29.977,4.74-65.095,37.808-83.07,56.743l42.32,12.215c6.808-6.423,12.502-13.275,17.804-19.666
			c6.532-7.875,12.702-15.314,18.369-18.332c7.625-4.06,20.887-3.642,34.927-3.201c20.591,0.647,46.216,1.452,70.091-11.81
			c5.672-3.15,10.678-6.81,15.157-10.581l-17.119-18.462l28.979,7.322c0.904-0.919,1.787-1.822,2.643-2.698
			c2.715-2.781,5.28-5.41,7.698-7.626c16.605-15.219,40.792-22.845,63.124-19.902c1.53,0.202,3.232,0.471,5.033,0.755
			c7.97,1.261,17.889,2.831,29.254,1.338c2.906-0.381,5.713-0.938,8.42-1.638c12.851-3.325,21.363-13.393,23.947-24.905
			C2111.976,731.373,2063.585,726.998,2021.652,746.628z"/>
	</g>
	<path style="fill:#FF5B7E;" d="M1657.498,684.298c0,0-58.93,55.646-82.432,49.567c0,0-6.353-0.479-18.652-4.382
		c0,0-12.49,10.068-31.84-9.327l-13.107-2.864c0,0-16.548-3.889-37.268,19.473c-4.689,6.123-8.88,11.816-12.623,17.11
		c-0.385,0.567-0.767,1.109-1.146,1.629c-44.232,63.164-23.269,68.183-23.051,67.965l114.381,15.56l4.025-16.615l5.324-27.154
		c0,0,75.062-23.708,114.906-89.994L1657.498,684.298z"/>
	<path style="fill:#FFFFFF;" d="M1551.76,839.032c1.063-3.475,1.982-6.991,2.905-10.506c0.886-3.524,1.72-7.061,2.517-10.608
		c0.81-3.544,1.504-7.113,2.174-10.687c0.66-3.575,1.287-7.158,1.835-10.755c1.023-7.201,1.855-14.442,2.134-21.723
		c0.204-7.26,0.11-14.638-1.675-21.711c0.669,3.572,0.964,7.193,1.024,10.813c0.094,3.619-0.009,7.241-0.228,10.855
		c-0.248,3.613-0.542,7.223-0.945,10.823c-0.397,3.601-0.9,7.191-1.439,10.774c-1.026,7.177-2.342,14.311-3.737,21.431
		c-0.689,3.562-1.429,7.114-2.201,10.66C1553.384,831.953,1552.574,835.491,1551.76,839.032z"/>
	<g>
		<path style="fill:#FEB546;" d="M1998.435,651.476c0,0-51.523-4.565-80.22,24.784c-28.697,29.349-83.481,110.221-99.134,195.006
			c-15.653,84.786-213.051-43.262-213.051-43.262s74.785-234.79,226.964-265.226c0,0,40.219-8.478,72.177,5.87
			c31.957,14.348,53.479,31.305,88.046,20.87C1993.217,589.518,1987.782,625.388,1998.435,651.476z"/>
		<path style="fill:#E28810;" d="M1998.435,651.476c0,0,39.349-1.304,58.045-23.479c0,0,6.957-59.132-2.608-60.872
			c-9.565-1.739-16.471,3.043-25.192,6.087c-8.722,3.043-34.485,6.573-35.462,16.305
			C1993.217,589.518,1988.651,621.475,1998.435,651.476z"/>
		<path style="opacity:0.3;fill:#FEB546;" d="M1886,605c41.383,4.515,81.062,7.331,105.949,12.182
			c-0.586-15.398,1.268-27.664,1.268-27.664c-34.566,10.435-56.089-6.522-88.047-20.87c-31.957-14.349-72.176-5.87-72.176-5.87
			c-152.179,30.436-226.964,265.226-226.964,265.226s25.628,16.624,59.146,33.925C1723.713,648.756,1831.68,599.074,1886,605z"/>
		<path style="fill:#F9C27A;" d="M1998.435,651.476c-2.46-6.022-4.054-12.565-5.063-19.069
			c-14.129-2.438-55.203-6.627-89.372,18.593c-41.649,30.741-111.815,59.544-176.369,238.476
			c44.021,15.323,84.689,18.411,91.45-18.21c15.652-84.785,70.437-165.657,99.134-195.006
			C1946.911,646.911,1998.435,651.476,1998.435,651.476z"/>
	</g>
	<path style="fill:#8BCDF2;" d="M2320.141,1890.979h-282.908c-6.459,0-11.694-5.236-11.694-11.694v-844.322
		c0-6.459,5.235-11.694,11.694-11.694h282.908c6.459,0,11.694,5.235,11.694,11.694v844.322
		C2331.835,1885.743,2326.6,1890.979,2320.141,1890.979z"/>
	<path style="opacity:0.3;fill:#FFFFFF;" d="M2282.506,1375.377L2282.506,1375.377c-13.274,0-24.035-10.761-24.035-24.035v-274.934
		c0-13.274,10.761-24.035,24.035-24.035l0,0c13.275,0,24.036,10.761,24.036,24.035v274.934
		C2306.542,1364.616,2295.781,1375.377,2282.506,1375.377z"/>
	<path style="opacity:0.5;fill:#8BCDF2;" d="M2104.641,1023.269h-67.408c-6.459,0-11.694,5.235-11.694,11.694v844.322
		c0,6.458,5.235,11.694,11.694,11.694h282.908c6.459,0,11.694-5.236,11.694-11.694v-420.469
		C2167.471,1465.028,2118.18,1216.479,2104.641,1023.269z"/>
	<g>
		<path style="fill:#FEB546;" d="M2398.13,1227.653c-40.954,16.337-71.091,39.265-93.075,65.596
			c8.82,16.52,18.936,36.39,18.936,36.39l-32.963-17.529c-71.632,108.36-28.255,257.396-28.255,257.396
			c90.647-34.41,137.383-81.404,158.963-129.531c-9.749-9.211-24.411-22.747-24.411-22.747l30.615,6.955
			c8.214-24.3,10.563-48.569,9.438-71.346c-15.932-3.52-33.921-7.925-33.921-7.925l31.785-13.929
			C2426.673,1271.986,2398.13,1227.653,2398.13,1227.653z"/>
		<path style="fill:#F4A640;" d="M2421.735,1439.975c-9.749-9.211-24.411-22.747-24.411-22.747l30.615,6.955
			c8.214-24.3,10.563-48.569,9.438-71.346c-15.932-3.52-33.921-7.925-33.921-7.925l31.785-13.929
			c-8.568-58.997-37.111-103.33-37.111-103.33c-95.296,119.429-135.357,341.853-135.357,341.853
			C2353.42,1535.096,2400.155,1488.102,2421.735,1439.975z"/>
	</g>
	<g>
		<path style="fill:#02CCC0;" d="M2749.723,1322.134c-91.814-13.911-170.986-4.329-238.968,20.118
			c-1.557,39.408-4.327,86.285-4.327,86.285l-41.24-66.945c-245.525,120.656-325.356,437.663-325.356,437.663
			c201.357,33.969,336.313-1.678,426.76-66.161c-7.911-27.116-20.144-67.322-20.144-67.322l48.229,45.229
			c40.796-35.413,70.898-77.017,93.102-119.603c-25.203-23.355-53.204-50.513-53.204-50.513l72.587,8.525
			C2754.396,1433.08,2749.723,1322.134,2749.723,1322.134z"/>
		<path style="fill:#06BFAD;" d="M2566.591,1733.094c-7.911-27.116-20.144-67.322-20.144-67.322l48.229,45.229
			c40.796-35.413,70.898-77.017,93.102-119.603c-25.203-23.355-53.204-50.513-53.204-50.513l72.587,8.525
			c47.236-116.331,42.563-227.277,42.563-227.277c-300.311,115.578-609.892,477.121-609.892,477.121
			C2341.188,1833.224,2476.144,1797.577,2566.591,1733.094z"/>
	</g>
	<path style="fill:#07085B;" d="M2809.47,1518.641c-31.405-40.742-76.222,17.757-87.568,34.008
		c-18.552-5.311-35.959-8.771-51.919-10.871c21.305-12.764,46.519-8.701,56.939-20.688c11.684-13.44,13.836-35.236-20.844-32.07
		c-27.478,2.51-38.803,37.552-42.324,52.005c-27.682-3.121-50.702-2.257-67.494-0.4c22.018-18.193,51.506-16.561,61.679-31.489
		c11.13-16.333,10.667-40.637-27.146-32.637c-31.255,6.613-38.529,49.963-40.115,64.807c-15.278,2.037-24.212,4.695-25.164,4.988
		c-18.068,5.282-35.09,11.294-51.123,17.854c18.968-16.467,44.068-19.86,51.346-34.634c8.735-17.73,4.875-41.73-31.445-28.517
		c-28.734,10.455-31.007,51.161-30.703,67.716c-33.09,14.449-61.703,31.217-86.277,48.654c10.85-20.53,41.543-41.808,44.699-64.06
		c2.071-14.598-5.7-21.852-12.646-25.376c-5.933-3.012-12.804-3.114-18.89-0.422c-34.396,15.22-22.259,75.227-17.766,93.152
		c-29.965,21.809-53.671,44.486-71.88,64.873c5.517-10.666,13.921-26.729,18.666-34.875c7.481-12.842,10.797-34.084,3.726-46.479
		c-0.295-0.517-0.599-1.011-0.91-1.482c-5.975-9.046-17.885-11.84-27.805-7.47c-38.806,17.093-7.652,83.898-0.484,98.107
		c-0.122,0.143-0.252,0.29-0.373,0.434c-44.533,52.461-61.044,96.169-61.725,98.003l6.782,2.519
		c0.158-0.426,15.91-42.023,56.9-91.591c64.823,21.085,97.857-6.556,95.411-23.497c-2.529-17.505-24.308-33.313-46.787-12.736
		c-13.039,11.935-29.514,21.443-41.061,27.333c18.096-20.703,42.115-44.104,72.881-66.608c72.242,55.119,102.22,7.402,91.123-11.908
		c-11.23-19.546-27.932-18.224-49.768-4.867c-14.506,8.873-29.117,12.445-37.319,13.853c24.034-17.186,52.071-33.743,84.495-48.067
		c4.814,15.453,19.938,54.164,50.853,54.922c38.638,0.946,34.646-23.032,20.714-37.054c-12.809-12.891-41.768-5.732-66.846-19.926
		c18.081-7.764,37.475-14.835,58.292-20.922c0.336-0.104,18.26-5.441,48.235-6.646c2.881,16.096,13.041,56.035,43.463,60.671
		c38.208,5.822,37.277-18.469,25.23-34.138c-10.75-13.981-38.975-11.153-61.73-26.739c25.458-0.423,58.426,2.299,96.042,12.929
		c3.112,16.684,13.472,55.164,43.289,59.708c38.208,5.821,37.278-18.469,25.23-34.139c-10.901-14.179-39.778-11.056-62.694-27.395
		l0.22-0.733c10.438,0.189,32.586,0.665,43.173,1.437c14.127,1.031,33.363-5.323,40.479-17.042
		C2815.649,1529.414,2809.47,1518.641,2809.47,1518.641z"/>
	<g>
		<g>
			<g>
				<path style="fill:#FF5B7E;" d="M2683.934,1745.712c-48.535-37.982-97.424-58.264-144.692-66.302
					c-13.751,22.271-30.64,48.464-30.64,48.464l-2.006-52.146c-181.271-10.325-330.797,146.881-330.797,146.881
					c105.314,85.301,194.948,108.707,268.259,100.93c4.271-18.254,10.312-45.483,10.312-45.483l13.128,41.872
					c35.129-7.166,66.098-21.397,92.819-38.772c-6.952-21.72-14.281-46.549-14.281-46.549l39.178,28.6
					C2650.454,1811.366,2683.934,1745.712,2683.934,1745.712z"/>
			</g>
			<g>
				<path style="fill:#E03268;" d="M2444.058,1923.539c4.271-18.254,10.312-45.483,10.312-45.483l13.128,41.872
					c35.129-7.166,66.098-21.397,92.819-38.772c-6.952-21.72-14.281-46.549-14.281-46.549l39.178,28.6
					c65.241-51.84,98.721-117.494,98.721-117.494c-211.281-31.128-508.135,76.897-508.135,76.897
					C2281.113,1907.91,2370.747,1931.316,2444.058,1923.539z"/>
			</g>
		</g>
	</g>
	<path style="fill:#FF5B7E;" d="M2247.864,878.426h-138.356c-7.123,0-12.898,5.775-12.898,12.898v8.042
		c0,2.378,1.928,4.306,4.307,4.306h155.541c2.378,0,4.306-1.928,4.306-4.306v-8.042
		C2260.763,884.201,2254.988,878.426,2247.864,878.426z"/>
	<path style="fill:#026EAF;" d="M2308.568,903.672h-259.764c-12.85,0-23.267,10.417-23.267,23.267v56.948
		c0,12.85,10.417,23.267,23.267,23.267h259.764c12.85,0,23.267-10.417,23.267-23.267v-56.948
		C2331.835,914.089,2321.418,903.672,2308.568,903.672z"/>
	<path style="fill:#FEE4CB;" d="M1949.667,816.481h-895.758c-13.845,0-25.3,10.771-26.151,24.589l-65.252,1058.938
		c-0.929,15.075,11.047,27.813,26.151,27.813h1026.262c15.104,0,27.08-12.737,26.151-27.813l-65.252-1058.938
		C1974.967,827.252,1963.512,816.481,1949.667,816.481z"/>
	<g>
		<g>
			<g style="opacity:0.8;">
				<g>
					<path style="fill:#CFF3FF;" d="M2231.68,1528.794v5.563c0,6.652-2.59,12.906-7.291,17.608l-10.379,10.385h-0.001
						c-8.878,8.883-13.768,20.692-13.768,33.254V1865.5c0,31.205,25.376,56.593,56.568,56.593h120.128
						c31.193,0,56.57-25.388,56.57-56.593v-269.896c0-12.562-4.89-24.371-13.769-33.254l-10.38-10.385
						c-4.702-4.703-7.291-10.956-7.291-17.608v-5.563H2231.68z"/>
				</g>
			</g>
			<g>
				<path style="fill:#FEB546;" d="M2420.871,1632.068v220.197c0,29.257-23.275,52.975-51.986,52.975h-37.53h-28.246h-37.53
					c-28.711,0-51.985-23.718-51.985-52.975v-221.915L2420.871,1632.068z"/>
				<path style="fill:#F4A640;" d="M2230.229,1614.153c21.857-0.78,73.766,16.002,94.451,16.782
					c20.686,0.781,42.932-14.05,71.814-11.708c20.429,1.656,24.154,8.78,24.584,12.809c0.179,1.666-0.662,3.271-2.111,4.112
					c-3.709,2.15-13.251,6.086-32.23,4.936c-25.76-1.562-65.959,18.733-87.816,20.686c-20.254,1.809-59.362-2.081-80.633-21.919
					c-4.549-4.242-6.364-10.806-4.059-16.582C2216.041,1618.729,2220.394,1614.505,2230.229,1614.153z"/>
			</g>
			<g>
				<path style="fill:#FFFFFF;" d="M2194.042,1864.11v-267.173c0-14.489,5.642-28.11,15.888-38.355l10.279-10.279
					c3.203-3.203,4.968-7.463,4.968-11.994v-13.196h184.119v13.196c0,4.531,1.765,8.791,4.968,11.994l10.28,10.279
					c10.245,10.246,15.888,23.867,15.888,38.355v267.173c0,35.13-28.582,63.711-63.713,63.711h-118.966
					C2222.623,1927.821,2194.042,1899.24,2194.042,1864.11z M2232.866,1530.802v5.507c0,6.585-2.564,12.776-7.22,17.431
					l-10.279,10.28h-0.001c-8.792,8.793-13.635,20.483-13.635,32.918v267.173c0,30.89,25.131,56.021,56.021,56.021h118.966
					c30.892,0,56.022-25.132,56.022-56.021v-267.173c0-12.435-4.842-24.125-13.635-32.918l-10.28-10.28
					c-4.656-4.655-7.22-10.846-7.22-17.431v-5.507H2232.866z"/>
			</g>
			<g style="opacity:0.5;">
				<path style="fill:#FFFFFF;" d="M2399.879,1752.513c3.717,0.029,6.754-2.957,6.781-6.674
					c0.211-29.018,0.947-139.895-0.077-151.468c-1.021-11.542-11.719-18.46-19.261-21.938c-3.725-1.718-8.102,0.308-9.248,4.245
					l-0.005,0.019c-0.929,3.193,0.616,6.572,3.629,7.98c5.209,2.436,11.084,6.396,11.481,10.88
					c0.84,9.499,0.407,98.756,0.024,150.182C2393.177,1749.454,2396.164,1752.483,2399.879,1752.513L2399.879,1752.513z"/>
			</g>
			<g>
				<circle style="fill:#F4A640;" cx="2371.117" cy="1863.141" r="13.67"/>
				<path style="fill:#F4A640;" d="M2344.916,1822.7c0,3.932,3.188,7.12,7.119,7.12c3.933,0,7.12-3.188,7.12-7.12
					c0-3.933-3.188-7.12-7.12-7.12C2348.104,1815.58,2344.916,1818.768,2344.916,1822.7z"/>
				<path style="fill:#F4A640;" d="M2296.898,1867.128c0,3.932,3.188,7.12,7.12,7.12c3.932,0,7.119-3.188,7.119-7.12
					c0-3.933-3.188-7.12-7.119-7.12C2300.086,1860.008,2296.898,1863.195,2296.898,1867.128z"/>
				<path style="fill:#F4A640;" d="M2367.984,1820.481c0,1.006,0.815,1.821,1.821,1.821c1.005,0,1.821-0.815,1.821-1.821
					s-0.816-1.821-1.821-1.821C2368.8,1818.66,2367.984,1819.476,2367.984,1820.481z"/>
				<path style="fill:#F4A640;" d="M2265.279,1839.848c0,1.314,1.066,2.38,2.381,2.38s2.38-1.065,2.38-2.38s-1.065-2.38-2.38-2.38
					S2265.279,1838.533,2265.279,1839.848z"/>
				<path style="fill:#F4A640;" d="M2285.395,1799.917c0,2.358,1.912,4.271,4.271,4.271s4.271-1.913,4.271-4.271
					c0-2.359-1.912-4.272-4.271-4.272S2285.395,1797.558,2285.395,1799.917z"/>
				<path style="fill:#F4A640;" d="M2365.533,1772.067c0,2.359,1.913,4.272,4.272,4.272s4.271-1.913,4.271-4.272
					s-1.912-4.271-4.271-4.271S2365.533,1769.708,2365.533,1772.067z"/>
				<path style="fill:#F4A640;" d="M2356.526,1780.635c0,0.901,0.73,1.633,1.632,1.633c0.902,0,1.633-0.731,1.633-1.633
					s-0.73-1.632-1.633-1.632C2357.257,1779.003,2356.526,1779.733,2356.526,1780.635z"/>
				<path style="fill:#F4A640;" d="M2373.778,1790.332c0,2.524,2.046,4.571,4.571,4.571c2.523,0,4.57-2.047,4.57-4.571
					s-2.047-4.57-4.57-4.57C2375.824,1785.762,2373.778,1787.808,2373.778,1790.332z"/>
				<path style="fill:#F4A640;" d="M2231.768,1835.887c0,7.502,6.081,13.584,13.584,13.584c7.502,0,13.583-6.082,13.583-13.584
					s-6.081-13.584-13.583-13.584C2237.849,1822.303,2231.768,1828.385,2231.768,1835.887z"/>
				<circle style="fill:#F4A640;" cx="2268.419" cy="1812.909" r="5.938"/>
				<path style="fill:#F4A640;" d="M2231.768,1782.384c0,5.305,4.3,9.605,9.604,9.605c5.306,0,9.605-4.301,9.605-9.605
					s-4.3-9.604-9.605-9.604C2236.067,1772.779,2231.768,1777.079,2231.768,1782.384z"/>
			</g>
		</g>
		<g>
			<path style="fill:#9CDEDC;" d="M2221.021,1530.802h193.963c7.756,0,14.045-6.288,14.045-14.045v-5.622
				c0-7.757-6.289-14.045-14.045-14.045h-193.963c-7.757,0-14.045,6.288-14.045,14.045v5.622
				C2206.977,1524.514,2213.265,1530.802,2221.021,1530.802z"/>
			<path style="opacity:0.2;fill:#74BDC1;" d="M2218.463,1521.309h199.079c6.345,0,11.487-5.143,11.487-11.486v9.493
				c0,6.344-5.143,11.486-11.487,11.486h-199.079c-6.344,0-11.486-5.143-11.486-11.486v-9.493
				C2206.977,1516.166,2212.119,1521.309,2218.463,1521.309z"/>
			<g style="opacity:0.3;">
				
					<rect x="2414.405" y="1497.09" transform="matrix(-1 -1.224647e-16 1.224647e-16 -1 4831.9473 3027.8916)" style="opacity:0.5;fill:#74BDC1;" width="3.137" height="33.712"/>
				
					<rect x="2396.559" y="1497.09" transform="matrix(-1 -1.224647e-16 1.224647e-16 -1 4796.2539 3027.8916)" style="opacity:0.5;fill:#74BDC1;" width="3.137" height="33.712"/>
				
					<rect x="2378.711" y="1497.09" transform="matrix(-1 -1.224647e-16 1.224647e-16 -1 4760.5586 3027.8916)" style="opacity:0.5;fill:#74BDC1;" width="3.137" height="33.712"/>
				
					<rect x="2360.864" y="1497.09" transform="matrix(-1 -1.224647e-16 1.224647e-16 -1 4724.8652 3027.8916)" style="opacity:0.5;fill:#74BDC1;" width="3.137" height="33.712"/>
				
					<rect x="2343.018" y="1497.09" transform="matrix(-1 -1.224647e-16 1.224647e-16 -1 4689.1719 3027.8916)" style="opacity:0.5;fill:#74BDC1;" width="3.137" height="33.712"/>
				
					<rect x="2325.17" y="1497.09" transform="matrix(-1 -1.224647e-16 1.224647e-16 -1 4653.4766 3027.8916)" style="opacity:0.5;fill:#74BDC1;" width="3.137" height="33.712"/>
				
					<rect x="2307.323" y="1497.09" transform="matrix(-1 -1.224647e-16 1.224647e-16 -1 4617.7832 3027.8916)" style="opacity:0.5;fill:#74BDC1;" width="3.137" height="33.712"/>
				
					<rect x="2289.477" y="1497.09" transform="matrix(-1 -1.224647e-16 1.224647e-16 -1 4582.0898 3027.8916)" style="opacity:0.5;fill:#74BDC1;" width="3.137" height="33.712"/>
				
					<rect x="2271.629" y="1497.09" transform="matrix(-1 -1.224647e-16 1.224647e-16 -1 4546.3945 3027.8916)" style="opacity:0.5;fill:#74BDC1;" width="3.137" height="33.712"/>
				
					<rect x="2253.782" y="1497.09" transform="matrix(-1 -1.224647e-16 1.224647e-16 -1 4510.7012 3027.8916)" style="fill:#F4A640;" width="3.137" height="33.712"/>
				
					<rect x="2235.936" y="1497.09" transform="matrix(-1 -1.224647e-16 1.224647e-16 -1 4475.0078 3027.8916)" style="fill:#F4A640;" width="3.137" height="33.712"/>
				
					<rect x="2218.088" y="1497.09" transform="matrix(-1 -1.224647e-16 1.224647e-16 -1 4439.3125 3027.8916)" style="fill:#F4A640;" width="3.137" height="33.712"/>
			</g>
		</g>
	</g>
	<path style="fill:#FEE4CB;" d="M1138.189,816.481c0,0,11.74-286.313,255.66-382.838
		c243.921-96.525,405.666,138.265,434.362,382.838l-71.742,30.653l-11.739-30.653c0,0,5.218-376.316-242.942-369.794
		c-245.346,6.448-293.162,375.664-293.162,375.664s-39.132,99.134-41.74,90.003C1164.277,903.224,1138.189,816.481,1138.189,816.481
		z"/>
	<path style="opacity:0.3;fill:#F7CEAD;" d="M2032.578,1762.205c-806.936,18.744-810.918-714.977-792.294-945.724h-186.375
		c-13.844,0-25.299,10.771-26.151,24.589l-65.252,1058.938c-0.929,15.075,11.047,27.813,26.151,27.813h1026.262
		c15.104,0,27.08-12.737,26.151-27.813L2032.578,1762.205z"/>
	<g>
		<g>
			<g style="opacity:0.8;">
				<g>
					<path style="fill:#CFF3FF;" d="M1988.158,1399.014v7.373c0,8.816-3.43,17.103-9.661,23.336l-13.757,13.762
						c-11.766,11.771-18.246,27.422-18.246,44.069v357.677c0,41.354,33.631,74.999,74.969,74.999h159.199
						c41.337,0,74.967-33.645,74.967-74.999v-357.677c0-16.647-6.48-32.298-18.246-44.069h-0.001l-13.755-13.762
						c-6.23-6.232-9.662-14.52-9.662-23.336v-7.373H1988.158z"/>
				</g>
			</g>
			<g>
				<path style="fill:#FF5B7E;" d="M1963.241,1535.877v291.814c0,38.773,30.845,70.205,68.894,70.205h49.736h37.433h49.737
					c38.049,0,68.894-31.432,68.894-70.205v-294.091L1963.241,1535.877z"/>
				<path style="fill:#E03268;" d="M2215.888,1512.136c-28.966-1.034-97.757,21.206-125.17,22.241
					c-27.413,1.034-56.896-18.621-95.171-15.518c-27.074,2.195-32.011,11.638-32.581,16.976c-0.235,2.208,0.878,4.335,2.8,5.448
					c4.913,2.852,17.559,8.066,42.712,6.541c34.138-2.068,87.412,24.828,116.377,27.414c26.843,2.396,78.67-2.758,106.859-29.048
					c6.028-5.622,8.434-14.319,5.378-21.975C2234.689,1518.199,2228.922,1512.602,2215.888,1512.136z"/>
			</g>
			<g>
				<path style="fill:#FFFFFF;" d="M2179.412,1927.821h-157.66c-46.556,0-84.433-37.876-84.433-84.433V1489.32
					c0-19.2,7.477-37.252,21.054-50.829l13.625-13.624c4.245-4.245,6.582-9.89,6.582-15.895v-17.488h244.003v17.488
					c0,6.006,2.338,11.649,6.584,15.895l13.622,13.624c13.577,13.577,21.055,31.628,21.055,50.829v354.068
					C2263.844,1889.945,2225.967,1927.821,2179.412,1927.821z M1988.771,1401.675v7.298c0,8.727-3.397,16.931-9.568,23.101
					l-13.623,13.623c-11.652,11.652-18.069,27.146-18.069,43.624v354.068c0,40.938,33.305,74.242,74.242,74.242h157.66
					c40.937,0,74.241-33.305,74.241-74.242V1489.32c0-16.479-6.417-31.972-18.069-43.625h-0.001l-13.622-13.622
					c-6.17-6.169-9.568-14.374-9.568-23.101v-7.298H1988.771z"/>
			</g>
			<g style="opacity:0.5;">
				<path style="fill:#FFFFFF;" d="M1991.061,1695.495c-4.927,0.039-8.95-3.919-8.986-8.845
					c-0.28-38.455-1.256-185.394,0.102-200.73c1.354-15.297,15.53-24.465,25.525-29.073c4.936-2.275,10.736,0.407,12.255,5.626
					l0.007,0.025c1.231,4.23-0.816,8.709-4.809,10.575c-6.904,3.228-14.689,8.477-15.215,14.419
					c-1.113,12.588-0.541,130.875-0.033,199.027C1999.942,1691.441,1995.983,1695.456,1991.061,1695.495L1991.061,1695.495z"/>
			</g>
			<g>
				<circle style="fill:#E03268;" cx="2029.177" cy="1842.104" r="18.116"/>
				<path style="fill:#E03268;" d="M2063.899,1788.51c0,5.212-4.225,9.436-9.436,9.436s-9.435-4.224-9.435-9.436
					c0-5.211,4.224-9.435,9.435-9.435S2063.899,1783.299,2063.899,1788.51z"/>
				
					<ellipse transform="matrix(0.7071 -0.7071 0.7071 0.7071 -685.9236 2038.8092)" style="fill:#E03268;" cx="2118.099" cy="1847.388" rx="9.436" ry="9.436"/>
				<path style="fill:#E03268;" d="M2033.329,1785.57c0,1.333-1.081,2.413-2.414,2.413s-2.413-1.08-2.413-2.413
					s1.08-2.414,2.413-2.414S2033.329,1784.237,2033.329,1785.57z"/>
				<path style="fill:#E03268;" d="M2169.437,1811.234c0,1.742-1.412,3.154-3.153,3.154c-1.742,0-3.154-1.412-3.154-3.154
					s1.412-3.154,3.154-3.154C2168.024,1808.08,2169.437,1809.492,2169.437,1811.234z"/>
				<path style="fill:#E03268;" d="M2142.78,1758.316c0,3.127-2.534,5.662-5.661,5.662s-5.662-2.535-5.662-5.662
					c0-3.126,2.535-5.661,5.662-5.661S2142.78,1755.19,2142.78,1758.316z"/>
				<path style="fill:#E03268;" d="M2036.576,1721.41c0,3.127-2.534,5.661-5.661,5.661s-5.661-2.534-5.661-5.661
					s2.534-5.661,5.661-5.661S2036.576,1718.283,2036.576,1721.41z"/>
				<path style="fill:#E03268;" d="M2048.514,1732.764c0,1.195-0.97,2.164-2.164,2.164c-1.195,0-2.163-0.969-2.163-2.164
					c0-1.194,0.968-2.163,2.163-2.163C2047.544,1730.601,2048.514,1731.569,2048.514,1732.764z"/>
				<path style="fill:#E03268;" d="M2025.65,1745.615c0,3.346-2.712,6.057-6.058,6.057s-6.058-2.711-6.058-6.057
					s2.712-6.058,6.058-6.058S2025.65,1742.27,2025.65,1745.615z"/>
				<path style="fill:#E03268;" d="M2213.85,1805.986c0,9.941-8.061,18.001-18.002,18.001c-9.943,0-18.002-8.06-18.002-18.001
					c0-9.942,8.059-18.003,18.002-18.003C2205.789,1787.983,2213.85,1796.044,2213.85,1805.986z"/>
				<path style="fill:#E03268;" d="M2173.145,1775.535c0,4.346-3.522,7.869-7.868,7.869s-7.869-3.523-7.869-7.869
					s3.523-7.868,7.869-7.868S2173.145,1771.189,2173.145,1775.535z"/>
				<path style="fill:#E03268;" d="M2213.85,1735.082c0,7.03-5.699,12.729-12.73,12.729c-7.029,0-12.729-5.699-12.729-12.729
					s5.699-12.729,12.729-12.729C2208.15,1722.353,2213.85,1728.052,2213.85,1735.082z"/>
			</g>
		</g>
		<g>
			<path style="fill:#FEB546;" d="M2228.777,1401.675h-258.422c-9.9,0-17.926-8.026-17.926-17.926v-8.825
				c0-9.899,8.025-17.926,17.926-17.926h258.422c9.9,0,17.926,8.026,17.926,17.926v8.825
				C2246.703,1393.648,2238.678,1401.675,2228.777,1401.675z"/>
			<path style="fill:#F4A640;" d="M2231.48,1389.094h-263.828c-8.407,0-15.223-6.815-15.223-15.223v12.581
				c0,8.407,6.815,15.223,15.223,15.223h263.828c8.407,0,15.223-6.815,15.223-15.223v-12.581
				C2246.703,1382.278,2239.888,1389.094,2231.48,1389.094z"/>
			<g style="opacity:0.3;">
				<rect x="1967.652" y="1356.998" style="fill:#F4A640;" width="4.157" height="44.677"/>
				<rect x="1991.304" y="1356.998" style="fill:#F4A640;" width="4.157" height="44.677"/>
				<rect x="2014.955" y="1356.998" style="fill:#F4A640;" width="4.157" height="44.677"/>
				<rect x="2038.607" y="1356.998" style="fill:#F4A640;" width="4.156" height="44.677"/>
				<rect x="2062.259" y="1356.998" style="fill:#F4A640;" width="4.157" height="44.677"/>
				<rect x="2085.91" y="1356.998" style="fill:#F4A640;" width="4.157" height="44.677"/>
				<rect x="2109.562" y="1356.998" style="fill:#F4A640;" width="4.157" height="44.677"/>
				<rect x="2133.213" y="1356.998" style="fill:#F4A640;" width="4.157" height="44.677"/>
				<rect x="2156.865" y="1356.998" style="fill:#F4A640;" width="4.156" height="44.677"/>
				<rect x="2180.517" y="1356.998" style="fill:#F4A640;" width="4.157" height="44.677"/>
				<rect x="2204.168" y="1356.998" style="fill:#F4A640;" width="4.157" height="44.677"/>
				<rect x="2227.819" y="1356.998" style="fill:#F4A640;" width="4.157" height="44.677"/>
			</g>
		</g>
	</g>
	<g>
		<g>
			<polygon style="fill:#E03268;" points="1632.772,1333.059 1760.491,1273.108 1825.654,1391.705 1830.216,1419.726 
				1798.286,1494.662 1703.848,1476.723 			"/>
			<path style="fill:#FF5B7E;" d="M1587.158,1467.294h161.712c28.194,0,54.857-14.685,68.372-39.428
				c5.549-10.159,9.146-22.232,8.412-36.161c0,0,59.95,181.153-80.802,204.611h-157.694v26.717l-87.318-84.712l87.97-94.485
				L1587.158,1467.294z"/>
		</g>
		<g>
			<polygon style="fill:#E03268;" points="1435.665,1470.772 1427.718,1611.638 1292.402,1612.613 1265.581,1603.311 
				1214.819,1539.605 1275.483,1465.038 			"/>
			<path style="fill:#FF5B7E;" d="M1339.232,1366.847l-76.849,142.285c-13.398,24.807-13.148,55.245,2.2,78.896
				c6.302,9.71,15.215,18.611,27.819,24.586c0,0-187.88-33.34-141.632-168.33l74.94-138.75l-23.507-12.696l116.03-36.572
				l41.33,122.304L1339.232,1366.847z"/>
		</g>
		<g>
			<polygon style="fill:#E03268;" points="1427.735,1257.1 1306.514,1184.908 1368.228,1064.481 1388.879,1045.002 
				1468.838,1029.457 1506.897,1117.729 			"/>
			<path style="fill:#FF5B7E;" d="M1564.476,1219.661l-90.615-133.939c-15.798-23.351-42.902-37.206-70.969-34.535
				c-11.524,1.097-23.539,4.883-34.664,13.295c0,0,116.447-151.163,214.748-47.729l88.364,130.611l22.128-14.971l-21.234,119.79
				l-127.553-19.916L1564.476,1219.661z"/>
		</g>
	</g>
	<path style="fill:#07085B;" d="M2806.774,1928.122H221.893c-4.011,0-7.263-3.252-7.263-7.263l0,0c0-4.012,3.252-7.263,7.263-7.263
		h2584.882c4.011,0,7.263,3.251,7.263,7.263l0,0C2814.037,1924.87,2810.785,1928.122,2806.774,1928.122z"/>
	<path style="opacity:0.9;fill:#FFFFFF;" d="M967.482,223.785c3.268-14.224,15.996-24.835,31.212-24.835
		c2.793,0,5.502,0.359,8.085,1.031c7.51-16.059,23.807-27.186,42.706-27.186c4.886,0,9.598,0.744,14.03,2.124
		c10.174-16.847,28.657-28.112,49.773-28.112c25.123,0,46.521,15.945,54.628,38.267c5.739-3.2,12.346-5.03,19.383-5.03
		c22.021,0,39.873,17.852,39.873,39.872c0,1.306-0.067,2.595-0.19,3.869H967.482z"/>
	<path style="opacity:0.9;fill:#FFFFFF;" d="M2384.807,598.638c3.256-14.171,15.938-24.744,31.096-24.744
		c2.783,0,5.482,0.358,8.057,1.027c7.481-16,23.719-27.086,42.548-27.086c4.868,0,9.563,0.741,13.979,2.116
		c10.136-16.785,28.552-28.008,49.59-28.008c25.031,0,46.35,15.886,54.428,38.126c5.719-3.188,12.301-5.011,19.313-5.011
		c21.94,0,39.726,17.786,39.726,39.726c0,1.301-0.066,2.586-0.189,3.854H2384.807z"/>
	<path style="opacity:0.9;fill:#FFFFFF;" d="M454.323,662.657c3.256-14.171,15.937-24.744,31.097-24.744
		c2.783,0,5.482,0.358,8.056,1.028c7.482-16,23.719-27.087,42.548-27.087c4.868,0,9.563,0.741,13.979,2.116
		c10.136-16.785,28.552-28.008,49.59-28.008c25.03,0,46.35,15.886,54.427,38.126c5.718-3.188,12.301-5.011,19.313-5.011
		c21.94,0,39.726,17.786,39.726,39.726c0,1.301-0.067,2.586-0.189,3.854H454.323z"/>
	<path style="opacity:0.9;fill:#FFFFFF;" d="M2281.104,441.511c1.276-5.558,6.25-9.704,12.194-9.704
		c1.091,0,2.149,0.141,3.159,0.403c2.934-6.274,9.301-10.622,16.686-10.622c1.908,0,3.75,0.291,5.481,0.83
		c3.975-6.583,11.196-10.983,19.446-10.983c9.816,0,18.177,6.23,21.345,14.951c2.242-1.25,4.823-1.965,7.573-1.965
		c8.604,0,15.578,6.975,15.578,15.579c0,0.51-0.026,1.014-0.074,1.512H2281.104z"/>
	<path style="opacity:0.9;fill:#FFFFFF;" d="M687.823,502.333c1.277-5.558,6.25-9.704,12.195-9.704c1.091,0,2.149,0.141,3.159,0.403
		c2.934-6.274,9.302-10.622,16.686-10.622c1.909,0,3.75,0.291,5.482,0.83c3.975-6.582,11.196-10.983,19.447-10.983
		c9.815,0,18.176,6.229,21.344,14.951c2.242-1.25,4.824-1.965,7.573-1.965c8.604,0,15.579,6.975,15.579,15.579
		c0,0.51-0.026,1.014-0.074,1.512H687.823z"/>
	<path style="opacity:0.9;fill:#FFFFFF;" d="M1461.889,305.984c1.813-7.892,8.875-13.78,17.317-13.78c1.55,0,3.053,0.2,4.486,0.572
		c4.167-8.91,13.209-15.084,23.695-15.084c2.711,0,5.325,0.413,7.784,1.178c5.645-9.347,15.9-15.597,27.617-15.597
		c13.938,0,25.812,8.847,30.31,21.232c3.185-1.775,6.851-2.791,10.755-2.791c12.219,0,22.123,9.905,22.123,22.123
		c0,0.725-0.037,1.44-0.105,2.146H1461.889z"/>
	<path style="fill:#FFC0BB;" d="M1660.738,686.603c-0.249,0.021-0.489,0.043-0.721,0.066c0.002,0.25,0.004,0.396,0.004,0.396
		l3.865,4.542c0.67,0.143,1.093,0.225,1.093,0.225s7.514-0.304,12.021,1.946C1681.506,696.027,1676.569,685.254,1660.738,686.603z"
		/>
	<path style="fill:#FFFFFF;" d="M1503.593,747.519c-2,4.358-4.05,8.691-6.154,12.994c-2.089,4.312-4.231,8.597-6.364,12.885
		l-6.481,12.823l-3.25,6.406c-1.093,2.132-2.165,4.271-3.151,6.456c1.601-4.526,3.618-8.89,5.629-13.238
		c2.019-4.349,4.133-8.65,6.27-12.939c2.154-4.281,4.338-8.546,6.585-12.779C1498.91,755.887,1501.215,751.684,1503.593,747.519z"/>
	<g>
		<path style="fill:#FFFFFF;" d="M1469.132,799.422c5.994-0.886,12.078-1.116,18.143-1.002c6.067,0.134,12.131,0.69,18.125,1.68
			c5.992,1.004,11.913,2.424,17.692,4.3l4.299,1.526c0.357,0.14,0.715,0.232,1.072,0.414l1.03,0.482l2.049,0.985
			c1.356,0.675,2.705,1.367,4.039,2.087c1.334,0.718,2.652,1.471,3.911,2.313c-2.651-1.459-5.404-2.71-8.177-3.91l-2.081-0.898
			l-1.043-0.439c-0.325-0.152-0.708-0.238-1.06-0.36l-4.299-1.38c-5.784-1.694-11.664-3.056-17.61-4.033
			c-5.943-1.003-11.953-1.602-17.978-1.911c-3.014-0.119-6.032-0.228-9.052-0.191
			C1475.172,799.078,1472.15,799.193,1469.132,799.422z"/>
	</g>
	<path style="fill:#FFC0BB;" d="M1551.373,815.36c-6.262-3.731-14.253-3.745-20.769-2.797c-0.316,0.064-0.633,0.127-0.951,0.193
		c-5.115,1.076-4.919,3.87-4.54,5.141c0.114,0.384,0.486,0.651,0.915,0.668c0.794,0.031,1.811,0.093,3.187,0.249
		c8.008,0.915-0.055,10.136,3.071,10.289c3.95,0.193,3.208-8.46,5.266-8.231c3.87,0.43-1.07,7.926,1.48,8.459
		c2.791,0.584,0.815-8.733,5.266-8.307c2.386,0.229-0.928,8.586,1.893,8.078c2.962-0.533,0.74-8.078,3.455-7.85
		c4.018,0.338-1.233,7.57,1.728,8.078C1553.152,829.638,1555.81,818.003,1551.373,815.36z"/>
	<path style="fill:#F99893;" d="M1579.521,688.096c-1.721,3.752-0.683,7.91,2.319,9.286c3.001,1.377,6.83-0.548,8.551-4.301
		c1.721-3.752,0.683-7.91-2.319-9.286C1585.07,682.419,1581.242,684.344,1579.521,688.096z"/>
	<path style="fill:#FFC0BB;" d="M1577.465,710.39c1.021-1.606,1.9-3.319,2.623-5.12c2.039-4.834,3.188-10.01,3.824-14.541
		c0.138-0.972,0.33-1.934,0.541-2.893c0.852-3.872,1.015-8.008,0.281-12.301c-2.358-13.812-13.729-24.63-27.645-26.267
		c-18.748-2.204-34.935,11.972-35.725,30.329c-1.948-1.195-4.179-1.547-6.189-0.751c-3.859,1.528-5.438,6.677-3.528,11.5
		c1.91,4.823,6.587,7.494,10.445,5.966c0.536-0.212,1.023-0.5,1.467-0.842c0.919,15.688,13.199,28.295,28.559,28.702
		c7.512,0.199,14.44-2.559,19.768-7.251c0.354-0.271,0.729-0.592,1.123-0.966C1574.739,714.316,1576.207,712.425,1577.465,710.39z"
		/>
	<path style="fill:#333333;" d="M1549.891,683.599c-0.041,1.539-1.321,2.753-2.86,2.712c-1.539-0.041-2.753-1.321-2.713-2.86
		c0.041-1.539,1.321-2.753,2.86-2.712C1548.717,680.779,1549.931,682.06,1549.891,683.599z"/>
	<path style="fill:#333333;" d="M1573.776,685.801c-0.04,1.539-1.321,2.753-2.859,2.712c-1.539-0.04-2.754-1.321-2.713-2.86
		c0.041-1.539,1.321-2.753,2.86-2.713C1572.604,682.981,1573.817,684.262,1573.776,685.801z"/>
	<path style="fill:#07085B;" d="M1553.399,678.162c-1.351-0.595-2.642-1.082-3.941-1.421c-1.296-0.342-2.59-0.508-3.87-0.475
		c-1.274,0.048-2.565,0.205-3.825,0.652l-0.486,0.137c-0.162,0.049-0.31,0.13-0.472,0.186l-0.965,0.374
		c-0.649,0.262-1.261,0.612-1.977,0.865c0.422-0.596,0.896-1.178,1.43-1.699c0.584-0.451,1.133-1.003,1.827-1.325
		c1.306-0.797,2.879-1.175,4.433-1.221c1.563-0.038,3.121,0.333,4.477,1.019C1551.375,675.956,1552.586,676.91,1553.399,678.162z"/>
	<path style="fill:#07085B;" d="M1564.597,679.03c0.997-1.111,2.341-1.867,3.777-2.352c1.445-0.47,3.042-0.596,4.581-0.317
		c1.527,0.284,3.023,0.9,4.191,1.889c0.636,0.426,1.093,1.055,1.601,1.591c0.448,0.598,0.826,1.245,1.151,1.9
		c-0.669-0.361-1.219-0.801-1.82-1.16l-0.896-0.519c-0.151-0.08-0.285-0.184-0.438-0.257l-0.459-0.21
		c-1.176-0.636-2.428-0.99-3.679-1.234c-1.26-0.23-2.564-0.265-3.897-0.127C1567.373,678.369,1566.022,678.649,1564.597,679.03z"/>
	<path style="fill:#F99893;" d="M1559.067,681.292c0.98,1.5,1.824,3.077,2.593,4.69c0.771,1.614,1.45,3.273,1.991,5.002
		c0.252,0.871,0.481,1.755,0.567,2.711c0.013,0.242,0.017,0.49-0.007,0.751c-0.012,0.13-0.045,0.272-0.069,0.406
		c-0.054,0.147-0.086,0.29-0.188,0.44c-0.051,0.075-0.105,0.149-0.162,0.218l-0.137,0.125c-0.091,0.08-0.179,0.167-0.274,0.24
		c-0.192,0.139-0.381,0.286-0.58,0.405c-0.784,0.506-1.616,0.873-2.46,1.192c-0.848,0.307-1.706,0.572-2.587,0.744
		c1.591-0.805,3.194-1.604,4.55-2.637c0.173-0.126,0.321-0.269,0.478-0.406l0.214-0.213l0.104-0.105
		c0.007-0.022,0.016-0.04,0.027-0.056c0.102-0.175,0.104-0.623,0.053-1.009c-0.101-0.813-0.322-1.658-0.582-2.486
		c-0.5-1.671-1.124-3.324-1.727-4.988C1560.258,684.653,1559.637,682.99,1559.067,681.292z"/>
	<path style="fill:#07085B;" d="M1533.707,640.093c0,0,9.651-7.14,30.051-4.174c20.4,2.966,23.418,14.338,23.315,30.211
		l-1.905,17.254c0,0-5.67-4.669-11.346-20.915c0,0-12.545,12.356-17.418,10.367c-4.873-1.989,2.785-10.998,2.785-10.998
		s-24.066,19.131-37.839,17.962c0,0-6.327-25.204,4.62-33.282c0,0-7.738-0.256-8.02-1.856c-0.283-1.6,3.989-3.604,11.327-2.108
		c0,0-4.425-11.1-1.387-11.966C1530.927,629.723,1533.707,640.093,1533.707,640.093z"/>
	<path style="fill:#FFFFFF;" d="M1565.697,704.94c-1.266,3.256-5.524,5.316-10.27,4.738c-4.746-0.578-8.386-3.601-8.831-7.066
		L1565.697,704.94z"/>
	<g>
		<polygon style="fill:#FFC0BB;" points="1891.025,1894.202 1891.025,1879.267 1873.939,1874.535 1870.137,1876.205 
			1869.488,1894.202 1874.869,1909.883 		"/>
		<g>
			<polygon style="fill:#FFC0BB;" points="1781.847,1894.202 1781.847,1879.267 1764.761,1874.535 1760.959,1876.205 
				1760.311,1894.202 1765.69,1909.883 			"/>
			<path style="fill:#06BFAD;" d="M1766.83,1408.989c0,0-22.416,26.635-75.209,31.334c-52.792,4.698-13.267,32.575-13.267,32.575
				s63.62,9.161,85.847-5.765C1786.427,1452.208,1766.83,1408.989,1766.83,1408.989z"/>
			<polygon style="fill:#333333;" points="1744.69,1587.921 1756.813,1883.394 1785.045,1883.394 1809.921,1660.062 
				1777.306,1560.005 			"/>
			<path style="fill:#333333;" d="M1756.813,1588.548l110.6,294.846l27.088-2.212c0,0-33.721-270.319-53.898-296.024
				c-20.178-25.706-64.401-20.178-64.401-20.178L1756.813,1588.548z"/>
			<path style="fill:#07085B;" d="M1818.521,1358.868c0,0,5.88-30.505-11.306-41.233c-17.185-10.729-34.893-8.832-46.728-1.61
				c-11.836,7.223-18.175,31.151-12.238,44.48l39.651-14.354L1818.521,1358.868z"/>
			<path style="fill:#FFC0BB;" d="M1769.086,1409.26c0,0,13.663,8.099,24.307,0l0,0l-2.51-19.766l-21.177-4.364L1769.086,1409.26
				L1769.086,1409.26z"/>
			<path style="fill:#F99893;" d="M1755.066,1358.241c1.221,3.72-0.279,7.502-3.351,8.449c-3.072,0.947-6.552-1.3-7.771-5.02
				c-1.222-3.719,0.279-7.502,3.351-8.449C1750.367,1352.274,1753.847,1354.522,1755.066,1358.241z"/>
			<path style="fill:#FFC0BB;" d="M1754.406,1379.401c-0.799-1.625-1.446-3.334-1.932-5.106c-1.4-4.771-1.896-9.762-1.975-14.087
				c-0.017-0.929-0.089-1.853-0.18-2.777c-0.363-3.731-0.03-7.632,1.191-11.577c3.929-12.691,16.23-21.538,29.905-21.475
				c18.424,0.087,32.417,15.252,30.998,32.571c2.029-0.898,4.232-0.973,6.085,0.006c3.557,1.878,4.474,6.892,2.049,11.199
				c-2.424,4.307-7.272,6.276-10.828,4.398c-0.494-0.261-0.932-0.587-1.321-0.958c-2.757,14.617-16.152,25.038-31.081,23.654
				c-7.3-0.677-13.684-4.062-18.286-9.077c-0.311-0.296-0.635-0.64-0.972-1.035
				C1756.58,1383.398,1755.383,1381.456,1754.406,1379.401z"/>
			<path style="fill:#333333;" d="M1782.261,1357.785c-0.144,1.449,0.952,2.736,2.447,2.875s2.824-0.924,2.968-2.372
				c0.145-1.449-0.951-2.736-2.447-2.875S1782.404,1356.337,1782.261,1357.785z"/>
			<path style="fill:#333333;" d="M1760.905,1356.747c-0.144,1.449,0.952,2.736,2.448,2.875c1.495,0.139,2.824-0.924,2.968-2.373
				c0.144-1.448-0.952-2.735-2.448-2.874C1762.378,1354.236,1761.049,1355.299,1760.905,1356.747z"/>
			<path style="fill:#07085B;" d="M1779.508,1352.279c1.378-0.404,2.687-0.714,3.986-0.884c1.297-0.173,2.57-0.181,3.808-0.002
				c1.229,0.191,2.462,0.487,3.629,1.053l0.454,0.185c0.151,0.064,0.285,0.158,0.435,0.229l0.891,0.464
				c0.598,0.321,1.147,0.72,1.811,1.041c-0.339-0.607-0.729-1.207-1.185-1.758c-0.513-0.49-0.979-1.07-1.612-1.452
				c-1.171-0.897-2.649-1.433-4.147-1.653c-1.509-0.216-3.062-0.047-4.457,0.441
				C1781.732,1350.445,1780.446,1351.2,1779.508,1352.279z"/>
			<path style="fill:#07085B;" d="M1770.604,1351.447c-0.835-1.156-2.047-2.019-3.382-2.638c-1.344-0.606-2.875-0.908-4.397-0.823
				c-1.513,0.092-3.035,0.496-4.284,1.29c-0.667,0.326-1.185,0.863-1.74,1.308c-0.505,0.509-0.948,1.072-1.343,1.648
				c0.69-0.263,1.275-0.612,1.899-0.881l0.93-0.385c0.156-0.059,0.298-0.14,0.454-0.191l0.47-0.145
				c1.215-0.463,2.471-0.651,3.713-0.736c1.248-0.071,2.516,0.046,3.792,0.329
				C1767.994,1350.505,1769.269,1350.926,1770.604,1351.447z"/>
			<path style="fill:#F99893;" d="M1774.864,1351.382c0.414,1.86,0.51,3.763,0.375,5.673c-0.069,0.959-0.216,1.914-0.477,2.879
				c-0.279,0.956-0.642,1.934-1.406,2.829l-0.327,0.317l-0.292,0.271c-0.123,0.129-0.298,0.229-0.389,0.373
				c-0.236,0.258-0.398,0.549-0.486,0.858c-0.218,0.619,0.002,1.347,0.399,2.021c0.87,1.368,2.588,2.27,4.425,2.868
				c-1.923,0.132-4.122-0.363-5.596-2.031c-0.72-0.807-1.202-2.009-0.952-3.226c0.062-0.301,0.148-0.595,0.298-0.86
				c0.12-0.285,0.304-0.52,0.486-0.757c0.174-0.251,0.412-0.413,0.621-0.619c0.132-0.113,0.155-0.152,0.223-0.219l0.182-0.178
				c0.479-0.539,0.831-1.335,1.131-2.144c0.32-0.814,0.496-1.703,0.726-2.582
				C1774.197,1355.075,1774.507,1353.246,1774.864,1351.382z"/>
			<path style="fill:#FFFFFF;" d="M1766.457,1373.142c0.912,3.229,4.893,5.616,9.623,5.534c4.729-0.082,8.621-2.604,9.414-5.864
				L1766.457,1373.142z"/>
			<path style="fill:#07085B;" d="M1811.621,1357.895c1.781-1.666,3.198-1.603,3.198-1.603l-1.216-9.746l-3.268-5.772
				c0,0-12.522-15.388-12.957-15.765c-0.435-0.378-9.719-5.149-10.288-5.391s-13.221,2.176-13.221,2.176s-22.559-3.699-18.326,7.856
				c4.233,11.556,20.815,17.054,21.635,16.501c-2.757-2.519-3.32-9.959-3.32-9.959
				C1785.92,1348.289,1808.159,1356.643,1811.621,1357.895z"/>
			<g>
				<path style="fill:#FFFFFF;" d="M1736.211,1913.597l47.133-0.03c1.417,0,2.564-1.15,2.563-2.566v-0.129
					c-0.001-1.417-1.15-2.565-2.567-2.564l-47.133,0.029c-1.417,0.001-2.564,1.15-2.563,2.567v0.129
					C1733.645,1912.449,1734.794,1913.598,1736.211,1913.597z"/>
				<path style="fill:#333333;" d="M1783.503,1892.328l1.741,14.627c0.215,1.804-0.794,3.442-2.119,3.443l-46.056,0.028
					c-1.196,0.001-2.379-0.745-3.008-2.148c-0.646-1.438-0.775-3.606,1.284-6.522c4.004-5.668,16.916-7.178,23.718-11.832
					c0.393-0.268,0.855-0.41,1.331-0.41l20.694-0.013C1782.287,1889.5,1783.309,1890.697,1783.503,1892.328z"/>
			</g>
			<g>
				<path style="fill:#FFFFFF;" d="M1844.804,1913.597l47.132-0.03c1.417,0,2.565-1.15,2.564-2.566v-0.129
					c-0.002-1.417-1.15-2.565-2.568-2.564l-47.132,0.029c-1.417,0.001-2.565,1.15-2.564,2.567l0.001,0.129
					C1842.237,1912.449,1843.387,1913.598,1844.804,1913.597z"/>
				<path style="fill:#333333;" d="M1892.095,1892.328l1.741,14.627c0.215,1.804-0.794,3.442-2.119,3.443l-46.055,0.028
					c-1.196,0.001-2.38-0.745-3.009-2.148c-0.646-1.438-0.775-3.606,1.284-6.522c4.004-5.668,16.916-7.178,23.719-11.832
					c0.392-0.268,0.855-0.41,1.33-0.41l20.694-0.013C1890.879,1889.5,1891.901,1890.697,1892.095,1892.328z"/>
			</g>
			<path style="fill:#FEB546;" d="M1599.847,1430.832l1.688-0.328l94.171-18.308c10.238-1.99,20.027,5.093,21.338,15.44
				l28.803,227.324c0.959,7.565-2.928,14.92-9.736,18.356c-15.586,7.865-45.974,21.394-82.698,28.533s-69.968,5.981-87.365,4.528
				c-7.601-0.635-13.958-5.998-15.904-13.371l-58.465-221.559c-2.661-10.085,3.761-20.318,14-22.31L1599.847,1430.832z"/>
			<path style="fill:#333333;" d="M1476.834,1423.621c0.708-9.512,5.824-16.717,12.84-18.08l101.422-19.718l1.688-0.328
				l101.422-19.718c7.017-1.363,14.46,3.399,18.68,11.953l14.063,28.507c3.944,7.997-0.795,17.557-9.548,19.258l-112.584,21.888
				l-1.688,0.328l-112.584,21.888c-8.753,1.701-16.729-5.386-16.067-14.278L1476.834,1423.621z"/>
			<path style="fill:#333333;" d="M1486.653,1389.195c-0.815-4.195,1.924-8.257,6.119-9.072l93.676-18.212l1.688-0.328
				l93.676-18.211c4.194-0.815,8.257,1.924,9.072,6.118l4.43,22.786l-103.362,13.436l-100.868,26.27L1486.653,1389.195z"/>
			<path style="fill:#E87B50;" d="M1730.021,1467.751l11.268,103.688c0.191,1.763-0.728,3.454-2.318,4.237
				c-10.569,5.204-51.828,24.442-103.389,34.467c-51.56,10.023-97.021,7.645-108.771,6.778c-1.768-0.13-3.253-1.354-3.736-3.059
				l-28.401-100.358c-0.768-2.715,1.28-5.411,4.101-5.366c52.102,0.822,177.436-23.544,225.435-43.826
				C1726.808,1463.214,1729.717,1464.945,1730.021,1467.751z"/>
			<path style="fill:#F3FDFF;" d="M1590.911,1548.58c0,22.847,18.521,41.367,41.368,41.367s41.368-18.521,41.368-41.367
				c0-22.848-18.521-41.368-41.368-41.368S1590.911,1525.732,1590.911,1548.58z"/>
			<path style="fill:#FFC0BB;" d="M1669.891,1509.34c0.499,0.442,0.313,1.265-0.33,1.438c-4.984,1.351-20.643,5.698-20.588,7.044
				c0.065,1.602,14.151-1.942,14.977-0.704c0.824,1.238-13.003,4.348-12.656,6.048c0.346,1.7,12.858-1.559,13.254-0.893
				s-11.259,5.069-11.655,6.191s12.616-2.064,13.326-1.393c0.71,0.671-7.54,5.856-7.177,6.616c0.363,0.759,0.479,1.326,22.395-5.027
				l8.521-2.869l5.693-6.1l-4.262-9.079c0,0-27.45-10.436-28.436-9.731C1662.014,1501.553,1662.21,1502.529,1669.891,1509.34z"/>
			<path style="fill:#02CCC0;" d="M1686.923,1499.473c10.826,2.586,36.3,1.298,55.599-0.219c0.156-15.96,0.768-30.813,2.169-41.241
				c4.976-37.038,22.14-49.023,22.14-49.023c17.109,2.035,28.994-7.086,28.994-7.086c22.941,0.276,36.209,12.715,36.209,12.715
				c35.245,30.4,8.568,92.594,8.568,92.594l9.674,82.169c-21.836,7.463-111.113,2.977-111.113,2.977s4.364-26.169,3.726-52.801
				c-28.294-1.587-55.965-6.087-55.965-6.087C1685.817,1527.389,1686.923,1499.473,1686.923,1499.473z"/>
			<path style="fill:#CAF0FF;" d="M1804.762,1444.101c0.058,12.302-5.333,24.153-13.842,32.61
				c-4.252,4.258-9.189,7.806-14.519,10.622c-5.327,2.813-10.95,5.131-16.799,6.735c-0.727,0.213-1.44,0.467-2.176,0.652
				l-2.21,0.543c-1.476,0.353-2.94,0.748-4.425,1.065l-4.479,0.841l-2.24,0.421l-2.26,0.313c-3.013,0.43-6.023,0.888-9.065,1.107
				l-4.553,0.422c-1.521,0.114-3.046,0.172-4.568,0.26c-12.192,0.634-24.446,0.398-36.703-0.221
				c12.165,1.582,24.46,2.473,36.78,2.161c12.296-0.336,24.689-1.65,36.602-5.181c5.967-1.689,11.756-4.078,17.221-7.059
				c5.437-3.025,10.54-6.758,14.791-11.345c2.159-2.256,4.036-4.771,5.727-7.388c1.625-2.664,3.023-5.455,4.131-8.359
				c1.048-2.927,1.832-5.937,2.294-8.992C1804.934,1450.261,1805.107,1447.154,1804.762,1444.101z"/>
			<path style="fill:#CAF0FF;" d="M1686.923,1533.47c13.358,2.993,26.947,4.987,40.604,6.194
				c13.659,1.208,27.421,1.566,41.149,0.722c13.693-0.936,27.478-2.977,40.46-7.8c6.475-2.388,12.713-5.563,18.225-9.748
				c5.466-4.208,10.207-9.468,13.24-15.626c-3.525,5.876-8.361,10.84-13.958,14.641c-5.563,3.86-11.761,6.722-18.161,8.905
				c-6.41,2.18-13.026,3.75-19.72,4.867c-6.692,1.129-13.457,1.868-20.245,2.28c-13.578,0.885-27.231,0.638-40.846-0.169
				c-6.809-0.422-13.613-0.987-20.405-1.702C1700.467,1535.366,1693.69,1534.48,1686.923,1533.47z"/>
		</g>
	</g>
	<g>
		<path style="fill:#6DB1B5;" d="M646.966,543.911l13.941,58.062l28.201-43.764l96.465-107.597l-89.615,44.275
			c0,0-42.894,29.718-44.562,33.023C649.729,531.216,646.966,543.911,646.966,543.911z"/>
		<polygon style="fill:#8FD0D6;" points="594.826,526.381 785.589,451.315 648.293,543.731 		"/>
		<polygon style="fill:#8FD0D6;" points="730.45,575.574 664.192,554.414 785.574,450.612 		"/>
	</g>
	<g>
		<g>
			<g>
				<path style="fill:#6DB1B5;" d="M525.578,930.565l1.087-4.704c-4.874-1.126-9.65-2.968-14.199-5.475l-2.33,4.228
					C515.074,927.337,520.269,929.339,525.578,930.565z"/>
			</g>
			<g>
				<path style="fill:#6DB1B5;" d="M469.62,876.597l4.358-2.075c4.757,9.993,10.116,18.765,15.926,26.07l-3.779,3.005
					C480.088,896.005,474.535,886.921,469.62,876.597z M457.401,843.078c-1.099-4.577-1.959-9.297-2.557-14.028
					c-0.551-4.356-0.892-8.825-1.015-13.281l4.827-0.132c0.117,4.3,0.446,8.608,0.977,12.808c0.577,4.557,1.405,9.101,2.463,13.508
					c0.31,1.296,0.642,2.586,0.993,3.869l-4.658,1.273C458.061,845.738,457.715,844.387,457.401,843.078z M456.36,784.268
					c1.836-9.994,4.675-20.218,8.438-30.387l4.527,1.675c-3.667,9.909-6.431,19.863-8.217,29.584L456.36,784.268z M595.757,720.266
					c-0.326-0.064-0.65-0.134-0.974-0.206l1.058-4.711c0.283,0.064,0.566,0.124,0.803,0.172c0.001,0.001,0.15,0.013,0.508-0.032
					c2.676-0.339,9.127-2.827,11.913-6.375c2.342-2.983,3.723-6.707,4.105-11.07l4.809,0.421c-0.458,5.237-2.229,9.951-5.118,13.63
					c-3.864,4.922-11.744,7.759-15.104,8.184C596.965,720.38,596.308,720.375,595.757,720.266z M477.872,725.238
					c4.917-9.04,10.556-17.996,16.762-26.619l3.918,2.82c-6.089,8.459-11.619,17.242-16.439,26.105L477.872,725.238z
					 M564.231,692.048c-1.675-4.318-2.838-8.981-3.455-13.86c-0.332-2.623-0.511-5.356-0.534-8.121l4.827-0.039
					c0.021,2.576,0.188,5.118,0.496,7.554c0.568,4.489,1.633,8.769,3.166,12.719c1.089,2.805,2.478,5.521,4.128,8.072l-4.054,2.623
					C566.977,698.169,565.438,695.158,564.231,692.048z M577.035,660.771l-0.677-0.052l0.345-4.816l0.734,0.058
					c11.028,0.923,21.579,5.447,28.948,12.412l-3.316,3.508C596.482,665.654,586.993,661.605,577.035,660.771z M517.577,676.661
					c4.413-3.454,12.518-9.557,17.22-11.629c3.651-1.609,7.045-2.96,10.375-4.128l1.597,4.556c-3.21,1.126-6.489,2.431-10.025,3.99
					c-3.083,1.359-8.985,5.374-16.192,11.014L517.577,676.661z M565.849,638.721c3.53-10.01,8.532-19.452,14.867-28.065l3.89,2.86
					c-6.053,8.229-10.832,17.25-14.205,26.811L565.849,638.721z"/>
			</g>
		</g>
		<g>
			<path style="fill:#6DB1B5;" d="M606.003,592.025c4.237-3.128,8.674-5.873,13.191-8.16l-2.181-4.307
				c-4.755,2.408-9.425,5.296-13.877,8.583L606.003,592.025z"/>
		</g>
	</g>
	<g>
		<path style="fill:#FF5B7E;" d="M1051.126,1305.143c-9.894,0-26.683-6.58-44.968,5.318c-5.171,3.365-8.5,8.857-10.574,14.668
			c-1.839,5.15-3.033,10.505-3.958,15.896c-1.797,10.478-26.894,7.823-35.495,26.181c-11.182,23.865,8.52,45.406,22.842,61.896
			c31.118,35.829,71.281,26.343,81.149,31.079c7.097,3.406,1.858-10.992,9.714-10.486c7.752,0.499,16.96,0.341,21.395-6.038
			c2.533-3.645,2.725-8.404,4.513-12.465c2.505-5.688,7.866-9.502,12.983-13.029c6.456-4.449,12.947-8.92,20.035-12.272
			c7.527-3.562,49.602-7.903,37.032-62.136c-4.87-21.013-17.297-33.499-30.195-42.525c-9.255-6.478-17.833-8.804-30.774-9.154
			C1075.125,1291.27,1077.232,1305.143,1051.126,1305.143z"/>
		<g>
			<polygon style="fill:#FFC0BB;" points="1162.178,1646.901 1158.326,1892.09 1152.07,1909.781 1133.284,1892.09 
				1115.464,1640.621 			"/>
			<path style="fill:#FFC0BB;" d="M1049.999,1655.202h47.006c0,0-22.124,235.424-21.963,236.888
				c0.161,1.463-7.929,12.039-7.929,12.039l-17.114-12.039V1655.202z"/>
			<path style="fill:#06BFAD;" d="M1173.417,1854.739c-13.358,5.347-34.101,10.706-57.008,5.813l-4.266-195.813l-3.173-34.474
				c-2.396,2.096-3.827,3.09-3.827,3.09l-11.439,223.711c0,0-25.388,9.272-56.441,3.538c-0.103-13.457,8.243-218.825,8.327-228.36
				c0.608-68.863,21.894-78.941,21.894-78.941l36.242-9.175l7.957,1.371c12.668-4.162,35.591-8.912,45.029,6.904
				c13.369,22.406,12.584,91.475,12.584,91.475S1173.519,1845.26,1173.417,1854.739z"/>
			<path style="fill:#FFC0BB;" d="M1144.914,1483.296l33.986-15.731l-3.087,35.993c0,0,64.354-29.216,67.605-32.158
				c1.083-0.98,2.32-3.553,3.507-6.562c1.249-3.164,2.088-6.458,2.837-9.768c1.131-4.996,5.402-8.998,6.842-10.302
				c0.626-0.566,2.434-3.97,2.865-5.529c0.292-1.055,1.86-0.97,2.026,0.11l0.346,2.25c0.338,2.207-0.433,4.489-0.926,5.708
				l0.895-0.343l1.481,15.138l-1.816,13.235l-10.182,7.668c0,0-89.667,64.543-97.867,56.112
				C1144.616,1530.06,1144.914,1483.296,1144.914,1483.296z"/>
			<path style="fill:#020530;" d="M1152.64,1407.158c0,0,6.963,1.656,17.034,14.119s19.038,46.936,19.038,46.936l-32.15,17.561
				l-20.917-41.637L1152.64,1407.158z"/>
			<path style="opacity:0.5;fill:#F3FDFF;" d="M1061.55,1605.906c3.391,1.251,6.735,2.604,10.045,4.033
				c3.305,1.438,6.572,2.956,9.816,4.519c3.246,1.561,6.465,3.172,9.655,4.837c3.182,1.676,6.371,3.35,9.501,5.107l0.251-0.6
				c-2.369-0.507-4.743-0.848-7.137-1.097c-2.393-0.241-4.799-0.339-7.203-0.341c-2.403-0.008-4.809,0.125-7.191,0.414l-1.785,0.233
				l-1.771,0.316l-0.884,0.159l-0.874,0.209l-1.744,0.423l1.762-0.34l0.879-0.172l0.888-0.127l1.774-0.252l1.785-0.17
				c0.593-0.067,1.19-0.095,1.787-0.123c0.597-0.026,1.191-0.082,1.789-0.09l1.791-0.034c0.597-0.014,1.194,0.013,1.791,0.018
				c2.387,0.046,4.769,0.215,7.14,0.476c2.367,0.263,4.737,0.622,7.044,1.133l2.138,0.474l-1.887-1.074
				c-3.136-1.783-6.299-3.506-9.514-5.145c-3.209-1.645-6.447-3.237-9.712-4.777c-3.272-1.525-6.591-2.955-9.931-4.332
				c-1.68-0.667-3.361-1.331-5.067-1.934C1064.995,1607.014,1063.269,1606.467,1061.55,1605.906z"/>
			<path style="opacity:0.5;fill:#F3FDFF;" d="M1156.711,1604.54c-1.718,0.561-3.444,1.107-5.136,1.744
				c-1.706,0.603-3.387,1.267-5.067,1.933c-3.34,1.378-6.659,2.807-9.932,4.332c-3.264,1.541-6.502,3.133-9.711,4.778
				c-3.215,1.639-6.378,3.36-9.514,5.145l-1.887,1.073l2.139-0.473c2.307-0.511,4.677-0.87,7.044-1.133
				c2.37-0.261,4.753-0.43,7.14-0.477c0.597-0.004,1.194-0.03,1.79-0.018l1.791,0.034c0.597,0.009,1.191,0.064,1.788,0.09
				c0.597,0.028,1.194,0.057,1.787,0.124l1.785,0.169l1.774,0.253l0.888,0.127l0.88,0.172l1.762,0.34l-1.744-0.424l-0.874-0.208
				l-0.884-0.159l-1.771-0.316l-1.785-0.233c-2.383-0.289-4.789-0.422-7.191-0.414c-2.403,0.002-4.81,0.099-7.203,0.341
				c-2.394,0.249-4.768,0.59-7.137,1.096l0.252,0.601c3.13-1.758,6.319-3.432,9.501-5.108c3.19-1.664,6.409-3.275,9.654-4.836
				c3.244-1.563,6.512-3.08,9.816-4.52C1149.976,1607.144,1153.32,1605.791,1156.711,1604.54z"/>
			<path style="fill:#F3FDFF;" d="M1082.174,1575.875c-0.124,0.348-0.311,0.67-0.479,0.999l-0.517,0.983l-1.044,1.959l-1.742,3.243
				l-4.97,8.629c-0.685,1.31-7.208,12.658-8.752,15.197c1.921-2.291,4.235-4.561,5.8-7.086c0.79-1.261,1.523-2.552,2.267-3.837
				c0.73-1.292,1.435-2.598,2.138-3.904c1.377-2.626,2.707-5.274,3.943-7.965c0.625-1.343,1.221-2.698,1.8-4.061
				c0.282-0.684,0.569-1.366,0.835-2.058C1081.713,1577.283,1082.002,1576.597,1082.174,1575.875z"/>
			<path style="fill:#07085B;" d="M1018.91,1447.282c14.618-17.635,31.505-36.777,46.273-44.229
				c5.653-2.853,19.059-3.416,26.855-4.694c0,0,20.334-2.51,40.385,0.144c10.816,3.961,29.712,10.659,29.96,17.071
				c1.235,32.013,1.597,56.552,1.422,75.368c0,0.061,0.537,68.219,0.042,82.777c0,0-74.102,15.973-112.005,6.371
				c0,0-6.259-89.153,2.731-113.229l-3.831,4.878C1050.741,1471.739,1035.493,1468.27,1018.91,1447.282z"/>
			<path style="fill:#FFC0BB;" d="M1021.144,1450.056c10.054,12.228,21.181,18.715,26.753,20.759l-35.834,42.922l65.552,70.671
				l-11.538,20.099c-9.115-4.422-11.172-21.192-11.172-21.192s-81.127-54.244-81.127-67.219
				C973.779,1498.714,1021.144,1450.056,1021.144,1450.056z"/>
			<path style="fill:#FBF9EB;" d="M1020.57,1449.208c0.564,0.632,1.07,1.305,1.66,1.913l1.738,1.844l0.86,0.925l0.913,0.878
				l1.819,1.754c0.613,0.576,1.263,1.116,1.891,1.675c1.234,1.144,2.615,2.122,3.909,3.189c2.696,2.013,5.53,3.831,8.478,5.433
				l1.11,0.592c0.373,0.191,0.755,0.365,1.132,0.548c0.75,0.375,1.52,0.705,2.289,1.031c0.382,0.172,0.774,0.313,1.162,0.466
				c0.388,0.152,0.775,0.311,1.167,0.442c0.531,0.192,1.086,0.376,1.619,0.533l3.921-4.691l4.458-5.235
				c2.958-3.502,5.987-6.946,8.989-10.414c3.036-3.439,6.071-6.879,9.157-10.28c3.084-3.401,6.184-6.79,9.375-10.106
				c-2.722,3.689-5.535,7.307-8.362,10.912c-2.827,3.605-5.705,7.171-8.581,10.737c-2.911,3.539-5.794,7.101-8.749,10.604
				l-4.41,5.273l-4.46,5.234l-0.488,0.572l-0.701-0.185c-0.938-0.246-1.746-0.522-2.586-0.832c-0.832-0.305-1.646-0.638-2.445-1.003
				c-0.798-0.365-1.593-0.733-2.364-1.145c-0.387-0.201-0.78-0.395-1.162-0.604l-1.136-0.646c-3.029-1.723-5.839-3.764-8.506-5.944
				l-1.931-1.712c-0.653-0.561-1.256-1.171-1.861-1.778c-0.602-0.609-1.224-1.199-1.807-1.823l-1.698-1.918l-0.844-0.959
				l-0.79-1.003l-1.563-2.013c-1.01-1.363-1.918-2.796-2.865-4.19L1020.57,1449.208z"/>
			<path style="fill:#FFC0BB;" d="M1124.755,1397.776c0,0-14.714,8.722-26.176,0l0,0l2.703-21.287l22.807-4.699L1124.755,1397.776
				L1124.755,1397.776z"/>
			<path style="fill:#FC8D84;" d="M1124.444,1385.675l-0.356-13.885l-23.137,7.196l-0.65,5.203
				C1105.435,1386.053,1115.191,1388.316,1124.444,1385.675z"/>
			<path style="fill:#F99893;" d="M1141.074,1337.104c-0.618,4.17,1.664,7.911,5.096,8.357s6.717-2.573,7.335-6.743
				s-1.664-7.911-5.096-8.357S1141.692,1332.935,1141.074,1337.104z"/>
			<path style="fill:#FFC0BB;" d="M1145.629,1359.443c0.552-1.87,0.928-3.802,1.12-5.771c0.618-5.32,0.235-10.707-0.469-15.312
				c-0.151-0.988-0.243-1.983-0.315-2.98c-0.293-4.027-1.358-8.106-3.373-12.071c-6.481-12.757-21.149-19.906-35.653-17.348
				c-19.54,3.446-31.631,22.092-26.971,40.217c-2.317-0.584-4.669-0.262-6.458,1.115c-3.433,2.641-3.493,8.129-0.135,12.26
				c3.358,4.13,8.863,5.338,12.295,2.696c0.477-0.366,0.881-0.792,1.228-1.258c5.589,15.014,21.705,23.635,37.298,19.448
				c7.626-2.049,13.785-6.804,17.756-12.966c0.277-0.37,0.558-0.794,0.844-1.276
				C1144.05,1364.083,1144.967,1361.803,1145.629,1359.443z"/>
			<path style="fill:#333333;" d="M1109.89,1341.563c0.417,1.512-0.513,3.077-2.075,3.497c-1.563,0.419-3.166-0.466-3.583-1.978
				c-0.417-1.513,0.513-3.078,2.075-3.497C1107.87,1339.166,1109.474,1340.052,1109.89,1341.563z"/>
			<path style="fill:#333333;" d="M1134.605,1336.582c0.416,1.512-0.513,3.077-2.075,3.496c-1.562,0.42-3.166-0.466-3.583-1.978
				s0.513-3.077,2.075-3.497C1132.585,1334.185,1134.189,1335.07,1134.605,1336.582z"/>
			<path style="fill:#FF5B7E;" d="M1111.809,1335.218c-1.536-0.179-2.981-0.269-4.392-0.213c-1.408,0.054-2.762,0.277-4.042,0.691
				c-1.27,0.428-2.524,0.966-3.66,1.779l-0.449,0.278c-0.148,0.096-0.274,0.22-0.419,0.322l-0.861,0.654
				c-0.576,0.45-1.087,0.974-1.732,1.435c0.25-0.706,0.554-1.414,0.938-2.081c0.454-0.613,0.844-1.313,1.446-1.835
				c1.08-1.166,2.551-2.003,4.102-2.511c1.563-0.503,3.241-0.607,4.811-0.343
				C1109.113,1333.676,1110.616,1334.243,1111.809,1335.218z"/>
			<path style="fill:#FF5B7E;" d="M1123.346,1332.723c0.675-1.379,1.805-2.516,3.108-3.416c1.317-0.889,2.887-1.487,4.519-1.675
				c1.623-0.179,3.312-0.025,4.782,0.589c0.767,0.226,1.415,0.701,2.084,1.071c0.629,0.448,1.203,0.966,1.726,1.506
				c-0.781-0.153-1.465-0.418-2.177-0.59l-1.057-0.239c-0.176-0.033-0.342-0.094-0.517-0.119l-0.525-0.068
				c-1.374-0.271-2.741-0.242-4.075-0.106c-1.337,0.152-2.663,0.508-3.965,1.04
				C1125.944,1331.247,1124.668,1331.926,1123.346,1332.723z"/>
			<path style="fill:#F99893;" d="M1118.812,1333.429c-0.1,2.051,0.145,4.087,0.635,6.09c0.249,1.005,0.578,1.992,1.03,2.969
				c0.471,0.964,1.034,1.937,2.008,2.747l0.405,0.276l0.359,0.234c0.154,0.115,0.358,0.189,0.48,0.325
				c0.298,0.23,0.523,0.51,0.672,0.822c0.344,0.618,0.244,1.431-0.056,2.219c-0.674,1.609-2.333,2.879-4.174,3.849
				c2.064-0.21,4.309-1.136,5.569-3.175c0.617-0.987,0.911-2.352,0.423-3.597c-0.12-0.308-0.266-0.604-0.473-0.859
				c-0.179-0.281-0.417-0.496-0.654-0.715c-0.23-0.234-0.513-0.363-0.772-0.544c-0.16-0.096-0.192-0.134-0.276-0.191l-0.226-0.156
				c-0.605-0.484-1.125-1.265-1.59-2.068c-0.488-0.807-0.836-1.718-1.241-2.608
				C1120.192,1337.228,1119.53,1335.343,1118.812,1333.429z"/>
			<path style="fill:#FFFFFF;" d="M1131.698,1354.994c-0.379,3.595-4.17,6.852-9.206,7.626c-5.036,0.774-9.625-1.193-11.061-4.509
				L1131.698,1354.994z"/>
			<path style="fill:#FFC0BB;" d="M1269.486,1456.65c0.051-0.728-0.16-3.035-0.263-3.531c-0.287-1.376-1.331-2.486-2.712-2.904
				l-1.573-0.478l-0.14,3.536l0,0c0.131,2.697,0.185,2.508-3.557,4.134c-5.335,2.317-3.102,5.111-3.102,5.111
				s1.481,1.985,8.007-1.277C1266.146,1461.241,1269.282,1459.597,1269.486,1456.65z"/>
			<g>
				<path style="fill:#FFFFFF;" d="M1104.875,1913.597l-55.941-0.035c-1.729-0.001-3.129-1.403-3.128-3.133l0,0
					c0.001-1.729,1.403-3.129,3.132-3.128l55.941,0.035c1.729,0.001,3.129,1.403,3.128,3.132v0.001
					C1108.005,1912.197,1106.603,1913.598,1104.875,1913.597z"/>
				<path style="fill:#07085B;" d="M1048.667,1888.283l-2.072,17.409c-0.255,2.146,0.945,4.097,2.521,4.098l54.813,0.034
					c1.423,0.001,2.832-0.887,3.581-2.557c0.768-1.713,0.923-4.293-1.529-7.763c-4.766-6.746-20.132-8.543-28.228-14.082
					c-0.467-0.319-1.019-0.487-1.584-0.488l-24.629-0.016C1050.114,1884.918,1048.897,1886.343,1048.667,1888.283z"/>
				<g>
					<path style="fill:#FFFFFF;" d="M1073.19,1895.042L1073.19,1895.042c-0.396-0.243-0.541-0.911-0.311-1.419
						c1.078-2.384,4.446-8.189,11.29-6.992c0.396,0.069,0.663,0.595,0.596,1.137l-0.002,0.017c-0.065,0.524-0.422,0.868-0.805,0.802
						c-6.133-1.05-8.997,4.066-9.869,6.065C1073.902,1895.078,1073.52,1895.245,1073.19,1895.042z"/>
				</g>
				<g>
					<path style="fill:#FFFFFF;" d="M1078.881,1897.287L1078.881,1897.287c-0.396-0.244-0.541-0.911-0.311-1.419
						c1.078-2.385,4.445-8.19,11.289-6.993c0.396,0.069,0.664,0.595,0.596,1.137l-0.002,0.018c-0.066,0.524-0.422,0.867-0.805,0.802
						c-6.134-1.051-8.997,4.066-9.869,6.065C1079.594,1897.322,1079.21,1897.49,1078.881,1897.287z"/>
				</g>
				<g>
					<path style="fill:#FFFFFF;" d="M1084.174,1899.381L1084.174,1899.381c-0.396-0.243-0.541-0.911-0.311-1.419
						c1.078-2.384,4.446-8.189,11.29-6.992c0.395,0.069,0.663,0.595,0.595,1.136l-0.002,0.018c-0.065,0.524-0.422,0.867-0.805,0.802
						c-6.133-1.05-8.997,4.066-9.869,6.065C1084.887,1899.417,1084.504,1899.584,1084.174,1899.381z"/>
				</g>
			</g>
			<g>
				<path style="fill:#FFFFFF;" d="M1186.261,1913.597l-55.941-0.035c-1.729-0.001-3.129-1.403-3.128-3.133l0,0
					c0.001-1.729,1.403-3.129,3.132-3.128l55.941,0.035c1.729,0.001,3.129,1.403,3.128,3.132v0.001
					C1189.392,1912.197,1187.989,1913.598,1186.261,1913.597z"/>
				<path style="fill:#07085B;" d="M1130.053,1888.283l-2.072,17.409c-0.255,2.146,0.945,4.097,2.521,4.098l54.813,0.034
					c1.423,0.001,2.832-0.887,3.58-2.557c0.768-1.713,0.923-4.293-1.528-7.763c-4.766-6.746-20.133-8.543-28.228-14.082
					c-0.467-0.319-1.019-0.487-1.584-0.488l-24.629-0.016C1131.5,1884.918,1130.284,1886.343,1130.053,1888.283z"/>
				<g>
					<path style="fill:#FFFFFF;" d="M1154.576,1895.042L1154.576,1895.042c-0.396-0.243-0.54-0.911-0.311-1.419
						c1.077-2.384,4.445-8.189,11.289-6.992c0.396,0.069,0.663,0.595,0.596,1.137l-0.002,0.017
						c-0.065,0.524-0.422,0.868-0.805,0.802c-6.133-1.05-8.997,4.066-9.869,6.065
						C1155.289,1895.078,1154.905,1895.245,1154.576,1895.042z"/>
				</g>
				<g>
					<path style="fill:#FFFFFF;" d="M1160.268,1897.287L1160.268,1897.287c-0.396-0.244-0.541-0.911-0.311-1.419
						c1.078-2.385,4.446-8.19,11.29-6.993c0.395,0.069,0.663,0.595,0.595,1.137l-0.002,0.018c-0.065,0.524-0.422,0.867-0.805,0.802
						c-6.133-1.051-8.997,4.066-9.868,6.065C1160.98,1897.322,1160.597,1897.49,1160.268,1897.287z"/>
				</g>
				<g>
					<path style="fill:#FFFFFF;" d="M1165.561,1899.381L1165.561,1899.381c-0.396-0.243-0.54-0.911-0.311-1.419
						c1.078-2.384,4.445-8.189,11.289-6.992c0.396,0.069,0.663,0.595,0.596,1.136l-0.002,0.018
						c-0.065,0.524-0.422,0.867-0.805,0.802c-6.133-1.05-8.997,4.066-9.869,6.065
						C1166.273,1899.417,1165.89,1899.584,1165.561,1899.381z"/>
				</g>
			</g>
			<path style="fill:#FFC0BB;" d="M1250.062,1451.091c0,0-0.566,0.47-1.037,3.449c-0.47,2.98-1.938,12.521-1.282,12.847
				s5.125-0.536,5.125-0.536s0.392-10.114-0.627-11.683S1250.062,1451.091,1250.062,1451.091z"/>
			<path style="fill:#07085B;" d="M1259.72,1293.77l100.653-71.211l11.156,15.77l-94.896,67.138
				c-4.765,3.371-7.557,8.921-7.292,14.753c0.01,0.217,0.022,0.347,0.037,0.367v539.731h-19.317v-539.731v-11.068
				c0-5.671,2.78-10.98,7.441-14.211L1259.72,1293.77z"/>
			<path style="fill:#FFC0BB;" d="M1270.646,1460.994c0.05-0.728-0.16-3.035-0.264-3.53c-0.287-1.377-1.331-2.487-2.712-2.905
				l-1.573-0.477l-0.14,3.535l0,0c0.131,2.698,0.185,2.509-3.557,4.134c-5.334,2.317-3.102,5.111-3.102,5.111
				s1.481,1.985,8.007-1.277C1267.305,1465.585,1270.441,1463.941,1270.646,1460.994z"/>
			<path style="fill:#FFC0BB;" d="M1271.201,1464.023c0.048-0.692-0.153-2.89-0.251-3.361c-0.273-1.311-1.267-2.367-2.582-2.766
				l-1.498-0.454l-0.133,3.366h0c0.125,2.568,0.176,2.388-3.386,3.936c-5.079,2.206-2.953,4.866-2.953,4.866s1.411,1.89,7.623-1.216
				C1268.021,1468.395,1271.006,1466.829,1271.201,1464.023z"/>
			<path style="fill:#FFC0BB;" d="M1270.381,1468.058c0.041-0.586-0.129-2.445-0.212-2.844c-0.231-1.109-1.071-2.003-2.185-2.341
				l-1.267-0.384l-0.113,2.848l0,0c0.106,2.174,0.149,2.021-2.865,3.33c-4.297,1.866-2.499,4.117-2.499,4.117s1.194,1.6,6.45-1.028
				C1267.691,1471.756,1270.217,1470.432,1270.381,1468.058z"/>
			<path style="fill:#F99893;" d="M1260.132,1463.083c-0.743,0.541-1.394,1.348-1.446,2.338c-0.013,0.484,0.11,0.97,0.355,1.4
				c0.051,0.099,0.153,0.237,0.261,0.315c0.104,0.086,0.214,0.158,0.329,0.215c0.229,0.123,0.473,0.194,0.717,0.254
				c0.987,0.203,1.977,0.063,2.91-0.15c0.932-0.232,1.835-0.549,2.705-0.925c0.441-0.177,0.858-0.401,1.289-0.601
				c0.451-0.21,0.843-0.495,1.22-0.791c0.737-0.61,1.408-1.329,1.83-2.194c0.224-0.425,0.357-0.89,0.454-1.354
				c0.023-0.235,0.068-0.474,0.058-0.706l-0.03-0.698c-0.094-0.917-0.194-1.826-0.403-2.722c0.072,0.91,0.113,1.825,0.105,2.731
				l-0.014,0.671c-0.003,0.224-0.06,0.437-0.093,0.652c-0.116,0.423-0.262,0.839-0.492,1.217c-0.443,0.761-1.064,1.424-1.777,1.97
				c-0.36,0.267-0.729,0.535-1.131,0.714c-0.421,0.189-0.831,0.404-1.262,0.573c-0.845,0.377-1.717,0.684-2.602,0.925
				c-0.882,0.237-1.803,0.363-2.676,0.246c-0.417-0.073-0.877-0.221-1.072-0.532c-0.234-0.356-0.367-0.781-0.387-1.209
				c-0.019-0.431,0.096-0.867,0.306-1.264C1259.5,1463.761,1259.81,1463.416,1260.132,1463.083z"/>
			<path style="fill:#FFC0BB;" d="M1270.381,1471.38c0.041-0.586-0.129-2.444-0.212-2.844c-0.231-1.109-1.071-2.003-2.185-2.341
				l-1.267-0.384l-0.113,2.848l0,0c0.106,2.174,0.149,2.021-2.865,3.33c-4.297,1.867-2.499,4.118-2.499,4.118
				s1.194,1.599,6.45-1.029C1267.691,1475.078,1270.217,1473.754,1270.381,1471.38z"/>
			<path style="fill:#F99893;" d="M1261.514,1473.445c-0.45,0.4-0.785,0.981-0.789,1.629c-0.002,0.32,0.08,0.638,0.221,0.933
				c0.037,0.074,0.073,0.146,0.126,0.22c0.075,0.093,0.139,0.145,0.213,0.199c0.144,0.107,0.301,0.179,0.459,0.238
				c0.643,0.231,1.31,0.202,1.938,0.125c0.632-0.087,1.24-0.255,1.828-0.458c0.588-0.208,1.158-0.449,1.713-0.721
				c0.271-0.146,0.559-0.259,0.833-0.444c0.266-0.174,0.513-0.367,0.744-0.579c0.929-0.817,1.627-1.993,1.583-3.207
				c-0.202,1.191-0.982,2.146-1.892,2.859c-0.231,0.179-0.474,0.343-0.722,0.492c-0.235,0.147-0.524,0.247-0.795,0.377
				c-0.544,0.248-1.101,0.479-1.666,0.669c-0.56,0.205-1.135,0.364-1.712,0.463c-0.573,0.103-1.168,0.131-1.696-0.009
				c-0.129-0.037-0.256-0.085-0.361-0.151c-0.051-0.029-0.106-0.074-0.129-0.096c-0.037-0.045-0.079-0.103-0.114-0.159
				c-0.143-0.23-0.242-0.494-0.274-0.768c-0.039-0.273-0.009-0.56,0.079-0.833
				C1261.191,1473.95,1261.345,1473.695,1261.514,1473.445z"/>
			<path style="fill:#F99893;" d="M1260.12,1467.401c-0.313,0.59-0.312,1.333-0.038,1.972c0.072,0.152,0.147,0.326,0.309,0.463
				c0.143,0.129,0.305,0.217,0.471,0.296c0.334,0.155,0.691,0.214,1.045,0.261c1.429,0.119,2.786-0.299,4.063-0.763
				c0.633-0.258,1.258-0.528,1.864-0.837c0.636-0.3,1.196-0.725,1.685-1.203c0.489-0.481,0.92-1.022,1.231-1.627
				c0.292-0.611,0.473-1.277,0.451-1.939c-0.214,1.311-1.01,2.41-2,3.234c-0.505,0.402-1.028,0.796-1.627,1.037
				c-0.599,0.286-1.209,0.547-1.827,0.788c-0.619,0.233-1.245,0.452-1.883,0.604c-0.634,0.172-1.286,0.259-1.926,0.257
				c-0.316-0.018-0.64-0.044-0.928-0.152c-0.143-0.055-0.285-0.118-0.396-0.205c-0.109-0.068-0.182-0.205-0.266-0.339
				C1260.019,1468.711,1259.938,1468.036,1260.12,1467.401z"/>
			<path style="fill:#F99893;" d="M1261.514,1470.123c-0.45,0.4-0.785,0.981-0.789,1.628c-0.002,0.32,0.08,0.639,0.221,0.933
				c0.037,0.074,0.073,0.146,0.126,0.221c0.075,0.093,0.139,0.145,0.213,0.199c0.144,0.107,0.301,0.179,0.459,0.238
				c0.643,0.231,1.31,0.201,1.938,0.125c0.632-0.087,1.24-0.255,1.828-0.458c0.588-0.208,1.158-0.449,1.713-0.722
				c0.271-0.145,0.559-0.258,0.833-0.444c0.266-0.173,0.513-0.366,0.744-0.578c0.929-0.817,1.627-1.993,1.583-3.207
				c-0.202,1.191-0.982,2.146-1.892,2.859c-0.231,0.179-0.474,0.343-0.722,0.492c-0.235,0.147-0.524,0.247-0.795,0.376
				c-0.544,0.249-1.101,0.48-1.666,0.67c-0.56,0.205-1.135,0.364-1.712,0.463c-0.573,0.103-1.168,0.131-1.696-0.009
				c-0.129-0.037-0.256-0.085-0.361-0.151c-0.051-0.029-0.106-0.074-0.129-0.097c-0.037-0.044-0.079-0.102-0.114-0.158
				c-0.143-0.23-0.242-0.494-0.274-0.769c-0.039-0.273-0.009-0.559,0.079-0.833
				C1261.191,1470.627,1261.345,1470.373,1261.514,1470.123z"/>
			<path style="fill:#07085B;" d="M1264.744,1460.703c0,0,4.407-1.824,4.635-5.111v-1.973l-4.829-0.784l-0.726,2.117
				L1264.744,1460.703z"/>
		</g>
		<path style="fill:#FF5B7E;" d="M1075.893,1341.995l0.766-0.174l-0.152-6.947l2.259-6.658c0,0,9.608-18.248,9.964-18.712
			c0.355-0.464,8.418-6.829,8.92-7.164s12.751,0.617,12.751,0.617s20.709-6.946,18.36,6.08
			c-2.349,13.027-17.178,21.132-18.028,20.642c2.238-3.079,1.716-11.184,1.716-11.184c-10.474,15.9-31.925,27.774-31.925,27.774
			s-2.534-1.689-6.451,0.327L1075.893,1341.995z"/>
	</g>
</g>
</svg>
