<?xml version="1.0" encoding="utf-8"?>
<!-- Generator: Adobe Illustrator 27.5.0, SVG Export Plug-In . SVG Version: 6.00 Build 0)  -->
<svg version="1.1" xmlns="http://www.w3.org/2000/svg" xmlns:xlink="http://www.w3.org/1999/xlink" x="0px" y="0px"
	 viewBox="0 0 3600 2000" style="enable-background:new 0 0 3600 2000;" xml:space="preserve">
<g id="Слой_2">
	<rect style="fill:#FFFFFF;" width="3600" height="2000"/>
	<path style="fill:#9DEEFF;" d="M0,962c40,76,211,148,363,83c236.565-101.163,424.514-389.739,782-366
		c512,34,444.344,553.924,678,724c294,214,401,400,415,597c-267,0-2238,0-2238,0V962z"/>
	<path style="fill:#93BEFF;" d="M2873,2000c11-243,481-525,727-536c0,128,0,536,0,536H2873z"/>
	
</g>
<g id="Layer_1">
	<g>
		<path style="opacity:0.6;fill:#D1EAF2;" d="M385.168,1096.825l-74.005,276.324l-41.566,135.579c0,0-3.651,74.184-3.651,75.785
			c0,1.603,12.106,47.888,12.106,47.888s26.347,34.442,26.525,34.846c0.178,0.403,26.169,21.766,27.772,22.655
			c1.602,0.891,51.166,27.771,52.82,27.771c1.654,0,37.259,9.735,37.259,9.735l134.229,5.818h138.146
			c0,0,22.49-543.212,22.49-544.636s47.293-118.683,47.62-120.106c0.328-1.424-47.191-36.556-47.191-36.556l-56.196-85.449h-20.188
			l-38.928,30.382l-46.606,35.29l-46.915,26.424l-59.233,24.212l-48.055,13.768l-14.717,8.813L385.168,1096.825z"/>
		<path style="fill:#96A65F;" d="M1775.269,1011.184c0,0,77.441,129.335,85.686,215.781c6.792,71.221-5.225,70.012-5.225,70.012
			s-37.618,22.467-108.152-133.23l-4.18-18.287c0,0,62.175,131.664,97.703,141.068s-93.523-256.012-93.523-256.012l19.826-29.259
			L1775.269,1011.184z"/>
		<path style="fill:#96A65F;" d="M1779.485,1004.055c0,7.599-6.16,13.758-13.759,13.758c-7.598,0-13.758-6.159-13.758-13.758
			c0-7.599,6.16-13.759,13.758-13.759C1773.325,990.296,1779.485,996.456,1779.485,1004.055z"/>
		<path style="fill:#62BDF3;" d="M842.437,1058.549l-0.062-4.267l-104.275,5.313c-7.068-12.276-74.068-115.385-75.194-116.67
			c-1.245-1.423-2.74-2.318-4.304-2.854l0.011-0.048c-0.026-0.006-0.183-0.04-0.457-0.1c-0.542-0.161-1.09-0.277-1.638-0.36
			c-10.504-2.321-58.898-13.172-108.86-26.924c-7.69-2.117-15.537-4.666-23.845-7.365c-33.421-10.858-67.979-22.084-96.855-6.765
			c-19.239,10.207-33.126,30.871-42.454,63.169c-22.878,79.215-9.381,123.18-4.618,134.957
			c-11.911,46.334-69.236,270.985-93.027,343.675l-0.2,0.609c-17.56,53.648-44.096,134.72-5.452,201.348
			c27.158,46.822,83.182,79.273,166.519,96.452l0.411,0.085h246.226l155.92-136.021L842.437,1058.549z M389.604,1076.149
			c-0.438-34.179-1.601-124.967,44.299-148.481c41.116-21.062,69.23-10.945,101.784,0.772c27.294,9.823,55.968,25.476,97.951,18.999
			c-10.578,6.762-25.03,17.973-44.164,32.978c-12.316,9.658-25.051,19.646-36.437,27.88
			c-34.027,24.609-116.375,51.772-118.945,52.615c-8.564,2.551-31.993,10.039-44.445,18.943
			C389.636,1078.759,389.622,1077.531,389.604,1076.149z M388.475,1100.742c4.368,2.1,10.739,3.133,19.362,3.133
			c3.402-0.002,7.156-0.161,11.268-0.479c13.67-1.054,26.177-3.497,26.703-3.601l0.243-0.055c1.196-0.302,2.398-0.611,3.603-0.923
			c-2.448,9.76-8.234,32.803-15.895,63.125c-27.39-18.309-44.605-33.839-50.824-39.764
			C385.316,1112.986,387.199,1105.691,388.475,1100.742z M553.067,1136.485c10.103,4.938,21.521,10.171,34.114,15.425
			c0.861,24.811,1.981,52.171,3.437,80.758c-24.666-6.736-46.976-14.597-66.785-22.794c2.625-31.145,5.028-60.628,6.969-84.832
			C537.686,1128.758,545.117,1132.6,553.067,1136.485z M531.315,1118.632c1.831-22.908,3.191-40.347,3.85-48.853
			c15.597-6.618,30.697-13.847,44.705-21.564c1.298,1.181,2.88,2.563,4.771,4.127c0.307,19.585,0.964,52.652,2.319,93.094
			c-11.43-4.825-21.864-9.617-31.158-14.156C546.975,1126.968,538.805,1122.716,531.315,1118.632z M525.668,1115.515
			c-20.253-11.329-34.804-21.029-42.516-26.436c15.338-4.931,30.82-10.551,45.919-16.754
			C528.383,1081.184,527.201,1096.305,525.668,1115.515z M525.153,1121.95c-1.937,24.191-4.36,53.968-7.016,85.526
			c-14.76-6.304-28.081-12.749-39.85-18.982c-14.72-7.797-27.833-15.648-39.332-23.125c8.934-35.359,15.414-61.193,17.19-68.277
			c6.588-1.79,13.264-3.727,19.985-5.801C482.587,1095.97,499.636,1107.825,525.153,1121.95z M437.433,1171.39
			c11.169,7.199,23.809,14.717,37.874,22.176c13.75,7.292,27.873,14.005,42.306,20.134c-3.109,36.783-6.507,75.612-9.805,110.58
			c-15.408-8.595-29.458-17.204-41.983-25.424c-19.552-12.832-36.741-25.524-51.347-37.129
			C422.783,1229.225,430.725,1197.92,437.433,1171.39z M462.445,1303.668c14.679,9.64,29.618,18.66,44.753,27.053
			c-4.126,43.319-8.053,79.949-11.003,98.174c-15.915-10.484-30.602-20.827-43.81-30.595
			c-23.154-17.122-43.564-33.723-60.609-48.371c6.909-26.597,14.117-54.622,21.111-81.973
			C427.133,1279.189,443.711,1291.367,462.445,1303.668z M448.79,1402.953c13.914,10.292,29.453,21.218,46.344,32.277
			c-4.678,28.475-9.672,73.453-5.923,122.295c-25.717-16.15-48.743-32.566-68.444-47.74c-22.306-17.18-41.973-33.946-58.536-48.949
			c0.112-0.406,0.223-0.816,0.336-1.221c7.078-25.319,16.91-62.409,27.564-103.357
			C406.802,1370.509,426.538,1386.493,448.79,1402.953z M417.07,1514.357c23.975,18.471,48.309,35.384,72.786,50.606
			c3.831,40.475,13.888,83.117,35.221,120.885c-74.756-26.502-128.418-56.967-164.624-82.214c-3.832-2.672-7.514-5.319-11.066-7.938
			c-5.909-42.964,0.574-88.328,11.127-128.494C376.682,1481.76,395.671,1497.872,417.07,1514.357z M500.522,1438.73
			c34.11,22.009,73.518,44.332,116.394,63.115c6.838,37.436,14.63,65.385,23.349,83.638c9.879,20.681,18.914,38.031,27.082,52.584
			c-64.146-17.491-122.757-46.399-171.94-76.683C491.188,1512.938,495.884,1467.843,500.522,1438.73z M501.567,1432.414
			c0.014-0.085,0.029-0.175,0.043-0.259c2.951-17.113,6.961-54.124,11.194-98.366c24.856,13.479,50.225,25.255,75.87,35.168
			c3.891,1.505,7.792,2.953,11.697,4.373c4.371,47.552,9.476,88.109,15.298,121.545
			C573.617,1476.172,534.977,1454.099,501.567,1432.414z M513.415,1327.379c3.32-35.07,6.752-74.178,9.894-111.305
			c21.909,9.017,44.515,16.678,67.635,22.912c0.493,9.426,1.023,18.972,1.592,28.591c2.118,35.788,4.531,68.839,7.235,99.133
			C567.771,1354.902,538.81,1341.23,513.415,1327.379z M593.205,1154.384c31.708,12.851,70.345,25.553,113.934,34.089
			c6.787,18.465,13.647,37.819,20.418,57.813c0.758,2.238,1.521,4.505,2.285,6.785c-49.708-1.356-94.27-8.617-133.169-18.784
			C595.213,1206.019,594.081,1178.972,593.205,1154.384z M592.979,1147.94c-1.328-38.531-2.022-70.511-2.372-90.903
			c6.606,4.979,15.52,11.02,27.115,17.563c13.189,7.443,31.226,16.234,54.623,24.844c10.044,24.141,21.097,52.061,32.407,82.563
			C661.892,1173.341,623.987,1160.658,592.979,1147.94z M590.482,1049.412c-0.042-2.719-0.076-5.12-0.104-7.203
			c15.922-9.448,30.082-19.536,41.486-30.056c6.547,10.637,20.306,39.331,37.348,79.807
			C628.254,1076.248,603.297,1059.565,590.482,1049.412z M587.33,1032.886c0,0-74.23,41.706-143.459,57.707
			c-22.019,4.315-48.774,5.599-52.87,0.662c0.565-1.053,3.953-5.573,22.623-13.159c11.614-4.719,23.098-8.154,23.212-8.187
			l0.116-0.037c3.496-1.141,86.008-28.216,121.595-53.954c11.535-8.341,24.344-18.386,36.729-28.1
			c20.668-16.209,53.013-43.714,60.558-38.692c0.05,0.033,3.758,4.84-9.258,29.996
			C637.546,996.578,616.344,1015.295,587.33,1032.886z M391.28,963.635c8.771-30.366,21.522-49.631,38.984-58.895
			c26.232-13.918,59.348-3.16,91.37,7.242c8.387,2.725,16.307,5.298,24.153,7.458c33.536,9.229,66.366,17.157,87.583,22.091
			c-40.678,6.544-67.676-8.538-95.693-18.621c-32.433-11.674-63.065-22.703-106.454-0.473
			c-49.145,25.175-47.948,118.612-47.498,153.787c0.045,3.521,0.086,6.886,0.042,9.027c-0.03,0.04-0.063,0.079-0.092,0.118
			C378.77,1067.204,373.022,1026.854,391.28,963.635z M381.253,1128.656c8.002,7.389,25.206,22.26,50.977,39.331
			c-6.633,26.241-14.519,57.327-22.787,89.7c-27.249-22.07-44.56-39.566-50.113-45.378
			C367.997,1179.563,375.694,1150.073,381.253,1128.656z M357.574,1218.942c7.664,7.818,24.878,24.597,50.271,45.003
			c-6.951,27.19-14.129,55.116-21.028,81.695c-27.665-24.075-45.524-42.158-50.532-47.331
			C343.552,1271.583,350.825,1244.4,357.574,1218.942z M334.494,1304.886c7.419,7.529,25.064,24.94,50.674,47.104
			c-10.696,41.142-20.608,78.585-27.805,104.407c-26.544-24.378-44.327-43.474-51.146-51.019
			C314.635,1376.854,324.518,1341.473,334.494,1304.886z M294.48,1443.48l0.2-0.609c2.83-8.646,6.062-19.102,9.585-30.91
			c8.447,9.2,26.155,27.806,51.348,50.8c-12.733,47.278-16.954,90.262-12.618,128.145c-42.668-32.536-63.772-59.755-69.806-68.216
			C278.088,1493.574,287.097,1466.037,294.48,1443.48z M288.326,1638.14c-19.422-33.486-21.388-71.298-16.403-107.224
			c9.48,12.383,31.713,38.113,72.151,68.166c0.57,3.791,1.221,7.534,1.969,11.217c10.004,49.228,35.969,87.567,77.25,114.223
			C356.717,1706.843,311.36,1677.853,288.326,1638.14z M448.978,1730.575c-2.583-0.534-5.137-1.084-7.665-1.649l0.26-0.49
			c-56.19-29.787-82.185-75.219-90.895-124.518c1.976,1.421,3.991,2.85,6.047,4.286c38.133,26.637,82.414,50.234,131.612,70.142
			c13.443,5.438,27.287,10.588,41.465,15.474c8.071,13.021,17.582,25.372,28.748,36.756H448.978z M566.905,1730.575
			c-10.835-10.415-20.173-21.74-28.178-33.727c40.699,13.548,84.245,24.833,130.187,33.727H566.905z M693.047,1729.032
			c-61.146-10.595-114.028-24.637-159.41-40.203c-22.44-37.019-33.225-79.446-37.51-120.015
			c17.214,10.493,34.488,20.157,51.752,28.92c41.386,21.007,82.792,36.921,123.567,47.528c22.807,39.439,38.284,56.099,45.775,62.68
			L693.047,1729.032z M721.721,1704.018c-6.204-5.354-20.589-20.192-42.251-56.744c10.684,2.602,21.324,4.852,31.904,6.715
			l1.02-5.789c-12.535-2.207-24.894-4.928-37.073-8.045c-8.831-15.385-18.765-34.201-29.752-57.203
			c-8.619-18.044-15.898-45.324-22.049-78.254c34.616,14.743,71.377,27.094,109.359,35.027l1.201-5.755
			c-38.882-8.12-76.504-20.912-111.822-36.188c-6.409-36.017-11.54-78.212-15.65-122.229c48.369,16.989,97.68,27.473,146.855,31.168
			l0.44-5.861c-54.04-4.062-103.767-16.125-147.899-31.871c-3.865-42.612-6.79-86.715-9.001-128.398
			c43.384,11.186,88.606,17.354,134.824,18.426c34.664,104.353,74.262,248.896,76.376,369.559L721.721,1704.018z M813.974,1623.538
			c-3.075-119.609-41.748-261.225-75.913-364.399c2.78,0.037,5.562,0.064,8.349,0.064c4.756,0,9.531-0.054,14.305-0.162
			l-0.133-5.875c-8.295,0.186-16.454,0.195-24.489,0.058c-0.994-2.974-1.984-5.92-2.968-8.825
			c-6.365-18.792-12.827-37.083-19.247-54.645c14.963,2.748,30.478,4.998,46.481,6.578l0.579-5.85
			c-17.06-1.686-33.558-4.14-49.418-7.151c-10.931-29.647-21.688-57.084-31.586-81.165c23.621,8.234,52.273,16.149,86.457,22.38
			l1.054-5.782c-36.007-6.563-65.938-15.015-90.544-23.937c-18.207-43.814-33.141-75.425-40.264-87.263
			c7.812-7.852,14.051-15.919,18.296-24.121c4.218-8.152,7.182-15.061,8.933-20.853c32.512,40.107,67.965,102.606,68.338,103.268
			l1.252,2.214l100.816-5.137l7.728,536.154L813.974,1623.538z"/>
		<path style="fill:#7772D6;" d="M757.805,778.641c0,0-46.577-68.416-77.127-96.833c-30.549-28.418-89.572-49.626-103.069-31.944
			c-13.497,17.682,26.192,37.774,40.939,44.279c14.747,6.505,75.981,37.874,144.198,134.814
			C830.965,925.898,757.805,778.641,757.805,778.641z"/>
		<path style="fill:#45258F;" d="M792.344,855.313c0.233-2.087-99.731-129.121-261.498-91.748
			c-5.373,1.241-10.285,4.167-13.588,8.582c-4.664,6.232-5.553,14.53,20.718,15.991c42.989,2.391,142.557-6.107,228.24,67.822
			C851.898,929.891,792.344,855.313,792.344,855.313z"/>
		<path style="fill:#7772D6;" d="M791.942,866.805c-2.392,0.662-64.714-59.111-168.332-47.123
			c-83.908,9.707-46.737,28.516-28.717,26.812c18.02-1.703,106.171-8.638,174.596,19.857
			C837.914,894.846,791.942,866.805,791.942,866.805z"/>
		<path style="fill:#96A65F;" d="M877.397,848.509c0,0,9.404-229.366,204.81-306.692s324.98,110.764,347.968,306.692l-57.472,24.556
			l-9.405-24.556c0,0,4.18-301.468-194.621-296.243c-196.546,5.165-234.852,300.945-234.852,300.945s-31.348,79.416-33.439,72.101
			C898.297,917.998,877.397,848.509,877.397,848.509z"/>
		<path style="fill:#3797DB;" d="M1753.022,993.942h-206.409c-7.017,0-12.705,5.688-12.705,12.704l0,0
			c0,7.017,5.688,12.704,12.705,12.704h206.409c7.017,0,12.704-5.688,12.704-12.704l0,0
			C1765.727,999.63,1760.039,993.942,1753.022,993.942z"/>
		<path style="fill:#3797DB;" d="M878.222,575c0,0-53.333-103.298-138.261-68.427c-83.833,37.429-45.841,147.299-45.841,147.299
			s132.345,340.702,176.715,412.482c42.521,68.789,116.253,35.268,122.324,32.354c0.268-0.129,0.54-0.245,0.818-0.351
			c6.296-2.385,81.428-32.64,60.96-110.877C1033.58,905.843,878.222,575,878.222,575z"/>
		<path style="fill:#EFAC7F;" d="M1124.969,776.519c0,0,17.246,10.656,17.734,10.128c0.488-0.529,4.971-2.011,4.924-2.661
			c-0.046-0.65,2.372-11.506,2.372-11.506l-13.254-12.682L1124.969,776.519L1124.969,776.519z"/>
		<path style="fill:#EFAC7F;" d="M1260.438,731.101c0,0-20.687,6.546-23.892,9.827c-3.205,3.28-4.561,10.617-4.561,10.617
			l4.621,5.433L1260.438,731.101z"/>
		<path style="fill:#62BDF3;" d="M804.158,539.381c-47.01,40.355-60.198,102.251-63.695,140.276
			c-1.187,12.903,14.622,20.015,23.49,10.567c26.133-27.843,63.698-78.773,62.708-140.721
			C826.477,537.969,812.911,531.867,804.158,539.381z"/>
		<path style="opacity:0.6;fill:#D19369;" d="M1148.712,778.382c-3.253,0.412-10.207-0.074-17.478-10.758l5.511-7.825l13.254,12.682
			C1149.999,772.481,1149.337,775.454,1148.712,778.382z"/>
		<g>
			<path style="fill:#96A65F;" d="M683.354,1576.339c0,0,200.7-142.221,141.735-201.246c0,0-5.841-24.335-81.162,29.916
				c0,0-35.006-0.362-24.371-37.487c10.636-37.124,81.242-75.079,59.055-117.96c-22.188-42.88-58.598,8.292-85.514,11.206
				c-26.917,2.912,33.642-138.92,6.741-165.505c-26.902-26.584-55.222,27.863-75.537,28.427
				c-20.315,0.563-15.859-187.208-112.789-185.019c-96.93,2.19-20.079,99.214,7.9,152.599c27.978,53.385-49.929,2.385-75.95,49.603
				c-26.021,47.217,140.112,58.606,109.674,102.779c-30.438,44.174-64.62,1.46-85.181,35.193
				c-33.244,54.539,137.018,49.193,119.781,88.668c-13.745,31.479-61.229-8.467-75.587,14.596
				C497.79,1405.171,562.003,1527.21,683.354,1576.339z"/>
			<path style="opacity:0.1;fill:#FFFFFF;" d="M828.929,1379.541c-0.478-0.646-0.984-1.28-1.514-1.908
				c-5.231,6.873-11.31,14.254-18.232,21.729c-25.424,27.466-67.71,61.833-125.047,70.264c-3.273-31.23-9.06-64.73-17.346-100.338
				c38.062-69.359,77.959-101.763,104.728-116.733c2.32-1.297,4.577-2.479,6.779-3.574c-0.381-0.717-0.767-1.405-1.156-2.07
				c-2.143,1.071-4.337,2.222-6.594,3.479c-26.789,14.938-66.545,47.081-104.557,115.464c-0.035-0.15-0.068-0.298-0.104-0.447
				c-8.654-36.545-19.917-75.325-33.667-115.985c0.649-3.415,6.995-35.937,19.937-73.136c9.295-26.717,23.499-59.942,42.862-84.93
				c-0.687-0.442-1.374-0.833-2.061-1.184c-19.463,25.226-33.708,58.536-43.033,85.337c-10.834,31.142-17.069,59.037-19.223,69.45
				c-10.576-30.967-22.579-63.007-35.97-95.976c-37.344-91.939-76.859-169.646-97.825-209.088c-0.836,0.132-1.65,0.276-2.45,0.427
				c20.841,39.164,60.556,117.157,98.086,209.551c6.311,15.537,12.721,31.898,19.072,48.888
				c-7.907-4.332-31.643-16.853-63.735-29.404c-27.04-10.576-64.297-22.777-104.223-28.824c-0.064,0.113-0.13,0.224-0.193,0.339
				c-0.349,0.633-0.656,1.257-0.936,1.878c39.991,5.97,77.368,18.203,104.452,28.794c36.729,14.361,62.445,28.67,65.905,30.626
				c14.004,37.697,27.662,78.399,39.258,120.055c-50.778-24.659-141.442-35.133-186.482-38.979
				c-0.337,0.778-0.631,1.542-0.881,2.295c45.205,3.829,137.916,14.444,188.213,39.74c16.348,59.312,28.425,120.434,31.296,177.443
				c-46.833-7.891-92.798-45.516-123.247-75.885c-18.835-18.786-34.188-37.151-44.043-49.662c-0.662,0.413-1.293,0.886-1.894,1.415
				c9.897,12.566,25.32,31.02,44.24,49.893c30.811,30.735,77.43,68.853,125.069,76.661c1.125,24.511,0.524,48.241-2.195,70.718
				c0.381,0.155,0.755,0.32,1.137,0.475c0,0,0.449-0.318,1.294-0.929c3.67-30.892,3.573-65.464-0.266-103.422
				c3.738-0.547,7.46-1.203,11.16-1.979c21.565-4.516,42.461-12.896,62.271-24.985c18.817-11.485,36.701-26.326,53.154-44.108
				C817.764,1393.57,823.748,1386.32,828.929,1379.541z"/>
		</g>
		<path style="fill:#3B77BE;" d="M367.519,1199.882c43.045-23.035,59.057,45.046,62.551,63.529
			c18.124,2.627,34.539,6.409,49.169,10.806c-13.469-19.342-36.875-25.643-41.227-40.074c-4.88-16.183,1.744-35.886,30.526-19.643
			c22.806,12.871,18.964,47.609,16.384,61.49c25.174,8.077,44.762,17.788,58.573,25.933c-11.972-24.318-38.13-34.387-41.123-51.268
			c-3.274-18.472,6.589-39.327,36.201-17.68c24.477,17.894,13.895,58.244,9.488,71.711c12.431,7.711,19.128,13.49,19.838,14.114
			c13.581,11.607,25.973,23.438,37.295,35.358c-10.004-21.637-30.409-34.348-30.955-49.968
			c-0.657-18.746,12.029-38.017,38.319-12.438c20.8,20.236,6.917,56.352,0.208,70.563c23.014,25.391,41.251,51.043,55.731,75.704
			c-1.397-21.995-19.678-52.36-13.746-72.849c3.892-13.44,13.442-16.693,20.825-17.04c6.308-0.297,12.295,2.29,16.513,6.99
			c23.845,26.564-10.023,73.775-20.893,87.541c17.443,30.543,29.132,59.401,36.955,84.136c-0.622-11.38-1.641-28.555-2.577-37.452
			c-1.475-14.028,3.926-33.704,14.872-41.68c0.456-0.332,0.912-0.642,1.366-0.929c8.692-5.504,20.088-3.284,26.973,4.361
			c26.932,29.902-26.042,75.595-37.779,85.102c0.05,0.172,0.105,0.35,0.154,0.521c18.118,62.745,15.39,107.004,15.266,108.855
			l-6.852-0.46c0.029-0.43,2.592-42.567-13.586-101.429c-64.315-6.989-82.145-43.774-73.431-57.485
			c9.004-14.166,34.009-19.368,45.454,7.193c6.638,15.406,17.194,30.051,24.896,39.645c-7.601-24.965-19.279-54.57-37.145-86.027
			c-83.988,19.578-91.355-33.393-74.232-45.786c17.331-12.544,31.271-4.897,44.97,15.165c9.101,13.327,20.356,22.107,26.907,26.521
			c-14.111-24.233-31.931-49.48-54.417-74.502c-10.184,11.5-38.345,39.117-65.398,27.735c-33.809-14.225-21.018-33.424-3.501-40.135
			c16.105-6.171,38.383,11.301,65.614,8.779c-12.626-13.758-26.659-27.43-42.307-40.804c-0.25-0.221-13.686-11.819-39.161-24.533
			c-8.76,12.81-33.104,43.422-61.24,35.589c-35.336-9.837-25.074-30.498-8.546-39.371c14.749-7.914,38.077,5.522,63.84,0.893
			c-21.87-10.277-51.463-20.758-88.16-26.203c-9.189,13.227-33.138,42.499-60.714,34.822c-35.336-9.838-25.074-30.5-8.545-39.37
			c14.956-8.028,38.733,5.918,64.929,0.699l0.096-0.721c-9.108-3.899-28.463-12.112-37.926-15.565
			c-12.629-4.609-26.804-17.598-28.401-30.512C357.976,1206.801,367.519,1199.882,367.519,1199.882z"/>
		<path style="fill:#45258F;" d="M729.872,1630.232c0,0-34.245-149.126-204.735-233.818l7.011,55.786l-26.522-62.154
			c0,0-101.086-45.033-179.913-57.579c0,0,100.664,152.273,132.82,178.437l55.503,12.003l-45.415,21.479
			c0,0,54.139,86.058,139.132,121.164C692.747,1700.654,729.872,1630.232,729.872,1630.232z"/>
		<g>
			<g>
				<g>
					<path style="fill:#45258F;" d="M315.016,1577.381c22.273,47.779,51.681,82.201,84.601,106.66
						c19.121-11.647,42.155-25.066,42.155-25.066l-18.693,40.533c134.195,78.169,309.158,16.303,309.158,16.303
						c-47.211-105.874-106.47-158.479-165.378-180.98c-10.335,12.261-25.5,30.679-25.5,30.679l6.229-37.015
						c-29.562-8.16-58.69-9.319-85.802-6.436c-3.122,19.255-7.164,41.026-7.164,41.026l-18.777-36.997
						C366.001,1540.31,315.016,1577.381,315.016,1577.381z"/>
				</g>
				<g>
					<path style="fill:#7772D6;" d="M566.858,1534.83c-10.335,12.261-25.5,30.679-25.5,30.679l6.229-37.015
						c-29.562-8.16-58.69-9.319-85.802-6.436c-3.122,19.255-7.164,41.026-7.164,41.026l-18.777-36.997
						c-69.843,14.222-120.829,51.293-120.829,51.293c149.009,105.667,417.221,138.43,417.221,138.43
						C685.025,1609.937,625.766,1557.332,566.858,1534.83z"/>
				</g>
			</g>
		</g>
		<path style="fill:#62BDF3;" d="M860.212,667.296c-47.01,40.356-60.198,102.251-63.695,140.276
			c-1.187,12.903,14.622,20.015,23.49,10.566c26.133-27.842,63.698-78.772,62.708-140.72
			C882.531,665.884,868.965,659.781,860.212,667.296z"/>
		<path style="fill:#62BDF3;" d="M926.68,808.028c-47.01,40.356-60.198,102.251-63.694,140.276
			c-1.187,12.903,14.623,20.015,23.49,10.567c26.133-27.842,63.698-78.772,62.708-140.72
			C948.999,806.616,935.434,800.514,926.68,808.028z"/>
		<g>
			<path style="fill:#7772D6;" d="M1398.447,800.865c-5.147,4.278-9.876,13.173-14.883,22.593
				c-7.456,14.028-15.906,29.927-31.163,43.001c-16.875,14.459-36.682,20.471-52.596,25.3c-3.884,1.179-7.633,2.319-11.131,3.507
				l-86.419-24.944c14.36-16.361,32.385-29.489,52.574-37.896c8.437-3.514,16.933-6.093,24.43-8.368
				c11.062-3.357,21.51-6.528,27.106-11.323c5.098-4.37,9.775-13.169,14.727-22.485c7.251-13.643,16.276-30.622,32.145-43.805
				c21.426-17.8,47.276-22.305,68.048-25.924c14.53-2.531,28.254-4.922,35.037-10.763c3.655-3.147,7.564-9.255,11.705-15.723
				c2.609-4.077,5.309-8.294,8.46-12.662c14.494-20.09,33.952-36.266,56.009-47.225l8.469,29.071l2.372-33.946
				c14.51-5.874,29.913-9.564,45.613-10.711c2.517-0.184,4.86-0.294,7.126-0.401c3.642-0.172,37.409-4.383,47.903,4.085l0,0
				c14.455,11.665,16.605,31.538,7.781,45.733l-31.679-6.316l20.388,17.432c-0.862,0.52-1.745,1.021-2.671,1.478
				c-2.615,1.286-5.364,2.447-8.251,3.45c-11.288,3.923-21.744,4.416-30.146,4.81c-1.898,0.09-3.692,0.174-5.297,0.291
				c-23.42,1.711-46.502,14.602-60.241,33.644c-2.001,2.773-4.065,5.998-6.25,9.41c-3.4,5.314-7.269,11.355-12.033,17.382
				l-36.954-3.37l27.757,13.611c-1.248,1.21-2.541,2.403-3.894,3.568c-21.573,18.579-47.903,23.166-69.061,26.853
				C1419.001,792.737,1405.375,795.11,1398.447,800.865z"/>
			<path style="opacity:0.2;fill:#45258F;" d="M1539.588,674.047c-93.455,73.824-66.299,68.448-149.974,98.69
				c-63.674,23.014-67.075,97.969-120.521,116.877l19.581,5.652c3.498-1.188,7.247-2.328,11.131-3.507
				c15.914-4.83,35.72-10.841,52.596-25.3c15.257-13.074,23.707-28.973,31.163-43.001c5.007-9.42,9.735-18.315,14.883-22.593
				c6.928-5.754,20.554-8.127,34.98-10.642c21.157-3.686,47.487-8.274,69.061-26.853c1.353-1.165,2.646-2.358,3.894-3.568
				l-27.757-13.611l36.954,3.37c4.764-6.026,8.633-12.068,12.034-17.382c2.184-3.412,4.247-6.636,6.249-9.41
				c13.738-19.042,36.82-31.933,60.241-33.644c1.604-0.117,3.398-0.201,5.297-0.291c8.402-0.394,18.859-0.887,30.146-4.81
				c2.887-1.002,5.636-2.164,8.251-3.45c0.927-0.456,1.81-0.957,2.671-1.477l-20.388-17.432l31.679,6.316
				c5.999-9.649,6.92-21.919,2.358-32.454C1625.408,631.237,1586.227,637.206,1539.588,674.047z"/>
		</g>
		<g>
			<path style="fill:#7772D6;" d="M1482.057,609.456c-2.545,11.331-5.647,25.108-12.307,38.812
				c-20.912,4.935-61.757,14.589-57.137,13.614c4.33-0.913,31.967,0.554,48.127,1.514c-16.402,22.91-39.729,36.303-58.92,47.314
				c-14.832,8.51-28.842,16.547-34.152,25.625c-3.945,6.747-5.589,18.396-7.329,30.731c-2.591,18.37-5.529,39.188-17.063,59.621
				c-12.758,22.598-32.1,37.091-47.642,48.736c-6.332,4.744-12.312,9.226-17.128,13.65c-0.885,0.813-1.746,1.655-2.595,2.51
				l-84.513-24.393c8.378-14.424,18.877-27.624,31.217-38.96c7.859-7.221,16.157-13.438,23.479-18.923
				c10.803-8.094,21.005-15.74,25.237-23.233c3.853-6.828,5.479-18.351,7.201-30.55c2.52-17.864,5.657-40.098,17.818-60.893
				c16.421-28.079,42.998-43.328,64.354-55.581c14.939-8.57,29.048-16.665,34.165-25.78c2.757-4.912,4.613-13.174,6.578-21.923
				c1.239-5.515,2.521-11.219,4.239-17.27c13.266-46.731,46.276-86.939,89.261-109.343l13.538,11.322l-3.654-16.083
				c2.41-1.067,4.699-2.026,6.915-2.951c3.93-1.641,39.311-19.725,54.206-14.613l0,0c27.999,9.609,36.975,45.135,16.467,66.482
				c-2.357,2.455-4.911,4.824-7.68,7.076c-10.825,8.805-22.106,13.514-31.17,17.297c-2.049,0.856-3.984,1.664-5.698,2.431
				c-25.023,11.213-45.219,34.565-52.708,60.942C1484.073,600.479,1483.094,604.84,1482.057,609.456z"/>
			<path style="opacity:0.2;fill:#45258F;" d="M1463.227,545.119c-60.906,91.767-29.805,94.598-82.952,138.262
				c-53.146,43.664-63.675,35.708-70.902,100.001c-3.377,30.037-37.214,66.577-72.312,96.986l38.852,11.214
				c0.849-0.855,1.71-1.697,2.595-2.51c4.817-4.424,10.797-8.906,17.128-13.65c15.542-11.645,34.884-26.138,47.642-48.736
				c11.534-20.432,14.471-41.251,17.063-59.621c1.74-12.334,3.383-23.983,7.329-30.731c5.31-9.078,19.319-17.115,34.152-25.625
				c19.19-11.011,42.518-24.404,58.92-47.314c-16.16-0.961-43.797-2.428-48.127-1.514c-4.621,0.975,36.225-8.678,57.137-13.614
				c6.659-13.704,9.761-27.482,12.307-38.812c1.037-4.616,2.017-8.978,3.107-12.819c7.489-26.377,27.684-49.729,52.708-60.942
				c1.713-0.767,3.648-1.575,5.697-2.431c9.065-3.783,20.346-8.492,31.171-17.297c2.77-2.252,5.323-4.622,7.68-7.076
				c11.396-11.863,13.683-28.102,8.665-41.841C1551.796,473.558,1498.206,492.416,1463.227,545.119z"/>
		</g>
		<g>
			<path style="fill:#7772D6;" d="M1409.058,861.163c-4.54,2.418-9.482,8.377-14.715,14.686c-4.248,5.12-8.809,10.609-14.263,15.754
				l-93.055-26.858c2.98-0.849,5.993-1.593,9.042-2.181c6.896-1.332,13.692-1.95,19.688-2.495c8.847-0.805,17.202-1.565,22.16-4.303
				c4.517-2.495,9.405-8.389,14.582-14.629c7.579-9.138,17.013-20.51,31.006-27.962c18.894-10.061,39.049-9.428,55.243-8.919
				c11.329,0.356,22.028,0.693,28.041-2.647c3.24-1.8,7.134-5.788,11.255-10.01c2.598-2.662,5.285-5.415,8.337-8.212
				c25.21-23.107,60.504-34.234,94.407-29.766c1.923,0.253,3.704,0.534,5.426,0.807c2.768,0.438,28.833,2.522,35.412,10.529l0,0
				c12.369,15.05,5.132,38.052-13.728,42.931c-2.168,0.561-4.417,1.007-6.745,1.312c-9.105,1.196-17.051-0.061-23.435-1.072
				c-1.443-0.228-2.807-0.443-4.031-0.604c-17.891-2.358-37.267,3.751-50.57,15.943c-1.937,1.775-3.992,3.881-6.167,6.109
				c-0.685,0.702-1.392,1.425-2.117,2.161l-23.215-5.865l13.714,14.789c-3.588,3.022-7.599,5.953-12.142,8.477
				c-19.126,10.624-39.655,9.979-56.15,9.46C1425.791,858.245,1415.167,857.911,1409.058,861.163z"/>
			<path style="opacity:0.2;fill:#45258F;" d="M1524.018,792.549c-68.223,31.937-77.357,38.446-111.293,43.812
				c-24.014,3.798-52.147,30.288-66.547,45.457l33.903,9.786c5.454-5.146,10.015-10.635,14.263-15.754
				c5.233-6.309,10.176-12.268,14.715-14.686c6.108-3.253,16.732-2.918,27.98-2.565c16.495,0.518,37.023,1.164,56.15-9.46
				c4.543-2.524,8.554-5.456,12.142-8.477l-13.714-14.789l23.215,5.866c0.725-0.736,1.432-1.46,2.117-2.162
				c2.175-2.228,4.23-4.333,6.167-6.109c13.303-12.192,32.679-18.301,50.569-15.943c1.226,0.162,2.589,0.378,4.032,0.605
				c6.384,1.011,14.33,2.268,23.435,1.072c2.329-0.305,4.577-0.751,6.745-1.312c10.294-2.664,17.114-10.729,19.184-19.952
				C1596.376,780.329,1557.61,776.824,1524.018,792.549z"/>
		</g>
		<path style="fill:#45258F;" d="M1232.293,742.617c0,0-47.209,44.578-66.036,39.708c0,0-5.089-0.384-14.943-3.511
			c0,0-10.006,8.066-25.507-7.472l-10.5-2.294c0,0-13.257-3.115-29.855,15.6c-3.756,4.905-7.114,9.466-10.112,13.707
			c-0.309,0.455-0.614,0.889-0.917,1.305c-35.435,50.601-18.641,54.622-18.466,54.447l91.631,12.466l3.225-13.311l4.265-21.753
			c0,0,60.132-18.992,92.052-72.094L1232.293,742.617z"/>
		<path style="fill:#FFFFFF;" d="M1147.586,866.574c0.852-2.784,1.588-5.601,2.327-8.417c0.709-2.823,1.378-5.657,2.016-8.498
			c0.648-2.839,1.205-5.699,1.742-8.562c0.529-2.864,1.031-5.734,1.47-8.616c0.82-5.769,1.486-11.57,1.709-17.402
			c0.164-5.815,0.088-11.726-1.342-17.393c0.536,2.861,0.772,5.762,0.821,8.663c0.075,2.899-0.007,5.801-0.182,8.696
			c-0.199,2.895-0.435,5.786-0.757,8.67c-0.318,2.885-0.721,5.761-1.153,8.631c-0.822,5.75-1.876,11.465-2.994,17.168
			c-0.552,2.853-1.145,5.699-1.763,8.54C1148.887,860.903,1148.239,863.738,1147.586,866.574z"/>
		<g>
			<path style="fill:#3797DB;" d="M1505.418,716.323c0,0-41.275-3.658-64.264,19.854c-22.989,23.511-66.877,88.298-79.416,156.22
				c-12.54,67.922-170.675-34.658-170.675-34.658s59.91-188.09,181.821-212.473c0,0,32.219-6.792,57.821,4.703
				c25.601,11.494,42.843,25.079,70.534,16.719C1501.238,666.688,1496.884,695.424,1505.418,716.323z"/>
			<path style="fill:#9ED16F;" d="M1505.418,716.323c0,0,31.522-1.045,46.5-18.809c0,0,5.573-47.371-2.09-48.764
				c-7.663-1.393-13.194,2.438-20.182,4.877c-6.987,2.438-27.626,5.265-28.408,13.061
				C1501.238,666.688,1497.581,692.289,1505.418,716.323z"/>
			<path style="opacity:0.3;fill:#3B77BE;" d="M1415.347,679.091c33.151,3.617,64.938,5.874,84.876,9.759
				c-0.47-12.335,1.016-22.162,1.016-22.162c-27.691,8.36-44.933-5.225-70.535-16.719c-25.601-11.495-57.82-4.703-57.82-4.703
				c-121.911,24.382-181.821,212.473-181.821,212.473s20.53,13.317,47.381,27.178
				C1285.338,714.144,1371.831,674.344,1415.347,679.091z"/>
			<path style="fill:#62BDF3;" d="M1505.418,716.323c-1.971-4.824-3.248-10.066-4.056-15.276
				c-11.318-1.953-44.223-5.309-71.596,14.895c-33.365,24.627-89.575,47.7-141.289,191.044
				c35.265,12.275,67.844,14.748,73.261-14.588c12.539-67.922,56.427-132.708,79.416-156.22
				C1464.143,712.666,1505.418,716.323,1505.418,716.323z"/>
		</g>
		<path style="fill:#62BDF3;" d="M1763.137,1709.291h-226.638c-5.174,0-9.368-4.195-9.368-9.369v-676.387
			c0-5.175,4.194-9.369,9.368-9.369h226.638c5.174,0,9.368,4.194,9.368,9.369v676.387
			C1772.505,1705.096,1768.312,1709.291,1763.137,1709.291z"/>
		<path style="opacity:0.3;fill:#FFFFFF;" d="M1732.988,1296.241L1732.988,1296.241c-10.634,0-19.254-8.621-19.254-19.255v-220.25
			c0-10.634,8.62-19.254,19.254-19.254l0,0c10.635,0,19.255,8.62,19.255,19.254v220.25
			C1752.243,1287.62,1743.623,1296.241,1732.988,1296.241z"/>
		<path style="opacity:0.5;fill:#3797DB;" d="M1590.5,1014.166h-54.001c-5.174,0-9.368,4.194-9.368,9.369v676.387
			c0,5.174,4.194,9.369,9.368,9.369h226.638c5.174,0,9.368-4.195,9.368-9.369v-336.838
			C1640.833,1368.061,1601.346,1168.947,1590.5,1014.166z"/>
		<g>
			<path style="fill:#7772D6;" d="M1825.614,1177.899c-32.808,13.088-56.951,31.455-74.563,52.549
				c7.066,13.233,15.169,29.151,15.169,29.151l-26.407-14.042c-57.385,86.808-22.635,206.2-22.635,206.2
				c72.618-27.566,110.057-65.213,127.345-103.768c-7.81-7.379-19.556-18.223-19.556-18.223l24.526,5.571
				c6.58-19.466,8.461-38.908,7.561-57.155c-12.764-2.819-27.175-6.348-27.175-6.348l25.463-11.158
				C1848.48,1213.414,1825.614,1177.899,1825.614,1177.899z"/>
			<path style="fill:#45258F;" d="M1844.524,1347.99c-7.81-7.379-19.556-18.223-19.556-18.223l24.526,5.571
				c6.58-19.466,8.461-38.908,7.561-57.155c-12.764-2.819-27.175-6.348-27.175-6.348l25.463-11.158
				c-6.863-47.264-29.729-82.778-29.729-82.778c-76.342,95.675-108.435,273.858-108.435,273.858
				C1789.797,1424.191,1827.236,1386.545,1844.524,1347.99z"/>
		</g>
		<g>
			<path style="fill:#7772D6;" d="M2107.275,1253.588c-73.553-11.145-136.977-3.468-191.438,16.116
				c-1.246,31.57-3.466,69.124-3.466,69.124l-33.038-53.631c-196.69,96.658-260.643,350.612-260.643,350.612
				c161.308,27.213,269.42-1.344,341.877-53.001c-6.337-21.723-16.137-53.933-16.137-53.933l38.636,36.233
				c32.682-28.369,56.797-61.697,74.584-95.813c-20.19-18.71-42.622-40.466-42.622-40.466l58.149,6.83
				C2111.02,1342.467,2107.275,1253.588,2107.275,1253.588z"/>
			<path style="fill:#45258F;" d="M1960.568,1582.809c-6.337-21.723-16.137-53.933-16.137-53.933l38.636,36.233
				c32.682-28.369,56.797-61.697,74.584-95.813c-20.19-18.71-42.622-40.466-42.622-40.466l58.149,6.83
				c37.841-93.193,34.097-182.072,34.097-182.072c-240.579,92.59-488.584,382.222-488.584,382.222
				C1779.999,1663.022,1888.111,1634.466,1960.568,1582.809z"/>
		</g>
		<path style="fill:#62BDF3;" d="M2155.139,1411.01c-25.158-32.639-61.061,14.225-70.15,27.243
			c-14.862-4.254-28.807-7.026-41.593-8.708c17.067-10.226,37.267-6.971,45.614-16.573c9.359-10.768,11.084-28.228-16.697-25.691
			c-22.013,2.011-31.085,30.083-33.906,41.661c-22.176-2.5-40.618-1.808-54.07-0.321c17.639-14.574,41.262-13.267,49.411-25.226
			c8.917-13.084,8.546-32.555-21.746-26.146c-25.038,5.298-30.866,40.025-32.137,51.917c-12.239,1.632-19.396,3.762-20.159,3.996
			c-14.474,4.231-28.109,9.047-40.954,14.303c15.195-13.191,35.304-15.91,41.133-27.745c6.998-14.204,3.905-33.43-25.19-22.845
			c-23.02,8.376-24.84,40.985-24.597,54.248c-26.508,11.575-49.431,25.008-69.116,38.977c8.691-16.447,33.279-33.492,35.809-51.318
			c1.659-11.694-4.566-17.505-10.131-20.328c-4.753-2.413-10.257-2.495-15.133-0.338c-27.555,12.192-17.831,60.264-14.231,74.624
			c-24.005,17.471-42.996,35.638-57.583,51.97c4.419-8.545,11.152-21.413,14.954-27.938c5.993-10.287,8.649-27.305,2.984-37.234
			c-0.236-0.414-0.479-0.81-0.729-1.188c-4.787-7.246-14.328-9.484-22.274-5.983c-31.087,13.693-6.13,67.211-0.388,78.594
			c-0.098,0.114-0.202,0.232-0.299,0.348c-35.675,42.026-48.902,77.041-49.447,78.511l5.433,2.017
			c0.126-0.341,12.746-33.665,45.583-73.373c51.931,16.892,78.394-5.252,76.435-18.823c-2.026-14.023-19.473-26.688-37.481-10.203
			c-10.445,9.561-23.644,17.178-32.894,21.896c14.496-16.586,33.738-35.332,58.385-53.36c57.873,44.156,81.889,5.93,72.999-9.54
			c-8.997-15.658-22.376-14.599-39.869-3.898c-11.62,7.107-23.325,9.97-29.896,11.097c19.254-13.767,41.714-27.031,67.689-38.507
			c3.856,12.38,15.972,43.392,40.737,43.998c30.953,0.758,27.755-18.451,16.594-29.684c-10.261-10.326-33.459-4.592-53.55-15.963
			c14.485-6.219,30.021-11.884,46.698-16.76c0.27-0.084,14.628-4.359,38.641-5.325c2.309,12.895,10.447,44.891,34.818,48.604
			c30.608,4.665,29.863-14.795,20.212-27.348c-8.611-11.2-31.222-8.935-49.452-21.421c20.395-0.339,46.806,1.842,76.939,10.357
			c2.493,13.365,10.792,44.192,34.679,47.832c30.608,4.664,29.864-14.795,20.213-27.349c-8.733-11.358-31.866-8.856-50.225-21.945
			l0.176-0.588c8.362,0.152,26.104,0.533,34.586,1.151c11.317,0.826,26.728-4.265,32.428-13.652
			C2160.09,1419.641,2155.139,1411.01,2155.139,1411.01z"/>
		<g>
			<g>
				<g>
					<path style="fill:#7772D6;" d="M2054.572,1592.917c-38.882-30.428-78.047-46.676-115.913-53.114
						c-11.017,17.842-24.546,38.824-24.546,38.824l-1.607-41.774c-145.215-8.271-265.001,117.667-265.001,117.667
						c84.367,68.334,156.173,87.085,214.902,80.854c3.421-14.623,8.261-36.437,8.261-36.437l10.517,33.544
						c28.142-5.741,52.951-17.142,74.357-31.061c-5.569-17.4-11.44-37.291-11.44-37.291l31.385,22.911
						C2027.752,1645.513,2054.572,1592.917,2054.572,1592.917z"/>
				</g>
				<g>
					<path style="fill:#45258F;" d="M1862.407,1735.374c3.421-14.623,8.261-36.437,8.261-36.437l10.517,33.544
						c28.142-5.741,52.951-17.142,74.357-31.061c-5.569-17.4-11.44-37.291-11.44-37.291l31.385,22.911
						c52.266-41.528,79.086-94.124,79.086-94.124c-169.258-24.937-407.067,61.603-407.067,61.603
						C1731.872,1722.854,1803.678,1741.604,1862.407,1735.374z"/>
				</g>
			</g>
		</g>
		<path style="fill:#7772D6;" d="M1705.236,898.133h-110.837c-5.707,0-10.333,4.626-10.333,10.333v6.442
			c0,1.905,1.544,3.449,3.45,3.449h124.604c1.905,0,3.449-1.544,3.449-3.449v-6.442
			C1715.569,902.759,1710.943,898.133,1705.236,898.133z"/>
		<path style="fill:#3B77BE;" d="M1753.866,918.357H1545.77c-10.294,0-18.639,8.345-18.639,18.639v45.621
			c0,10.294,8.345,18.639,18.639,18.639h208.097c10.294,0,18.639-8.345,18.639-18.639v-45.621
			C1772.505,926.703,1764.16,918.357,1753.866,918.357z"/>
		<path style="fill:#9ED16F;" d="M1466.35,848.509H748.758c-11.091,0-20.268,8.628-20.95,19.698l-52.273,848.317
			c-0.745,12.076,8.85,22.28,20.95,22.28h822.139c12.1,0,21.694-10.204,20.95-22.28L1487.3,868.208
			C1486.618,857.138,1477.441,848.509,1466.35,848.509z"/>
		<g>
			<g>
				<g style="opacity:0.8;">
					<g>
						<path style="fill:#D1EAF2;" d="M1692.271,1419.144v4.457c0,5.329-2.075,10.339-5.841,14.106l-8.315,8.318h0
							c-7.112,7.116-11.029,16.577-11.029,26.641v216.213c0,24.998,20.329,45.337,45.317,45.337h96.234
							c24.989,0,45.318-20.339,45.318-45.337v-216.213c0-10.063-3.916-19.524-11.029-26.641l-8.315-8.318
							c-3.767-3.769-5.841-8.777-5.841-14.106v-4.457H1692.271z"/>
					</g>
				</g>
				<g>
					<path style="fill:#9ED16F;" d="M1843.832,1501.877v176.4c0,23.438-18.646,42.438-41.646,42.438h-30.065h-22.628h-30.065
						c-23,0-41.646-19-41.646-42.438v-177.776L1843.832,1501.877z"/>
					<path style="fill:#96A65F;" d="M1691.108,1487.525c17.51-0.626,59.094,12.818,75.665,13.443
						c16.571,0.626,34.393-11.255,57.53-9.379c16.366,1.327,19.351,7.034,19.694,10.261c0.144,1.335-0.53,2.62-1.691,3.295
						c-2.971,1.723-10.615,4.875-25.82,3.954c-20.636-1.252-52.839,15.007-70.349,16.57c-16.226,1.449-47.555-1.667-64.595-17.559
						c-3.644-3.398-5.099-8.656-3.251-13.284C1679.743,1491.19,1683.229,1487.807,1691.108,1487.525z"/>
				</g>
				<g>
					<path style="fill:#D1EAF2;" d="M1662.119,1687.766v-214.032c0-11.607,4.52-22.52,12.728-30.727l8.234-8.235
						c2.566-2.565,3.98-5.979,3.98-9.608v-10.571h147.498v10.571c0,3.63,1.413,7.043,3.979,9.608l8.235,8.235
						c8.208,8.208,12.728,19.12,12.728,30.727v214.032c0,28.143-22.896,51.039-51.04,51.039h-95.304
						C1685.016,1738.805,1662.119,1715.908,1662.119,1687.766z M1693.221,1420.752v4.411c0,5.275-2.054,10.235-5.784,13.964
						l-8.234,8.235h-0.001c-7.043,7.045-10.923,16.41-10.923,26.371v214.032c0,24.746,20.132,44.879,44.879,44.879h95.304
						c24.747,0,44.88-20.133,44.88-44.879v-214.032c0-9.961-3.879-19.326-10.923-26.371l-8.235-8.235
						c-3.73-3.729-5.784-8.688-5.784-13.964v-4.411H1693.221z"/>
				</g>
				<g style="opacity:0.5;">
					<path style="fill:#D1EAF2;" d="M1827.016,1598.365c2.978,0.023,5.41-2.369,5.433-5.347
						c0.169-23.246,0.759-112.069-0.063-121.341c-0.818-9.246-9.388-14.789-15.43-17.574c-2.983-1.377-6.49,0.246-7.408,3.4
						l-0.004,0.015c-0.744,2.559,0.493,5.266,2.907,6.394c4.173,1.951,8.879,5.124,9.197,8.716
						c0.673,7.609,0.326,79.113,0.02,120.311C1821.646,1595.914,1824.039,1598.342,1827.016,1598.365L1827.016,1598.365z"/>
				</g>
				<g>
					<path style="fill:#96A65F;" d="M1793.023,1686.989c0,6.048,4.903,10.95,10.951,10.95c6.047,0,10.951-4.902,10.951-10.95
						c0-6.049-4.904-10.951-10.951-10.951C1797.926,1676.038,1793.023,1680.94,1793.023,1686.989z"/>
					<path style="fill:#96A65F;" d="M1782.984,1654.592c0,3.15,2.554,5.704,5.703,5.704c3.151,0,5.704-2.554,5.704-5.704
						s-2.553-5.703-5.704-5.703C1785.538,1648.889,1782.984,1651.441,1782.984,1654.592z"/>
					<path style="fill:#96A65F;" d="M1744.518,1690.184c0,3.149,2.554,5.703,5.704,5.703c3.149,0,5.703-2.554,5.703-5.703
						c0-3.15-2.554-5.704-5.703-5.704C1747.071,1684.479,1744.518,1687.033,1744.518,1690.184z"/>
					<path style="fill:#96A65F;" d="M1801.465,1652.814c0,0.806,0.653,1.459,1.459,1.459c0.805,0,1.459-0.653,1.459-1.459
						s-0.654-1.459-1.459-1.459C1802.118,1651.355,1801.465,1652.009,1801.465,1652.814z"/>
					<path style="fill:#F4A640;" d="M1719.188,1668.329c0,1.053,0.854,1.906,1.907,1.906c1.053,0,1.907-0.854,1.907-1.906
						c0-1.054-0.854-1.907-1.907-1.907C1720.042,1666.422,1719.188,1667.275,1719.188,1668.329z"/>
					<path style="fill:#F4A640;" d="M1735.302,1636.341c0,1.889,1.532,3.422,3.422,3.422s3.422-1.533,3.422-3.422
						c0-1.891-1.532-3.423-3.422-3.423S1735.302,1634.45,1735.302,1636.341z"/>
					<path style="fill:#96A65F;" d="M1799.501,1614.03c0,1.89,1.532,3.423,3.423,3.423c1.89,0,3.422-1.533,3.422-3.423
						c0-1.891-1.532-3.422-3.422-3.422C1801.033,1610.608,1799.501,1612.14,1799.501,1614.03z"/>
					<path style="fill:#96A65F;" d="M1792.286,1620.894c0,0.722,0.585,1.308,1.307,1.308c0.723,0,1.309-0.586,1.309-1.308
						c0-0.723-0.585-1.308-1.309-1.308C1792.871,1619.586,1792.286,1620.171,1792.286,1620.894z"/>
					<path style="fill:#96A65F;" d="M1806.106,1628.662c0,2.022,1.639,3.662,3.662,3.662c2.021,0,3.661-1.64,3.661-3.662
						s-1.64-3.661-3.661-3.661C1807.745,1625.001,1806.106,1626.64,1806.106,1628.662z"/>
					<path style="fill:#F4A640;" d="M1692.341,1665.156c0,6.01,4.872,10.882,10.882,10.882c6.01,0,10.881-4.872,10.881-10.882
						s-4.872-10.883-10.881-10.883C1697.213,1654.273,1692.341,1659.146,1692.341,1665.156z"/>
					<path style="fill:#F4A640;" d="M1716.946,1646.748c0,2.628,2.129,4.757,4.756,4.757s4.756-2.129,4.756-4.757
						c0-2.627-2.129-4.756-4.756-4.756S1716.946,1644.121,1716.946,1646.748z"/>
					<path style="fill:#F4A640;" d="M1692.341,1622.295c0,4.249,3.445,7.694,7.694,7.694c4.25,0,7.695-3.445,7.695-7.694
						c0-4.25-3.445-7.694-7.695-7.694C1695.786,1614.601,1692.341,1618.045,1692.341,1622.295z"/>
				</g>
			</g>
			<g>
				<path style="fill:#9CDEDC;" d="M1683.732,1420.752h155.384c6.214,0,11.252-5.037,11.252-11.252v-4.503
					c0-6.215-5.038-11.252-11.252-11.252h-155.384c-6.214,0-11.251,5.037-11.251,11.252v4.503
					C1672.481,1415.715,1677.519,1420.752,1683.732,1420.752z"/>
				<path style="opacity:0.2;fill:#74BDC1;" d="M1681.683,1413.146h159.482c5.083,0,9.203-4.119,9.203-9.201v7.604
					c0,5.082-4.12,9.202-9.203,9.202h-159.482c-5.082,0-9.201-4.12-9.201-9.202v-7.604
					C1672.481,1409.027,1676.601,1413.146,1681.683,1413.146z"/>
				<g style="opacity:0.3;">
					
						<rect x="1838.652" y="1393.745" transform="matrix(-1 -1.224647e-16 1.224647e-16 -1 3679.8174 2814.4971)" style="opacity:0.5;fill:#74BDC1;" width="2.513" height="27.007"/>
					
						<rect x="1824.355" y="1393.745" transform="matrix(-1 -1.224647e-16 1.224647e-16 -1 3651.2236 2814.4971)" style="opacity:0.5;fill:#74BDC1;" width="2.513" height="27.007"/>
					
						<rect x="1810.058" y="1393.745" transform="matrix(-1 -1.224647e-16 1.224647e-16 -1 3622.6279 2814.4971)" style="opacity:0.5;fill:#74BDC1;" width="2.513" height="27.007"/>
					
						<rect x="1795.761" y="1393.745" transform="matrix(-1 -1.224647e-16 1.224647e-16 -1 3594.0342 2814.4971)" style="opacity:0.5;fill:#74BDC1;" width="2.513" height="27.007"/>
					
						<rect x="1781.464" y="1393.745" transform="matrix(-1 -1.224647e-16 1.224647e-16 -1 3565.4404 2814.4971)" style="opacity:0.5;fill:#74BDC1;" width="2.513" height="27.007"/>
					
						<rect x="1767.166" y="1393.745" transform="matrix(-1 -1.224647e-16 1.224647e-16 -1 3536.8447 2814.4971)" style="opacity:0.5;fill:#74BDC1;" width="2.513" height="27.007"/>
					
						<rect x="1752.869" y="1393.745" transform="matrix(-1 -1.224647e-16 1.224647e-16 -1 3508.251 2814.4971)" style="opacity:0.5;fill:#74BDC1;" width="2.513" height="27.007"/>
					
						<rect x="1738.572" y="1393.745" transform="matrix(-1 -1.224647e-16 1.224647e-16 -1 3479.6572 2814.4971)" style="opacity:0.5;fill:#74BDC1;" width="2.513" height="27.007"/>
					
						<rect x="1724.274" y="1393.745" transform="matrix(-1 -1.224647e-16 1.224647e-16 -1 3451.0615 2814.4971)" style="opacity:0.5;fill:#74BDC1;" width="2.513" height="27.007"/>
					
						<rect x="1709.978" y="1393.745" transform="matrix(-1 -1.224647e-16 1.224647e-16 -1 3422.4678 2814.4971)" style="fill:#F4A640;" width="2.513" height="27.007"/>
					
						<rect x="1695.68" y="1393.745" transform="matrix(-1 -1.224647e-16 1.224647e-16 -1 3393.8735 2814.4971)" style="fill:#F4A640;" width="2.513" height="27.007"/>
					
						<rect x="1681.382" y="1393.745" transform="matrix(-1 -1.224647e-16 1.224647e-16 -1 3365.2778 2814.4971)" style="fill:#F4A640;" width="2.513" height="27.007"/>
				</g>
			</g>
		</g>
		<path style="fill:#9ED16F;" d="M816.274,848.509c0,0,9.405-229.366,204.81-306.692s324.979,110.764,347.968,306.692
			l-57.473,24.556l-9.404-24.556c0,0,4.18-301.468-194.622-296.243c-196.546,5.165-234.852,300.945-234.852,300.945
			s-31.349,79.416-33.438,72.101C837.174,917.998,816.274,848.509,816.274,848.509z"/>
		<path style="opacity:0.3;fill:#96A65F;" d="M1532.771,1606.129c-646.437,15.017-649.627-572.768-634.708-757.62H748.757
			c-11.091,0-20.267,8.628-20.95,19.698l-52.273,848.317c-0.745,12.076,8.85,22.28,20.95,22.28h822.139
			c12.1,0,21.694-10.204,20.95-22.28L1532.771,1606.129z"/>
		<g>
			<g>
				<g style="opacity:0.8;">
					<g>
						<path style="fill:#D1EAF2;" d="M1497.186,1315.177v5.906c0,7.063-2.748,13.701-7.739,18.694l-11.021,11.024
							c-9.425,9.431-14.617,21.968-14.617,35.304v286.535c0,33.13,26.941,60.082,60.058,60.082H1651.4
							c33.115,0,60.056-26.952,60.056-60.082v-286.535c0-13.336-5.191-25.873-14.617-35.304h-0.001l-11.019-11.024
							c-4.991-4.993-7.74-11.632-7.74-18.694v-5.906H1497.186z"/>
					</g>
				</g>
				<g>
					<path style="fill:#62BDF3;" d="M1477.225,1424.817v233.773c0,31.062,24.71,56.241,55.19,56.241h39.844h29.987h39.845
						c30.481,0,55.191-25.18,55.191-56.241v-235.597L1477.225,1424.817z"/>
					<path style="fill:#3797DB;" d="M1679.62,1405.799c-23.205-0.829-78.313,16.988-100.274,17.817
						c-21.96,0.828-45.579-14.917-76.242-12.432c-21.689,1.759-25.644,9.323-26.101,13.6c-0.188,1.769,0.703,3.473,2.243,4.364
						c3.936,2.285,14.066,6.462,34.216,5.24c27.348-1.657,70.026,19.89,93.23,21.961c21.503,1.92,63.022-2.209,85.605-23.27
						c4.829-4.504,6.756-11.472,4.308-17.604C1694.682,1410.656,1690.062,1406.172,1679.62,1405.799z"/>
				</g>
				<g>
					<path style="fill:#D1EAF2;" d="M1650.399,1738.805h-126.302c-37.296,0-67.639-30.343-67.639-67.639v-283.645
						c0-15.382,5.99-29.843,16.866-40.72l10.915-10.914c3.401-3.4,5.273-7.923,5.273-12.733v-14.01h195.471v14.01
						c0,4.812,1.873,9.333,5.274,12.733l10.913,10.914c10.876,10.877,16.867,25.337,16.867,40.72v283.645
						C1718.038,1708.462,1687.694,1738.805,1650.399,1738.805z M1497.676,1317.309v5.846c0,6.991-2.722,13.563-7.665,18.506
						l-10.913,10.914c-9.335,9.334-14.476,21.746-14.476,34.947v283.645c0,32.795,26.681,59.476,59.476,59.476h126.302
						c32.794,0,59.475-26.681,59.475-59.476v-283.645c0-13.201-5.141-25.613-14.476-34.948h0l-10.913-10.913
						c-4.943-4.941-7.666-11.515-7.666-18.506v-5.846H1497.676z"/>
				</g>
				<g style="opacity:0.5;">
					<path style="fill:#D1EAF2;" d="M1499.511,1552.688c-3.947,0.032-7.17-3.139-7.199-7.085
						c-0.225-30.807-1.006-148.52,0.082-160.806c1.084-12.254,12.441-19.599,20.448-23.291c3.954-1.822,8.601,0.327,9.817,4.508
						l0.006,0.02c0.986,3.39-0.654,6.978-3.853,8.473c-5.531,2.585-11.768,6.79-12.188,11.551
						c-0.892,10.084-0.434,104.844-0.026,159.441C1506.626,1549.44,1503.454,1552.656,1499.511,1552.688L1499.511,1552.688z"/>
				</g>
				<g>
					<path style="fill:#3797DB;" d="M1544.559,1670.136c0,8.017-6.497,14.514-14.513,14.514c-8.015,0-14.513-6.497-14.513-14.514
						c0-8.015,6.498-14.513,14.513-14.513C1538.062,1655.623,1544.559,1662.121,1544.559,1670.136z"/>
					<path style="fill:#3797DB;" d="M1557.862,1627.202c0,4.175-3.384,7.559-7.559,7.559c-4.175,0-7.558-3.384-7.558-7.559
						s3.383-7.558,7.558-7.558C1554.478,1619.645,1557.862,1623.027,1557.862,1627.202z"/>
					<path style="fill:#3797DB;" d="M1608.84,1674.369c0,4.175-3.384,7.559-7.559,7.559s-7.559-3.384-7.559-7.559
						c0-4.174,3.384-7.559,7.559-7.559S1608.84,1670.195,1608.84,1674.369z"/>
					<path style="fill:#3797DB;" d="M1533.372,1624.848c0,1.067-0.866,1.933-1.934,1.933s-1.933-0.865-1.933-1.933
						c0-1.068,0.865-1.935,1.933-1.935S1533.372,1623.779,1533.372,1624.848z"/>
					<path style="fill:#3797DB;" d="M1642.408,1645.407c0,1.396-1.131,2.526-2.526,2.526c-1.396,0-2.527-1.131-2.527-2.526
						c0-1.396,1.132-2.527,2.527-2.527C1641.276,1642.88,1642.408,1644.011,1642.408,1645.407z"/>
					<path style="fill:#3797DB;" d="M1621.054,1603.014c0,2.506-2.03,4.536-4.535,4.536c-2.505,0-4.536-2.03-4.536-4.536
						c0-2.504,2.031-4.534,4.536-4.534C1619.023,1598.479,1621.054,1600.51,1621.054,1603.014z"/>
					<path style="fill:#3797DB;" d="M1535.973,1573.448c0,2.505-2.03,4.535-4.535,4.535c-2.505,0-4.535-2.03-4.535-4.535
						s2.03-4.535,4.535-4.535C1533.943,1568.913,1535.973,1570.943,1535.973,1573.448z"/>
					<path style="fill:#3797DB;" d="M1545.536,1582.544c0,0.957-0.776,1.733-1.733,1.733c-0.958,0-1.733-0.776-1.733-1.733
						s0.775-1.733,1.733-1.733C1544.76,1580.811,1545.536,1581.587,1545.536,1582.544z"/>
					<path style="fill:#3797DB;" d="M1527.221,1592.839c0,2.681-2.173,4.853-4.853,4.853c-2.681,0-4.853-2.172-4.853-4.853
						c0-2.68,2.172-4.853,4.853-4.853C1525.048,1587.986,1527.221,1590.159,1527.221,1592.839z"/>
					<path style="fill:#3797DB;" d="M1677.987,1641.203c0,7.964-6.458,14.42-14.421,14.42c-7.966,0-14.421-6.456-14.421-14.42
						c0-7.966,6.456-14.423,14.421-14.423C1671.53,1626.78,1677.987,1633.237,1677.987,1641.203z"/>
					<path style="fill:#3797DB;" d="M1645.378,1616.809c0,3.48-2.822,6.304-6.303,6.304s-6.304-2.823-6.304-6.304
						c0-3.481,2.823-6.304,6.304-6.304S1645.378,1613.327,1645.378,1616.809z"/>
					<path style="fill:#3797DB;" d="M1677.987,1584.401c0,5.632-4.566,10.197-10.198,10.197c-5.631,0-10.197-4.565-10.197-10.197
						s4.566-10.198,10.197-10.198C1673.421,1574.203,1677.987,1578.77,1677.987,1584.401z"/>
				</g>
			</g>
			<g>
				<path style="fill:#7772D6;" d="M1689.946,1317.309h-207.022c-7.931,0-14.36-6.431-14.36-14.361v-7.069
					c0-7.931,6.429-14.36,14.36-14.36h207.022c7.931,0,14.36,6.43,14.36,14.36v7.069
					C1704.306,1310.878,1697.877,1317.309,1689.946,1317.309z"/>
				<path style="fill:#7772D6;" d="M1692.111,1307.229h-211.353c-6.735,0-12.195-5.46-12.195-12.195v10.079
					c0,6.735,5.46,12.195,12.195,12.195h211.353c6.735,0,12.195-5.46,12.195-12.195v-10.079
					C1704.306,1301.77,1698.846,1307.229,1692.111,1307.229z"/>
				<g style="opacity:0.3;">
					<rect x="1480.758" y="1281.518" style="fill:#7772D6;" width="3.331" height="35.791"/>
					<rect x="1499.705" y="1281.518" style="fill:#7772D6;" width="3.33" height="35.791"/>
					<rect x="1518.652" y="1281.518" style="fill:#7772D6;" width="3.331" height="35.791"/>
					<rect x="1537.601" y="1281.518" style="fill:#7772D6;" width="3.33" height="35.791"/>
					<rect x="1556.548" y="1281.518" style="fill:#7772D6;" width="3.33" height="35.791"/>
					<rect x="1575.495" y="1281.518" style="fill:#7772D6;" width="3.331" height="35.791"/>
					<rect x="1594.442" y="1281.518" style="fill:#7772D6;" width="3.331" height="35.791"/>
					<rect x="1613.389" y="1281.518" style="fill:#7772D6;" width="3.33" height="35.791"/>
					<rect x="1632.337" y="1281.518" style="fill:#7772D6;" width="3.33" height="35.791"/>
					<rect x="1651.284" y="1281.518" style="fill:#7772D6;" width="3.33" height="35.791"/>
					<rect x="1670.231" y="1281.518" style="fill:#7772D6;" width="3.33" height="35.791"/>
					<rect x="1689.178" y="1281.518" style="fill:#7772D6;" width="3.331" height="35.791"/>
				</g>
			</g>
		</g>
		<g>
			<g>
				<polygon style="fill:#3B77BE;" points="1212.486,1262.34 1314.801,1214.313 1367.003,1309.321 1370.658,1331.769 
					1345.079,1391.801 1269.424,1377.429 				"/>
				<path style="fill:#3797DB;" d="M1175.944,1369.876h129.548c22.586,0,43.946-11.764,54.773-31.586
					c4.445-8.139,7.326-17.811,6.739-28.969c0,0,48.026,145.122-64.73,163.915h-126.329v21.402l-69.951-67.863l70.473-75.691
					L1175.944,1369.876z"/>
			</g>
			<g>
				<polygon style="fill:#3B77BE;" points="1054.583,1372.662 1048.216,1485.51 939.814,1486.291 918.328,1478.839 
					877.663,1427.805 926.261,1368.068 				"/>
				<path style="fill:#3797DB;" d="M977.331,1289.407l-61.564,113.985c-10.733,19.872-10.533,44.257,1.762,63.203
					c5.048,7.778,12.189,14.909,22.286,19.695c0,0-150.51-26.708-113.461-134.85l60.035-111.152l-18.832-10.171l92.952-29.298
					l33.109,97.978L977.331,1289.407z"/>
			</g>
			<g>
				<polygon style="fill:#3B77BE;" points="1048.23,1201.488 951.119,1143.656 1000.559,1047.183 1017.102,1031.577 
					1081.157,1019.124 1111.647,1089.839 				"/>
				<path style="fill:#3797DB;" d="M1157.773,1171.497l-72.592-107.3c-12.656-18.706-34.369-29.806-56.854-27.666
					c-9.231,0.879-18.856,3.912-27.769,10.651c0,0,93.286-121.097,172.035-38.236l70.789,104.633l17.727-11.993l-17.011,95.964
					l-102.183-15.955L1157.773,1171.497z"/>
			</g>
		</g>
		<path style="fill:#62BDF3;" d="M2069.832,1739.046H217.264c-3.213,0-5.818-2.605-5.818-5.818l0,0c0-3.214,2.605-5.818,5.818-5.818
			h1852.568c3.213,0,5.817,2.604,5.817,5.818l0,0C2075.649,1736.44,2073.045,1739.046,2069.832,1739.046z"/>
		<path style="opacity:0.9;fill:#D1EAF2;" d="M679.521,373.699c2.618-11.395,12.814-19.895,25.004-19.895
			c2.237,0,4.408,0.288,6.477,0.826c6.016-12.864,19.071-21.779,34.211-21.779c3.914,0,7.689,0.596,11.239,1.702
			c8.15-13.496,22.958-22.52,39.874-22.52c20.126,0,37.268,12.773,43.763,30.656c4.598-2.564,9.891-4.029,15.528-4.029
			c17.641,0,31.942,14.301,31.942,31.942c0,1.046-0.054,2.079-0.152,3.099H679.521z"/>
		<path style="opacity:0.9;fill:#D1EAF2;" d="M1814.941,673.994c2.607-11.352,12.768-19.822,24.91-19.822
			c2.229,0,4.393,0.287,6.454,0.823c5.993-12.817,19.001-21.699,34.085-21.699c3.9,0,7.662,0.594,11.199,1.695
			c8.119-13.446,22.872-22.438,39.727-22.438c20.052,0,37.13,12.726,43.602,30.542c4.581-2.554,9.854-4.014,15.471-4.014
			c17.577,0,31.825,14.248,31.825,31.824c0,1.042-0.054,2.071-0.152,3.088H1814.941z"/>
		<path style="opacity:0.9;fill:#D1EAF2;" d="M268.428,725.28c2.608-11.353,12.767-19.822,24.912-19.822
			c2.229,0,4.392,0.287,6.454,0.823c5.994-12.817,19.001-21.699,34.085-21.699c3.9,0,7.661,0.594,11.198,1.695
			c8.12-13.446,22.873-22.438,39.727-22.438c20.052,0,37.131,12.727,43.602,30.542c4.581-2.554,9.854-4.014,15.471-4.014
			c17.576,0,31.824,14.249,31.824,31.824c0,1.042-0.054,2.072-0.151,3.088H268.428z"/>
		<path style="opacity:0.9;fill:#D1EAF2;" d="M1731.864,548.12c1.022-4.452,5.007-7.773,9.769-7.773
			c0.874,0,1.722,0.112,2.531,0.322c2.35-5.026,7.451-8.509,13.367-8.509c1.529,0,3.004,0.233,4.391,0.664
			c3.185-5.273,8.97-8.799,15.579-8.799c7.864,0,14.562,4.991,17.099,11.978c1.796-1.002,3.864-1.574,6.067-1.574
			c6.892,0,12.479,5.587,12.479,12.48c0,0.409-0.021,0.813-0.06,1.211H1731.864z"/>
		<path style="opacity:0.9;fill:#FFFFFF;" d="M455.486,596.845c1.023-4.452,5.007-7.773,9.769-7.773
			c0.875,0,1.722,0.113,2.531,0.323c2.35-5.026,7.452-8.509,13.367-8.509c1.529,0,3.004,0.232,4.392,0.665
			c3.184-5.273,8.969-8.799,15.579-8.799c7.863,0,14.561,4.99,17.099,11.977c1.796-1.001,3.864-1.574,6.067-1.574
			c6.893,0,12.48,5.587,12.48,12.48c0,0.409-0.021,0.813-0.06,1.211H455.486z"/>
		<path style="opacity:0.9;fill:#D1EAF2;" d="M1075.59,439.549c1.453-6.322,7.11-11.039,13.873-11.039
			c1.242,0,2.446,0.16,3.594,0.458c3.337-7.138,10.582-12.083,18.982-12.083c2.171,0,4.266,0.33,6.236,0.944
			c4.522-7.488,12.738-12.495,22.124-12.495c11.167,0,20.678,7.087,24.281,17.009c2.551-1.422,5.488-2.236,8.616-2.236
			c9.789,0,17.723,7.935,17.723,17.723c0,0.58-0.03,1.153-0.084,1.719H1075.59z"/>
		<path style="fill:#EFAC7F;" d="M1234.889,744.463c-0.2,0.017-0.392,0.035-0.578,0.053c0.002,0.2,0.003,0.317,0.003,0.317
			l3.096,3.638c0.537,0.115,0.875,0.18,0.875,0.18s6.02-0.244,9.63,1.559C1251.526,752.013,1247.571,743.383,1234.889,744.463z"/>
		<path style="fill:#FFFFFF;" d="M1109,793.264c-1.602,3.491-3.245,6.962-4.93,10.41c-1.674,3.454-3.39,6.887-5.099,10.322
			l-5.192,10.272l-2.604,5.132c-0.875,1.708-1.735,3.421-2.524,5.172c1.282-3.626,2.898-7.122,4.509-10.605
			c1.617-3.484,3.312-6.929,5.023-10.366c1.726-3.429,3.476-6.847,5.275-10.237C1105.248,799.967,1107.095,796.6,1109,793.264z"/>
		<g>
			<path style="fill:#FFFFFF;" d="M1081.393,834.843c4.802-0.711,9.676-0.895,14.535-0.802c4.861,0.107,9.718,0.553,14.52,1.345
				c4.8,0.805,9.543,1.942,14.173,3.445l3.444,1.223c0.286,0.112,0.573,0.186,0.858,0.331l0.825,0.386l1.642,0.789
				c1.086,0.541,2.167,1.095,3.236,1.672c1.068,0.575,2.125,1.178,3.133,1.853c-2.124-1.169-4.329-2.171-6.551-3.132l-1.667-0.72
				l-0.836-0.352c-0.26-0.121-0.567-0.191-0.849-0.288l-3.444-1.106c-4.634-1.357-9.344-2.448-14.108-3.231
				c-4.761-0.804-9.576-1.283-14.402-1.531c-2.415-0.095-4.832-0.183-7.251-0.153
				C1086.231,834.567,1083.811,834.659,1081.393,834.843z"/>
		</g>
		<path style="fill:#EFAC7F;" d="M1147.276,847.611c-5.016-2.988-11.418-3-16.638-2.241c-0.253,0.051-0.507,0.101-0.761,0.155
			c-4.098,0.862-3.941,3.1-3.637,4.119c0.091,0.308,0.389,0.521,0.733,0.535c0.636,0.024,1.451,0.074,2.553,0.2
			c6.415,0.733-0.044,8.12,2.46,8.242c3.164,0.155,2.57-6.777,4.218-6.593c3.101,0.344-0.857,6.349,1.186,6.776
			c2.236,0.468,0.653-6.996,4.218-6.654c1.911,0.183-0.743,6.878,1.516,6.471c2.373-0.427,0.593-6.471,2.768-6.289
			c3.219,0.272-0.988,6.065,1.384,6.472C1148.702,859.049,1150.831,849.728,1147.276,847.611z"/>
		<path style="fill:#D19369;" d="M1169.826,745.66c-1.378,3.005-0.547,6.336,1.858,7.439c2.404,1.103,5.472-0.439,6.85-3.445
			c1.378-3.006,0.547-6.336-1.858-7.439C1174.271,741.111,1171.205,742.654,1169.826,745.66z"/>
		<path style="fill:#EFAC7F;" d="M1168.179,763.519c0.818-1.287,1.522-2.659,2.101-4.102c1.634-3.873,2.554-8.019,3.064-11.648
			c0.11-0.779,0.264-1.549,0.433-2.317c0.682-3.102,0.813-6.416,0.225-9.854c-1.889-11.065-10.998-19.732-22.146-21.042
			c-15.019-1.766-27.986,9.591-28.619,24.296c-1.561-0.957-3.348-1.239-4.958-0.602c-3.091,1.225-4.356,5.349-2.826,9.213
			c1.53,3.863,5.277,6.003,8.368,4.779c0.429-0.17,0.819-0.401,1.175-0.674c0.737,12.568,10.574,22.668,22.878,22.993
			c6.018,0.159,11.568-2.05,15.836-5.809c0.284-0.218,0.583-0.474,0.9-0.774C1165.995,766.664,1167.171,765.149,1168.179,763.519z"
			/>
		<path style="fill:#333333;" d="M1146.089,742.057c-0.033,1.233-1.059,2.206-2.292,2.173s-2.205-1.059-2.173-2.292
			c0.033-1.232,1.059-2.206,2.292-2.173C1145.148,739.798,1146.121,740.824,1146.089,742.057z"/>
		<path style="fill:#333333;" d="M1165.224,743.821c-0.032,1.233-1.058,2.206-2.291,2.173c-1.233-0.033-2.206-1.059-2.173-2.291
			c0.033-1.233,1.059-2.206,2.292-2.173S1165.257,742.588,1165.224,743.821z"/>
		<path style="fill:#282828;" d="M1148.9,737.701c-1.082-0.477-2.116-0.866-3.158-1.139c-1.038-0.273-2.075-0.407-3.1-0.38
			c-1.021,0.038-2.055,0.164-3.064,0.522l-0.389,0.11c-0.129,0.039-0.249,0.104-0.378,0.149l-0.773,0.3
			c-0.52,0.21-1.01,0.49-1.584,0.693c0.339-0.478,0.718-0.944,1.146-1.361c0.468-0.361,0.908-0.803,1.463-1.062
			c1.046-0.639,2.307-0.941,3.551-0.978c1.251-0.031,2.5,0.267,3.586,0.817C1147.278,735.934,1148.248,736.698,1148.9,737.701z"/>
		<path style="fill:#282828;" d="M1157.87,738.396c0.799-0.89,1.875-1.496,3.026-1.884c1.158-0.377,2.437-0.477,3.67-0.254
			c1.224,0.228,2.422,0.721,3.358,1.514c0.509,0.341,0.875,0.845,1.282,1.274c0.359,0.479,0.662,0.997,0.922,1.522
			c-0.536-0.29-0.976-0.642-1.458-0.929l-0.717-0.416c-0.121-0.064-0.229-0.147-0.351-0.206l-0.368-0.168
			c-0.942-0.51-1.945-0.793-2.947-0.989c-1.009-0.185-2.054-0.213-3.122-0.102C1160.094,737.867,1159.012,738.092,1157.87,738.396z"
			/>
		<path style="fill:#D19369;" d="M1153.44,740.208c0.786,1.202,1.461,2.465,2.077,3.757c0.618,1.293,1.162,2.622,1.595,4.007
			c0.202,0.698,0.386,1.406,0.455,2.171c0.01,0.194,0.013,0.393-0.006,0.602c-0.009,0.104-0.036,0.218-0.055,0.325
			c-0.043,0.118-0.069,0.232-0.15,0.352c-0.041,0.06-0.084,0.119-0.13,0.175l-0.109,0.1c-0.073,0.065-0.143,0.134-0.22,0.192
			c-0.154,0.111-0.305,0.229-0.464,0.324c-0.628,0.405-1.295,0.699-1.971,0.955c-0.679,0.246-1.367,0.458-2.072,0.596
			c1.274-0.645,2.559-1.285,3.645-2.113c0.139-0.101,0.257-0.216,0.383-0.325l0.171-0.171l0.083-0.084
			c0.005-0.018,0.012-0.032,0.021-0.045c0.082-0.14,0.084-0.498,0.042-0.808c-0.081-0.651-0.258-1.328-0.466-1.992
			c-0.4-1.338-0.9-2.663-1.383-3.996C1154.394,742.901,1153.896,741.569,1153.44,740.208z"/>
		<path style="fill:#282828;" d="M1133.124,707.204c0,0,7.732-5.72,24.074-3.344c16.343,2.376,18.76,11.486,18.678,24.202
			l-1.526,13.822c0,0-4.542-3.74-9.089-16.754c0,0-10.05,9.898-13.953,8.305c-3.904-1.594,2.231-8.811,2.231-8.811
			s-19.279,15.326-30.313,14.39c0,0-5.069-20.191,3.701-26.663c0,0-6.199-0.205-6.425-1.486c-0.227-1.281,3.196-2.888,9.074-1.689
			c0,0-3.544-8.893-1.111-9.586C1130.897,698.897,1133.124,707.204,1133.124,707.204z"/>
		<path style="fill:#FFFFFF;" d="M1158.751,759.153c-1.014,2.608-4.425,4.259-8.227,3.795c-3.802-0.463-6.718-2.884-7.074-5.66
			L1158.751,759.153z"/>
		<g>
			<polygon style="fill:#EFAC7F;" points="1419.372,1711.872 1419.372,1699.907 1405.685,1696.117 1402.639,1697.455 
				1402.119,1711.872 1406.43,1724.435 			"/>
			<g>
				<polygon style="fill:#EFAC7F;" points="1331.909,1711.872 1331.909,1699.907 1318.222,1696.117 1315.176,1697.455 
					1314.656,1711.872 1318.966,1724.435 				"/>
				<path style="fill:#7772D6;" d="M1319.879,1323.168c0,0-17.958,21.337-60.25,25.102c-42.292,3.764-10.628,26.096-10.628,26.096
					s50.966,7.339,68.772-4.618C1335.578,1357.79,1319.879,1323.168,1319.879,1323.168z"/>
				<polygon style="fill:#45258F;" points="1302.143,1466.51 1311.854,1703.214 1334.471,1703.214 1354.399,1524.302 
					1328.271,1444.146 				"/>
				<path style="fill:#45258F;" d="M1311.854,1467.013l88.601,236.201l21.7-1.772c0,0-27.014-216.553-43.178-237.146
					c-16.164-20.593-51.592-16.164-51.592-16.164L1311.854,1467.013z"/>
				<path style="fill:#282828;" d="M1361.29,1283.016c0,0,4.71-24.438-9.057-33.032c-13.767-8.595-27.953-7.075-37.434-1.29
					c-9.482,5.786-14.56,24.956-9.804,35.634l31.765-11.499L1361.29,1283.016z"/>
				<path style="fill:#EFAC7F;" d="M1321.687,1323.385c0,0,10.945,6.487,19.472,0l0,0l-2.011-15.835l-16.964-3.496
					L1321.687,1323.385L1321.687,1323.385z"/>
				<path style="fill:#D19369;" d="M1310.456,1282.514c0.978,2.979-0.224,6.01-2.684,6.769c-2.461,0.759-5.249-1.041-6.226-4.021
					c-0.979-2.979,0.224-6.01,2.684-6.769C1306.691,1277.733,1309.479,1279.534,1310.456,1282.514z"/>
				<path style="fill:#EFAC7F;" d="M1309.927,1299.465c-0.64-1.302-1.159-2.671-1.548-4.091c-1.122-3.822-1.519-7.82-1.582-11.285
					c-0.013-0.744-0.071-1.483-0.144-2.225c-0.291-2.989-0.024-6.114,0.955-9.274c3.147-10.167,13.002-17.254,23.957-17.203
					c14.759,0.069,25.969,12.218,24.833,26.093c1.626-0.72,3.391-0.779,4.875,0.005c2.849,1.504,3.583,5.521,1.641,8.972
					c-1.942,3.449-5.826,5.027-8.674,3.523c-0.396-0.209-0.747-0.471-1.059-0.768c-2.208,11.71-12.939,20.058-24.899,18.949
					c-5.848-0.542-10.962-3.254-14.649-7.271c-0.249-0.237-0.508-0.513-0.778-0.829
					C1311.668,1302.667,1310.709,1301.111,1309.927,1299.465z"/>
				<path style="fill:#333333;" d="M1332.241,1282.148c-0.115,1.16,0.763,2.191,1.96,2.303c1.198,0.111,2.263-0.74,2.378-1.9
					c0.116-1.16-0.762-2.191-1.961-2.303C1333.42,1280.137,1332.356,1280.988,1332.241,1282.148z"/>
				<path style="fill:#333333;" d="M1315.133,1281.316c-0.115,1.161,0.763,2.192,1.961,2.304c1.198,0.11,2.262-0.74,2.377-1.901
					c0.115-1.16-0.763-2.191-1.961-2.303C1316.313,1279.305,1315.248,1280.156,1315.133,1281.316z"/>
				<path style="fill:#282828;" d="M1330.036,1277.737c1.104-0.324,2.152-0.571,3.193-0.708c1.039-0.139,2.059-0.145,3.05-0.002
					c0.984,0.154,1.972,0.391,2.907,0.844l0.364,0.148c0.121,0.051,0.228,0.126,0.348,0.184l0.713,0.371
					c0.479,0.258,0.919,0.577,1.45,0.834c-0.271-0.486-0.583-0.967-0.949-1.408c-0.411-0.393-0.784-0.857-1.292-1.163
					c-0.938-0.719-2.122-1.147-3.322-1.324c-1.208-0.173-2.453-0.038-3.57,0.354
					C1331.817,1276.269,1330.787,1276.873,1330.036,1277.737z"/>
				<path style="fill:#282828;" d="M1322.903,1277.071c-0.669-0.927-1.64-1.617-2.709-2.113c-1.077-0.486-2.303-0.728-3.523-0.659
					c-1.212,0.073-2.431,0.396-3.432,1.033c-0.535,0.261-0.949,0.691-1.395,1.047c-0.404,0.408-0.76,0.859-1.076,1.321
					c0.553-0.211,1.022-0.491,1.522-0.706l0.745-0.309c0.125-0.047,0.239-0.111,0.364-0.153l0.376-0.115
					c0.974-0.371,1.979-0.522,2.975-0.59c1-0.058,2.016,0.036,3.038,0.264C1320.812,1276.316,1321.833,1276.653,1322.903,1277.071z"
					/>
				<path style="fill:#D19369;" d="M1326.315,1277.019c0.332,1.49,0.408,3.015,0.301,4.545c-0.056,0.768-0.173,1.533-0.382,2.306
					c-0.224,0.766-0.514,1.549-1.127,2.267l-0.262,0.254l-0.234,0.217c-0.098,0.104-0.238,0.185-0.311,0.299
					c-0.189,0.207-0.319,0.439-0.39,0.688c-0.174,0.496,0.001,1.079,0.32,1.619c0.697,1.096,2.073,1.818,3.545,2.298
					c-1.54,0.105-3.302-0.291-4.483-1.628c-0.577-0.646-0.963-1.608-0.763-2.584c0.049-0.24,0.119-0.477,0.239-0.688
					c0.096-0.229,0.243-0.417,0.39-0.606c0.139-0.201,0.33-0.331,0.497-0.496c0.106-0.091,0.125-0.122,0.179-0.176l0.146-0.142
					c0.383-0.433,0.666-1.07,0.906-1.718c0.256-0.652,0.397-1.364,0.581-2.068
					C1325.781,1279.978,1326.029,1278.512,1326.315,1277.019z"/>
				<path style="fill:#FFFFFF;" d="M1319.581,1294.45c0.73,2.587,3.919,4.499,7.709,4.434c3.789-0.065,6.906-2.087,7.542-4.698
					L1319.581,1294.45z"/>
				<path style="fill:#282828;" d="M1355.762,1282.235c1.427-1.334,2.562-1.283,2.562-1.283l-0.974-7.808l-2.618-4.625
					c0,0-10.032-12.326-10.38-12.629s-7.786-4.125-8.242-4.318s-10.591,1.743-10.591,1.743s-18.072-2.964-14.681,6.294
					c3.392,9.257,16.675,13.662,17.332,13.219c-2.209-2.018-2.66-7.979-2.66-7.979
					C1335.172,1274.541,1352.988,1281.232,1355.762,1282.235z"/>
				<g>
					<path style="fill:#3797DB;" d="M1295.35,1727.409l37.758-0.024c1.135,0,2.055-0.921,2.054-2.056v-0.104
						c-0.001-1.135-0.922-2.055-2.057-2.054l-37.758,0.023c-1.135,0-2.054,0.921-2.054,2.057v0.104
						C1293.294,1726.49,1294.215,1727.41,1295.35,1727.409z"/>
					<path style="fill:#45258F;" d="M1333.236,1710.371l1.395,11.718c0.172,1.444-0.636,2.758-1.698,2.759l-36.895,0.022
						c-0.958,0.001-1.906-0.597-2.41-1.722c-0.517-1.152-0.621-2.889,1.029-5.225c3.208-4.541,13.551-5.75,19-9.479
						c0.314-0.215,0.685-0.329,1.066-0.329l16.579-0.01C1332.262,1708.105,1333.08,1709.064,1333.236,1710.371z"/>
				</g>
				<g>
					<path style="fill:#3797DB;" d="M1382.344,1727.409l37.757-0.024c1.135,0,2.055-0.921,2.054-2.056v-0.104
						c-0.001-1.135-0.921-2.055-2.058-2.054l-37.757,0.023c-1.135,0-2.055,0.921-2.054,2.057l0,0.104
						C1380.288,1726.49,1381.209,1727.41,1382.344,1727.409z"/>
					<path style="fill:#45258F;" d="M1420.229,1710.371l1.395,11.718c0.172,1.444-0.636,2.758-1.698,2.759l-36.895,0.022
						c-0.958,0.001-1.907-0.597-2.411-1.722c-0.517-1.152-0.621-2.889,1.029-5.225c3.207-4.541,13.551-5.75,19.001-9.479
						c0.313-0.215,0.685-0.329,1.065-0.329l16.578-0.01C1419.255,1708.105,1420.074,1709.064,1420.229,1710.371z"/>
				</g>
				<path style="fill:#D1EAF2;" d="M1186.109,1340.666l1.352-0.263l75.44-14.666c8.202-1.595,16.044,4.079,17.094,12.369
					l23.074,182.109c0.768,6.061-2.345,11.952-7.8,14.706c-12.486,6.301-36.83,17.138-66.25,22.857
					c-29.42,5.72-56.051,4.792-69.989,3.628c-6.089-0.509-11.182-4.806-12.741-10.712l-46.836-177.491
					c-2.132-8.079,3.013-16.276,11.215-17.872L1186.109,1340.666z"/>
				<path style="fill:#45258F;" d="M1087.563,1334.89c0.567-7.62,4.666-13.392,10.287-14.484l81.25-15.796l1.352-0.263
					l81.249-15.796c5.621-1.092,11.584,2.724,14.964,9.575l11.265,22.837c3.16,6.407-0.637,14.064-7.648,15.428l-90.192,17.534
					l-1.352,0.263l-90.191,17.534c-7.013,1.363-13.401-4.314-12.872-11.438L1087.563,1334.89z"/>
				<path style="fill:#45258F;" d="M1095.429,1307.311c-0.653-3.36,1.542-6.614,4.902-7.268l75.044-14.59l1.352-0.263l75.044-14.589
					c3.36-0.653,6.615,1.541,7.268,4.901l3.549,18.254l-82.804,10.764l-80.806,21.044L1095.429,1307.311z"/>
				<path style="fill:#62BDF3;" d="M1290.392,1370.242l9.026,83.064c0.153,1.412-0.583,2.768-1.857,3.395
					c-8.467,4.169-41.52,19.581-82.825,27.611c-41.304,8.03-77.724,6.124-87.137,5.431c-1.416-0.104-2.606-1.085-2.993-2.45
					l-22.752-80.397c-0.615-2.175,1.025-4.335,3.285-4.299c41.739,0.658,142.144-18.861,180.596-35.109
					C1287.817,1366.607,1290.148,1367.994,1290.392,1370.242z"/>
				
					<ellipse transform="matrix(0.0992 -0.9951 0.9951 0.0992 -336.0458 2498.7825)" style="fill:#D1EAF2;" cx="1212.091" cy="1434.994" rx="33.14" ry="33.14"/>
				<path style="fill:#FFC0BB;" d="M1242.221,1403.559c0.399,0.354,0.251,1.014-0.265,1.152c-3.993,1.082-16.536,4.565-16.493,5.644
					c0.052,1.282,11.336-1.557,11.998-0.564c0.66,0.992-10.417,3.483-10.139,4.845c0.277,1.362,10.301-1.248,10.618-0.715
					c0.316,0.533-9.02,4.061-9.337,4.96c-0.318,0.898,10.107-1.653,10.676-1.116c0.569,0.538-6.041,4.692-5.75,5.301
					c0.291,0.607,0.383,1.063,17.94-4.027l6.827-2.299l4.561-4.886l-3.414-7.273c0,0-21.991-8.36-22.78-7.796
					C1235.911,1397.32,1236.068,1398.103,1242.221,1403.559z"/>
				<path style="fill:#7772D6;" d="M1255.866,1395.654c8.673,2.071,29.08,1.039,44.54-0.176c0.125-12.785,0.615-24.685,1.737-33.038
					c3.986-29.671,17.736-39.272,17.736-39.272c13.707,1.63,23.227-5.677,23.227-5.677c18.379,0.222,29.007,10.186,29.007,10.186
					c28.235,24.354,6.864,74.178,6.864,74.178l7.75,65.825c-17.493,5.979-89.013,2.385-89.013,2.385s3.497-20.964,2.985-42.299
					c-22.667-1.271-44.833-4.877-44.833-4.877C1254.98,1418.018,1255.866,1395.654,1255.866,1395.654z"/>
				<path style="fill:#45258F;" d="M1350.267,1351.296c0.046,9.854-4.272,19.349-11.089,26.124
					c-3.406,3.411-7.362,6.253-11.631,8.509c-4.268,2.253-8.772,4.11-13.458,5.396c-0.582,0.17-1.154,0.374-1.743,0.522l-1.77,0.435
					c-1.182,0.282-2.356,0.6-3.545,0.854l-3.589,0.674l-1.794,0.337l-1.81,0.251c-2.414,0.345-4.826,0.712-7.263,0.888l-3.647,0.338
					c-1.218,0.092-2.44,0.138-3.66,0.208c-9.768,0.508-19.584,0.319-29.403-0.177c9.745,1.268,19.595,1.98,29.464,1.731
					c9.851-0.27,19.779-1.322,29.322-4.15c4.78-1.354,9.417-3.268,13.795-5.655c4.355-2.423,8.444-5.413,11.849-9.088
					c1.73-1.807,3.233-3.822,4.587-5.918c1.302-2.135,2.422-4.37,3.31-6.697c0.839-2.344,1.468-4.756,1.838-7.203
					C1350.404,1356.23,1350.543,1353.742,1350.267,1351.296z"/>
				<path style="fill:#45258F;" d="M1255.866,1422.889c10.701,2.398,21.587,3.996,32.528,4.963
					c10.942,0.968,21.967,1.255,32.965,0.578c10.97-0.75,22.012-2.385,32.412-6.248c5.187-1.913,10.185-4.457,14.6-7.81
					c4.378-3.371,8.177-7.585,10.606-12.518c-2.824,4.707-6.698,8.684-11.182,11.729c-4.456,3.092-9.421,5.385-14.549,7.134
					c-5.135,1.746-10.436,3.004-15.797,3.899c-5.361,0.904-10.781,1.496-16.218,1.826c-10.878,0.709-21.815,0.511-32.722-0.135
					c-5.455-0.338-10.906-0.791-16.347-1.364C1266.716,1424.408,1261.287,1423.699,1255.866,1422.889z"/>
			</g>
		</g>
		<g>
			<path style="fill:#45258F;" d="M422.755,630.153l11.168,46.513l22.592-35.059l77.279-86.196l-71.79,35.469
				c0,0-34.362,23.808-35.699,26.455C424.968,619.982,422.755,630.153,422.755,630.153z"/>
			<polygon style="fill:#7772D6;" points="380.986,616.109 533.806,555.974 423.818,630.008 			"/>
			<polygon style="fill:#7772D6;" points="489.634,655.518 436.555,638.567 533.794,555.411 			"/>
		</g>
		<g>
			<g>
				<g>
					<path style="fill:#7772D6;" d="M325.511,939.902l0.871-3.769c-3.905-0.902-7.731-2.378-11.375-4.386l-1.867,3.387
						C317.096,937.315,321.258,938.919,325.511,939.902z"/>
				</g>
				<g>
					<path style="fill:#7772D6;" d="M280.683,896.667l3.492-1.662c3.811,8.006,8.104,15.032,12.758,20.885l-3.027,2.407
						C289.069,912.216,284.62,904.938,280.683,896.667z M270.895,869.815c-0.88-3.667-1.569-7.448-2.048-11.238
						c-0.442-3.489-0.715-7.069-0.813-10.64l3.867-0.106c0.094,3.445,0.357,6.896,0.783,10.261c0.462,3.65,1.126,7.291,1.973,10.821
						c0.249,1.038,0.514,2.071,0.795,3.1l-3.732,1.02C271.423,871.947,271.146,870.864,270.895,869.815z M270.06,822.703
						c1.471-8.006,3.745-16.197,6.76-24.343l3.626,1.342c-2.938,7.939-5.152,15.912-6.583,23.7L270.06,822.703z M381.731,771.431
						c-0.261-0.051-0.52-0.107-0.78-0.165l0.848-3.773c0.227,0.051,0.454,0.1,0.644,0.138c0,0.001,0.12,0.011,0.407-0.025
						c2.144-0.271,7.311-2.265,9.543-5.107c1.876-2.39,2.982-5.374,3.289-8.869l3.853,0.338c-0.367,4.195-1.786,7.971-4.1,10.919
						c-3.096,3.943-9.408,6.215-12.1,6.556C382.699,771.522,382.173,771.519,381.731,771.431z M287.293,775.414
						c3.938-7.242,8.456-14.417,13.428-21.325l3.139,2.259c-4.878,6.777-9.308,13.813-13.169,20.913L287.293,775.414z
						 M356.476,748.825c-1.342-3.459-2.273-7.195-2.768-11.103c-0.266-2.102-0.409-4.291-0.428-6.506l3.867-0.031
						c0.017,2.063,0.15,4.1,0.397,6.051c0.455,3.596,1.308,7.025,2.536,10.19c0.872,2.247,1.985,4.422,3.307,6.466l-3.248,2.101
						C358.676,753.729,357.443,751.317,356.476,748.825z M366.733,723.769l-0.542-0.042l0.276-3.858l0.588,0.046
						c8.834,0.739,17.287,4.364,23.19,9.943l-2.657,2.811C382.313,727.681,374.71,724.438,366.733,723.769z M319.102,736.498
						c3.535-2.767,10.028-7.656,13.795-9.316c2.925-1.289,5.644-2.371,8.311-3.307l1.279,3.649
						c-2.571,0.902-5.198,1.947-8.031,3.196c-2.47,1.089-7.198,4.305-12.972,8.823L319.102,736.498z M357.772,706.105
						c2.828-8.019,6.835-15.583,11.91-22.483l3.116,2.291c-4.849,6.592-8.677,13.819-11.379,21.478L357.772,706.105z"/>
				</g>
			</g>
			<g>
				<path style="fill:#7772D6;" d="M389.94,668.697c3.394-2.506,6.948-4.706,10.567-6.537l-1.747-3.451
					c-3.81,1.929-7.55,4.243-11.117,6.876L389.94,668.697z"/>
			</g>
		</g>
		<g>
			<path style="fill:#5E2E0D;" d="M746.528,1239.977c-7.926,0-21.376-5.271-36.024,4.26c-4.143,2.696-6.809,7.096-8.471,11.751
				c-1.474,4.126-2.43,8.415-3.171,12.733c-1.44,8.395-21.545,6.268-28.435,20.974c-8.958,19.118,6.826,36.375,18.299,49.585
				c24.929,28.703,57.103,21.104,65.008,24.898c5.685,2.729,1.488-8.807,7.782-8.401c6.211,0.4,13.587,0.273,17.14-4.837
				c2.029-2.92,2.183-6.732,3.615-9.985c2.007-4.557,6.301-7.612,10.4-10.438c5.172-3.564,10.372-7.146,16.05-9.832
				c6.03-2.853,39.736-6.331,29.667-49.776c-3.901-16.834-13.856-26.837-24.189-34.067c-7.414-5.189-14.287-7.053-24.653-7.334
				C765.754,1228.862,767.442,1239.977,746.528,1239.977z"/>
			<g>
				<polygon style="fill:#EFAC7F;" points="835.492,1513.76 832.406,1710.18 827.394,1724.353 812.345,1710.18 798.069,1508.729 
									"/>
				<path style="fill:#EFAC7F;" d="M745.625,1520.409h37.657c0,0-17.724,188.599-17.595,189.771
					c0.129,1.172-6.352,9.645-6.352,9.645l-13.71-9.645V1520.409z"/>
				<path style="fill:#45258F;" d="M844.495,1680.259c-10.701,4.283-27.318,8.576-45.669,4.657l-3.417-156.866l-2.542-27.616
					c-1.92,1.679-3.065,2.475-3.065,2.475l-9.164,179.216c0,0-20.339,7.428-45.215,2.834c-0.082-10.78,6.603-175.301,6.67-182.939
					c0.487-55.167,17.539-63.24,17.539-63.24l29.033-7.35l6.375,1.098c10.149-3.334,28.512-7.14,36.073,5.531
					c10.71,17.95,10.081,73.28,10.081,73.28S844.577,1672.664,844.495,1680.259z"/>
				<path style="fill:#EFAC7F;" d="M821.662,1382.695l27.226-12.603l-2.473,28.834c0,0,51.554-23.405,54.159-25.763
					c0.867-0.785,1.858-2.846,2.81-5.256c1-2.535,1.672-5.174,2.273-7.825c0.906-4.002,4.328-7.208,5.481-8.252
					c0.502-0.454,1.95-3.181,2.295-4.43c0.233-0.845,1.49-0.777,1.623,0.088l0.277,1.803c0.271,1.768-0.347,3.597-0.742,4.573
					l0.716-0.275l1.187,12.127l-1.455,10.604l-8.157,6.143c0,0-71.832,51.705-78.401,44.951
					C821.423,1420.157,821.662,1382.695,821.662,1382.695z"/>
				<path style="fill:#7772D6;" d="M827.851,1321.701c0,0,5.578,1.326,13.646,11.311c8.068,9.984,15.251,37.601,15.251,37.601
					l-25.755,14.067l-16.757-33.355L827.851,1321.701z"/>
				<path style="opacity:0.5;fill:#F3FDFF;" d="M754.879,1480.918c2.717,1.002,5.396,2.086,8.047,3.231
					c2.647,1.152,5.265,2.368,7.864,3.62c2.6,1.25,5.179,2.54,7.734,3.874c2.549,1.343,5.104,2.684,7.612,4.092l0.201-0.48
					c-1.897-0.405-3.799-0.679-5.717-0.878c-1.917-0.193-3.845-0.271-5.77-0.273c-1.925-0.006-3.852,0.1-5.761,0.332l-1.43,0.187
					l-1.419,0.254l-0.708,0.127l-0.7,0.168l-1.397,0.339l1.412-0.272l0.705-0.138l0.711-0.102l1.421-0.202l1.43-0.136
					c0.475-0.055,0.953-0.076,1.431-0.099c0.478-0.021,0.955-0.066,1.433-0.072l1.435-0.027c0.477-0.011,0.956,0.01,1.434,0.014
					c1.912,0.037,3.82,0.173,5.72,0.382c1.896,0.21,3.795,0.498,5.643,0.907l1.713,0.379l-1.511-0.86
					c-2.512-1.429-5.046-2.809-7.622-4.121c-2.571-1.317-5.165-2.594-7.78-3.827c-2.622-1.222-5.28-2.367-7.956-3.471
					c-1.346-0.534-2.692-1.066-4.059-1.549C757.638,1481.806,756.255,1481.367,754.879,1480.918z"/>
				<path style="opacity:0.5;fill:#F3FDFF;" d="M831.112,1479.824c-1.377,0.448-2.759,0.887-4.114,1.396
					c-1.367,0.483-2.713,1.015-4.06,1.549c-2.675,1.104-5.335,2.248-7.956,3.47c-2.615,1.235-5.209,2.51-7.78,3.828
					c-2.575,1.313-5.109,2.692-7.621,4.121l-1.512,0.86l1.713-0.379c1.848-0.409,3.747-0.697,5.643-0.907
					c1.899-0.209,3.808-0.345,5.72-0.382c0.478-0.004,0.957-0.024,1.434-0.015l1.435,0.028c0.479,0.007,0.955,0.051,1.433,0.071
					c0.478,0.022,0.956,0.046,1.432,0.1l1.43,0.135l1.421,0.203l0.711,0.102l0.705,0.138l1.412,0.272l-1.397-0.34l-0.7-0.166
					l-0.708-0.128l-1.419-0.254l-1.43-0.187c-1.909-0.231-3.836-0.338-5.761-0.332c-1.926,0.002-3.853,0.079-5.77,0.273
					c-1.918,0.199-3.82,0.473-5.717,0.878l0.202,0.48c2.507-1.408,5.062-2.749,7.611-4.092c2.556-1.333,5.134-2.624,7.734-3.874
					c2.599-1.252,5.217-2.468,7.864-3.621C825.717,1481.909,828.396,1480.826,831.112,1479.824z"/>
				<path style="fill:#7772D6;" d="M771.4,1456.86c-0.099,0.278-0.248,0.536-0.383,0.8l-0.414,0.788l-0.837,1.569l-1.396,2.598
					l-3.982,6.913c-0.548,1.049-5.774,10.141-7.011,12.175c1.539-1.836,3.393-3.653,4.647-5.677c0.632-1.01,1.22-2.044,1.816-3.073
					c0.586-1.035,1.149-2.082,1.712-3.128c1.103-2.104,2.169-4.226,3.159-6.381c0.5-1.076,0.978-2.162,1.442-3.253
					c0.226-0.548,0.456-1.095,0.668-1.648C771.032,1457.988,771.263,1457.438,771.4,1456.86z"/>
				<path style="fill:#7772D6;" d="M720.72,1353.845c11.711-14.128,25.238-29.463,37.069-35.432
					c4.529-2.285,15.268-2.737,21.514-3.761c0,0,16.29-2.011,32.353,0.115c8.665,3.173,23.802,8.539,24.001,13.676
					c0.989,25.645,1.279,45.304,1.139,60.377c0.001,0.049,0.43,54.65,0.034,66.313c0,0-59.363,12.796-89.728,5.104
					c0,0-5.014-71.421,2.188-90.707l-3.069,3.907C746.22,1373.438,734.004,1370.657,720.72,1353.845z"/>
				<path style="fill:#EFAC7F;" d="M722.51,1356.066c8.054,9.795,16.968,14.992,21.432,16.63l-28.706,34.385l52.514,56.614
					l-9.243,16.102c-7.302-3.543-8.95-16.978-8.95-16.978s-64.991-43.455-64.991-53.85
					C684.565,1395.046,722.51,1356.066,722.51,1356.066z"/>
				<path style="fill:#45258F;" d="M722.049,1355.387c0.452,0.507,0.857,1.046,1.33,1.533l1.392,1.477l0.689,0.741l0.731,0.703
					l1.457,1.405c0.491,0.461,1.012,0.895,1.515,1.342c0.989,0.916,2.095,1.699,3.132,2.555c2.159,1.612,4.43,3.069,6.792,4.353
					l0.889,0.474c0.299,0.153,0.604,0.293,0.907,0.439c0.601,0.3,1.217,0.564,1.833,0.826c0.306,0.137,0.621,0.251,0.931,0.373
					c0.311,0.122,0.621,0.248,0.936,0.354c0.425,0.153,0.87,0.301,1.296,0.427l3.142-3.759l3.572-4.193
					c2.369-2.806,4.796-5.565,7.201-8.343c2.432-2.756,4.864-5.511,7.335-8.235c2.471-2.726,4.954-5.44,7.511-8.097
					c-2.18,2.955-4.433,5.854-6.699,8.742c-2.265,2.888-4.57,5.744-6.874,8.602c-2.332,2.835-4.642,5.688-7.009,8.495l-3.533,4.225
					l-3.573,4.192l-0.391,0.459l-0.562-0.147c-0.751-0.197-1.399-0.419-2.071-0.667c-0.667-0.244-1.319-0.511-1.958-0.804
					c-0.64-0.292-1.277-0.587-1.894-0.917c-0.31-0.161-0.625-0.315-0.931-0.483l-0.91-0.518c-2.426-1.38-4.678-3.015-6.814-4.762
					l-1.547-1.372c-0.523-0.448-1.006-0.938-1.491-1.424c-0.482-0.488-0.981-0.961-1.448-1.461l-1.36-1.536l-0.677-0.769
					l-0.632-0.804l-1.252-1.612c-0.809-1.092-1.536-2.239-2.294-3.356L722.049,1355.387z"/>
				<path style="fill:#EFAC7F;" d="M805.512,1314.186c0,0-11.787,6.986-20.97,0l0,0l2.165-17.054l18.271-3.765L805.512,1314.186
					L805.512,1314.186z"/>
				<path style="fill:#D19369;" d="M805.263,1304.49l-0.285-11.123l-18.535,5.766l-0.521,4.168
					C790.035,1304.793,797.851,1306.606,805.263,1304.49z"/>
				<path style="fill:#D19369;" d="M818.585,1265.581c-0.495,3.34,1.333,6.337,4.083,6.695c2.75,0.357,5.381-2.062,5.876-5.402
					c0.495-3.341-1.333-6.338-4.082-6.695C821.712,1259.821,819.081,1262.24,818.585,1265.581z"/>
				<path style="fill:#EFAC7F;" d="M822.234,1283.477c0.442-1.498,0.744-3.046,0.897-4.623c0.495-4.263,0.189-8.578-0.375-12.267
					c-0.122-0.792-0.195-1.589-0.253-2.388c-0.235-3.227-1.088-6.494-2.702-9.67c-5.192-10.22-16.943-15.947-28.562-13.897
					c-15.653,2.761-25.339,17.697-21.606,32.218c-1.856-0.468-3.74-0.21-5.174,0.894c-2.749,2.115-2.798,6.512-0.108,9.821
					c2.69,3.309,7.1,4.275,9.85,2.16c0.382-0.294,0.706-0.635,0.984-1.008c4.477,12.027,17.388,18.934,29.879,15.58
					c6.109-1.642,11.043-5.451,14.225-10.388c0.222-0.296,0.447-0.636,0.676-1.022
					C820.969,1287.193,821.704,1285.366,822.234,1283.477z"/>
				<path style="fill:#333333;" d="M793.604,1269.153c0.333,1.211-0.411,2.465-1.662,2.801c-1.252,0.336-2.536-0.373-2.87-1.584
					c-0.334-1.212,0.41-2.466,1.662-2.802C791.986,1267.232,793.271,1267.941,793.604,1269.153z"/>
				<path style="fill:#333333;" d="M813.403,1265.162c0.334,1.211-0.411,2.465-1.662,2.801c-1.252,0.337-2.537-0.373-2.87-1.584
					c-0.334-1.211,0.411-2.465,1.662-2.802C811.785,1263.242,813.07,1263.951,813.403,1265.162z"/>
				<path style="fill:#5E2E0D;" d="M795.141,1264.069c-1.23-0.144-2.388-0.215-3.518-0.171c-1.128,0.043-2.213,0.223-3.238,0.555
					c-1.017,0.342-2.022,0.773-2.932,1.425l-0.359,0.224c-0.119,0.076-0.22,0.176-0.336,0.258l-0.689,0.524
					c-0.461,0.36-0.871,0.779-1.388,1.148c0.2-0.565,0.443-1.133,0.752-1.667c0.364-0.491,0.676-1.052,1.159-1.47
					c0.865-0.935,2.044-1.604,3.286-2.012c1.252-0.402,2.597-0.486,3.854-0.274C792.981,1262.834,794.185,1263.289,795.141,1264.069
					z"/>
				<path style="fill:#5E2E0D;" d="M804.383,1262.07c0.541-1.104,1.446-2.016,2.49-2.736c1.055-0.712,2.313-1.191,3.62-1.342
					c1.3-0.143,2.653-0.021,3.831,0.472c0.614,0.181,1.133,0.562,1.67,0.858c0.504,0.359,0.963,0.773,1.383,1.206
					c-0.625-0.123-1.173-0.335-1.744-0.473l-0.847-0.191c-0.141-0.026-0.274-0.075-0.414-0.096l-0.42-0.055
					c-1.101-0.217-2.196-0.193-3.264-0.085c-1.072,0.122-2.133,0.406-3.176,0.833
					C806.465,1260.889,805.442,1261.433,804.383,1262.07z"/>
				<path style="fill:#D19369;" d="M800.751,1262.636c-0.08,1.644,0.116,3.274,0.509,4.879c0.199,0.805,0.463,1.596,0.825,2.378
					c0.377,0.772,0.828,1.552,1.609,2.201l0.324,0.222l0.288,0.188c0.124,0.093,0.287,0.151,0.385,0.261
					c0.238,0.185,0.419,0.408,0.539,0.658c0.276,0.495,0.195,1.146-0.045,1.777c-0.54,1.289-1.869,2.307-3.344,3.084
					c1.654-0.169,3.452-0.91,4.461-2.544c0.495-0.791,0.73-1.884,0.339-2.881c-0.096-0.247-0.213-0.484-0.378-0.688
					c-0.144-0.226-0.335-0.397-0.524-0.573c-0.185-0.188-0.411-0.291-0.619-0.436c-0.128-0.077-0.154-0.107-0.221-0.153
					l-0.181-0.125c-0.485-0.389-0.901-1.014-1.274-1.657c-0.391-0.646-0.67-1.376-0.994-2.09
					C801.857,1265.68,801.327,1264.17,800.751,1262.636z"/>
				<path style="fill:#FFFFFF;" d="M811.074,1279.912c-0.304,2.88-3.341,5.489-7.374,6.109c-4.034,0.62-7.711-0.956-8.861-3.612
					L811.074,1279.912z"/>
				<path style="fill:#FFC0BB;" d="M921.456,1361.35c0.041-0.583-0.128-2.432-0.21-2.829c-0.23-1.103-1.066-1.992-2.173-2.327
					l-1.26-0.382l-0.112,2.832l0,0c0.105,2.161,0.148,2.01-2.85,3.312c-4.274,1.856-2.485,4.095-2.485,4.095
					s1.187,1.591,6.415-1.022C918.781,1365.027,921.293,1363.709,921.456,1361.35z"/>
				<g>
					<path style="fill:#FFFFFF;" d="M789.586,1727.409l-44.814-0.028c-1.385,0-2.507-1.124-2.506-2.51l0,0
						c0.001-1.385,1.124-2.506,2.509-2.506l44.814,0.028c1.385,0.001,2.507,1.124,2.506,2.509v0.001
						C792.094,1726.288,790.971,1727.41,789.586,1727.409z"/>
					<path style="fill:#45258F;" d="M744.558,1707.131l-1.66,13.946c-0.205,1.72,0.757,3.282,2.02,3.282l43.911,0.027
						c1.14,0.001,2.269-0.71,2.869-2.048c0.615-1.372,0.739-3.438-1.225-6.219c-3.818-5.404-16.128-6.844-22.614-11.28
						c-0.374-0.257-0.816-0.391-1.269-0.392l-19.73-0.013C745.718,1704.435,744.743,1705.576,744.558,1707.131z"/>
					<g>
						<path style="fill:#FFFFFF;" d="M764.204,1712.545L764.204,1712.545c-0.317-0.194-0.433-0.729-0.25-1.137
							c0.864-1.909,3.561-6.561,9.044-5.602c0.317,0.056,0.531,0.477,0.477,0.911l-0.002,0.014c-0.052,0.42-0.338,0.695-0.644,0.642
							c-4.914-0.841-7.208,3.258-7.906,4.859C764.774,1712.574,764.467,1712.708,764.204,1712.545z"/>
					</g>
					<g>
						<path style="fill:#FFFFFF;" d="M768.763,1714.344L768.763,1714.344c-0.317-0.195-0.433-0.729-0.249-1.137
							c0.863-1.91,3.561-6.562,9.044-5.603c0.316,0.056,0.531,0.477,0.477,0.911l-0.001,0.014c-0.053,0.42-0.338,0.695-0.645,0.643
							c-4.914-0.842-7.208,3.258-7.906,4.859C769.333,1714.372,769.026,1714.506,768.763,1714.344z"/>
					</g>
					<g>
						<path style="fill:#FFFFFF;" d="M773.003,1716.021L773.003,1716.021c-0.317-0.195-0.433-0.73-0.249-1.137
							c0.864-1.91,3.561-6.561,9.044-5.602c0.316,0.056,0.531,0.477,0.477,0.909l-0.002,0.015c-0.053,0.42-0.338,0.694-0.645,0.643
							c-4.913-0.842-7.207,3.257-7.906,4.858C773.574,1716.05,773.267,1716.184,773.003,1716.021z"/>
					</g>
				</g>
				
				<path style="fill:#EFAC7F;" d="M905.896,1356.896c0,0-0.454,0.376-0.831,2.763c-0.376,2.388-1.552,10.03-1.027,10.292
					c0.525,0.261,4.105-0.43,4.105-0.43s0.314-8.103-0.503-9.358C906.823,1358.905,905.896,1356.896,905.896,1356.896z"/>
				<path style="fill:#45258F;" d="M913.633,1230.865l80.633-57.047l8.938,12.633l-76.021,53.784
					c-3.817,2.7-6.054,7.146-5.842,11.818c0.008,0.174,0.018,0.277,0.03,0.294v432.38h-15.475v-432.38v-8.867
					c0-4.542,2.227-8.796,5.961-11.384L913.633,1230.865z"/>
				<path style="fill:#EFAC7F;" d="M922.385,1364.829c0.041-0.583-0.128-2.432-0.211-2.828c-0.229-1.104-1.065-1.993-2.172-2.327
					l-1.26-0.382l-0.112,2.832l0,0c0.105,2.161,0.148,2.01-2.85,3.312c-4.273,1.856-2.484,4.095-2.484,4.095s1.187,1.59,6.415-1.023
					C919.709,1368.507,922.222,1367.189,922.385,1364.829z"/>
				<path style="fill:#EFAC7F;" d="M922.83,1367.256c0.038-0.555-0.123-2.315-0.201-2.692c-0.219-1.051-1.015-1.896-2.068-2.216
					l-1.2-0.364l-0.107,2.697l0,0c0.1,2.058,0.141,1.912-2.712,3.152c-4.069,1.768-2.366,3.898-2.366,3.898s1.13,1.514,6.106-0.974
					C920.282,1370.758,922.674,1369.504,922.83,1367.256z"/>
				<path style="fill:#EFAC7F;" d="M922.174,1370.487c0.032-0.47-0.103-1.959-0.17-2.278c-0.185-0.889-0.858-1.604-1.75-1.875
					l-1.015-0.308l-0.091,2.282l0,0c0.085,1.741,0.12,1.618-2.295,2.667c-3.442,1.495-2.001,3.299-2.001,3.299
					s0.956,1.281,5.167-0.824C920.019,1373.45,922.042,1372.39,922.174,1370.487z"/>
				<path style="fill:#D19369;" d="M913.963,1366.502c-0.596,0.434-1.117,1.08-1.158,1.873c-0.01,0.389,0.088,0.777,0.285,1.122
					c0.041,0.079,0.123,0.19,0.209,0.253c0.083,0.068,0.171,0.127,0.264,0.172c0.183,0.099,0.378,0.156,0.574,0.203
					c0.791,0.163,1.584,0.051,2.331-0.12c0.747-0.187,1.47-0.439,2.167-0.741c0.354-0.142,0.688-0.321,1.032-0.48
					c0.361-0.169,0.675-0.396,0.977-0.634c0.591-0.489,1.128-1.065,1.466-1.758c0.179-0.341,0.286-0.713,0.363-1.085
					c0.019-0.189,0.054-0.38,0.046-0.566l-0.023-0.559c-0.076-0.735-0.156-1.463-0.323-2.181c0.058,0.729,0.091,1.462,0.085,2.188
					l-0.012,0.537c-0.003,0.179-0.048,0.35-0.074,0.522c-0.093,0.339-0.21,0.672-0.394,0.975c-0.355,0.609-0.853,1.141-1.424,1.578
					c-0.289,0.214-0.583,0.429-0.906,0.572c-0.337,0.151-0.665,0.323-1.011,0.459c-0.677,0.302-1.375,0.548-2.084,0.741
					c-0.707,0.189-1.444,0.291-2.144,0.196c-0.334-0.059-0.703-0.177-0.859-0.426c-0.187-0.286-0.293-0.626-0.31-0.969
					c-0.015-0.345,0.077-0.694,0.245-1.013C913.456,1367.045,913.705,1366.77,913.963,1366.502z"/>
				<path style="fill:#EFAC7F;" d="M922.174,1373.149c0.032-0.47-0.103-1.959-0.17-2.278c-0.185-0.889-0.858-1.604-1.75-1.875
					l-1.015-0.308l-0.091,2.281l0,0c0.085,1.741,0.12,1.619-2.295,2.667c-3.442,1.496-2.001,3.3-2.001,3.3s0.956,1.28,5.167-0.825
					C920.019,1376.111,922.042,1375.051,922.174,1373.149z"/>
				<path style="fill:#D19369;" d="M915.07,1374.804c-0.361,0.32-0.628,0.786-0.632,1.305c-0.002,0.257,0.065,0.511,0.177,0.747
					c0.029,0.06,0.059,0.117,0.102,0.176c0.06,0.075,0.111,0.116,0.17,0.16c0.116,0.086,0.241,0.143,0.368,0.19
					c0.515,0.186,1.049,0.162,1.552,0.101c0.506-0.07,0.994-0.204,1.464-0.367c0.471-0.166,0.928-0.359,1.373-0.577
					c0.216-0.116,0.448-0.207,0.667-0.356c0.213-0.139,0.411-0.294,0.596-0.464c0.744-0.654,1.303-1.597,1.267-2.568
					c-0.162,0.954-0.787,1.719-1.516,2.29c-0.185,0.144-0.38,0.274-0.578,0.395c-0.189,0.118-0.42,0.198-0.637,0.302
					c-0.437,0.199-0.882,0.384-1.335,0.536c-0.449,0.164-0.91,0.292-1.372,0.371c-0.459,0.082-0.936,0.104-1.359-0.008
					c-0.104-0.029-0.205-0.067-0.289-0.121c-0.041-0.023-0.085-0.06-0.104-0.076c-0.03-0.036-0.063-0.082-0.091-0.128
					c-0.114-0.185-0.194-0.396-0.219-0.614c-0.031-0.22-0.007-0.449,0.064-0.668C914.811,1375.208,914.935,1375.004,915.07,1374.804
					z"/>
				<path style="fill:#D19369;" d="M913.953,1369.962c-0.251,0.473-0.249,1.067-0.03,1.579c0.058,0.122,0.118,0.262,0.247,0.371
					c0.114,0.104,0.244,0.174,0.378,0.237c0.268,0.124,0.554,0.171,0.837,0.209c1.145,0.095,2.232-0.239,3.255-0.611
					c0.507-0.206,1.007-0.423,1.493-0.671c0.509-0.239,0.958-0.58,1.35-0.963c0.392-0.387,0.737-0.819,0.987-1.304
					c0.233-0.49,0.378-1.023,0.361-1.554c-0.172,1.05-0.809,1.931-1.602,2.591c-0.405,0.322-0.824,0.638-1.304,0.831
					c-0.48,0.229-0.969,0.438-1.463,0.631c-0.496,0.188-0.997,0.362-1.508,0.483c-0.508,0.138-1.03,0.208-1.543,0.206
					c-0.253-0.014-0.512-0.035-0.743-0.122c-0.114-0.044-0.228-0.095-0.317-0.164c-0.087-0.055-0.146-0.164-0.213-0.271
					C913.872,1371.011,913.807,1370.471,913.953,1369.962z"/>
				<path style="fill:#D19369;" d="M915.07,1372.143c-0.361,0.32-0.628,0.786-0.632,1.304c-0.002,0.257,0.065,0.512,0.177,0.747
					c0.029,0.06,0.059,0.116,0.102,0.177c0.06,0.074,0.111,0.116,0.17,0.159c0.116,0.087,0.241,0.144,0.368,0.191
					c0.515,0.186,1.049,0.161,1.552,0.1c0.506-0.069,0.994-0.204,1.464-0.366c0.471-0.167,0.928-0.36,1.373-0.578
					c0.216-0.116,0.448-0.207,0.667-0.356c0.213-0.139,0.411-0.293,0.596-0.463c0.744-0.654,1.303-1.597,1.267-2.569
					c-0.162,0.954-0.787,1.719-1.516,2.291c-0.185,0.143-0.38,0.274-0.578,0.395c-0.189,0.118-0.42,0.197-0.637,0.301
					c-0.437,0.199-0.882,0.385-1.335,0.536c-0.449,0.165-0.91,0.292-1.372,0.371c-0.459,0.082-0.936,0.105-1.359-0.007
					c-0.104-0.029-0.205-0.068-0.289-0.121c-0.041-0.023-0.085-0.06-0.104-0.077c-0.03-0.035-0.063-0.082-0.091-0.127
					c-0.114-0.185-0.194-0.396-0.219-0.615c-0.031-0.22-0.007-0.448,0.064-0.668C914.811,1372.546,914.935,1372.343,915.07,1372.143
					z"/>
				<path style="fill:#45258F;" d="M917.657,1364.596c0,0,3.53-1.461,3.713-4.095v-1.58l-3.868-0.628l-0.582,1.695L917.657,1364.596
					z"/>
			</g>
			<path style="fill:#5E2E0D;" d="M766.369,1269.499l0.613-0.14l-0.122-5.565l1.81-5.334c0,0,7.697-14.618,7.983-14.99
				c0.285-0.371,6.744-5.471,7.146-5.739c0.402-0.268,10.215,0.495,10.215,0.495s16.59-5.565,14.708,4.87
				c-1.882,10.437-13.761,16.929-14.442,16.536c1.793-2.467,1.375-8.959,1.375-8.959c-8.391,12.737-25.576,22.25-25.576,22.25
				s-2.029-1.354-5.167,0.263L766.369,1269.499z"/>
		</g>
	</g>
</g>
</svg>
