<?xml version="1.0" encoding="utf-8"?>
<!-- Generator: Adobe Illustrator 27.5.0, SVG Export Plug-In . SVG Version: 6.00 Build 0)  -->
<svg version="1.1" id="_x3C_Layer_x3E_" xmlns="http://www.w3.org/2000/svg" xmlns:xlink="http://www.w3.org/1999/xlink" x="0px"
	 y="0px" viewBox="0 0 2760 1840" style="enable-background:new 0 0 2760 1840;" xml:space="preserve">
<rect style="fill:#FFFFFF;" width="2760" height="1840"/>
<g>
	<g style="opacity:0.4;">
		<polygon style="fill:#CEC2FF;" points="951.458,1532.551 657.524,1532.551 657.524,355.372 951.458,280.037 		"/>
		<g>
			<g style="opacity:0.5;">
				<rect x="757.914" y="385.082" style="fill:#F2EFFF;" width="12.74" height="29.972"/>
				<rect x="909.515" y="385.082" style="fill:#F2EFFF;" width="12.74" height="29.972"/>
				<rect x="789.621" y="385.082" style="fill:#F2EFFF;" width="12.74" height="29.972"/>
				<rect x="845.284" y="433.194" style="fill:#F2EFFF;" width="12.739" height="29.972"/>
				<rect x="867.583" y="433.194" style="fill:#F2EFFF;" width="12.74" height="29.972"/>
				<rect x="791.758" y="433.194" style="fill:#F2EFFF;" width="12.74" height="29.972"/>
				<rect x="890.438" y="433.194" style="fill:#F2EFFF;" width="12.739" height="29.972"/>
			</g>
			<g style="opacity:0.5;">
				<rect x="757.914" y="486.989" style="fill:#F2EFFF;" width="12.74" height="29.972"/>
				<rect x="909.515" y="486.989" style="fill:#F2EFFF;" width="12.74" height="29.972"/>
				<rect x="789.621" y="486.989" style="fill:#F2EFFF;" width="12.74" height="29.972"/>
				<rect x="845.284" y="535.101" style="fill:#F2EFFF;" width="12.739" height="29.972"/>
				<rect x="867.583" y="535.101" style="fill:#F2EFFF;" width="12.74" height="29.972"/>
				<rect x="791.758" y="535.101" style="fill:#F2EFFF;" width="12.74" height="29.972"/>
				<rect x="890.438" y="535.101" style="fill:#F2EFFF;" width="12.739" height="29.972"/>
			</g>
			<g style="opacity:0.5;">
				<rect x="757.914" y="588.896" style="fill:#F2EFFF;" width="12.74" height="29.972"/>
				<rect x="909.515" y="588.896" style="fill:#F2EFFF;" width="12.74" height="29.972"/>
				<rect x="789.621" y="588.896" style="fill:#F2EFFF;" width="12.74" height="29.972"/>
				<rect x="845.284" y="637.008" style="fill:#F2EFFF;" width="12.739" height="29.972"/>
				<rect x="867.583" y="637.008" style="fill:#F2EFFF;" width="12.74" height="29.972"/>
				<rect x="791.758" y="637.008" style="fill:#F2EFFF;" width="12.74" height="29.972"/>
				<rect x="890.438" y="637.008" style="fill:#F2EFFF;" width="12.739" height="29.972"/>
			</g>
			<g style="opacity:0.5;">
				<rect x="757.914" y="690.803" style="fill:#F2EFFF;" width="12.74" height="29.971"/>
				<rect x="909.515" y="690.803" style="fill:#F2EFFF;" width="12.74" height="29.971"/>
				<rect x="789.621" y="690.803" style="fill:#F2EFFF;" width="12.74" height="29.971"/>
				<rect x="845.284" y="738.915" style="fill:#F2EFFF;" width="12.739" height="29.972"/>
				<rect x="867.583" y="738.915" style="fill:#F2EFFF;" width="12.74" height="29.972"/>
				<rect x="791.758" y="738.915" style="fill:#F2EFFF;" width="12.74" height="29.972"/>
				<rect x="890.438" y="738.915" style="fill:#F2EFFF;" width="12.739" height="29.972"/>
			</g>
			<g style="opacity:0.5;">
				<rect x="757.914" y="792.71" style="fill:#F2EFFF;" width="12.74" height="29.972"/>
				<rect x="909.515" y="792.71" style="fill:#F2EFFF;" width="12.74" height="29.972"/>
				<rect x="789.621" y="792.71" style="fill:#F2EFFF;" width="12.74" height="29.972"/>
				<rect x="845.284" y="840.822" style="fill:#F2EFFF;" width="12.739" height="29.972"/>
				<rect x="867.583" y="840.822" style="fill:#F2EFFF;" width="12.74" height="29.972"/>
				<rect x="791.758" y="840.822" style="fill:#F2EFFF;" width="12.74" height="29.972"/>
				<rect x="890.438" y="840.822" style="fill:#F2EFFF;" width="12.739" height="29.972"/>
			</g>
			<g style="opacity:0.5;">
				<rect x="757.914" y="894.617" style="fill:#F2EFFF;" width="12.74" height="29.972"/>
				<rect x="909.515" y="894.617" style="fill:#F2EFFF;" width="12.74" height="29.972"/>
				<rect x="789.621" y="894.617" style="fill:#F2EFFF;" width="12.74" height="29.972"/>
				<rect x="845.284" y="942.729" style="fill:#F2EFFF;" width="12.739" height="29.972"/>
				<rect x="867.583" y="942.729" style="fill:#F2EFFF;" width="12.74" height="29.972"/>
				<rect x="791.758" y="942.729" style="fill:#F2EFFF;" width="12.74" height="29.972"/>
				<rect x="890.438" y="942.729" style="fill:#F2EFFF;" width="12.739" height="29.972"/>
			</g>
		</g>
		<rect x="1496.841" y="228.183" style="fill:#ECE7FF;" width="241.402" height="1304.208"/>
		<ellipse style="fill:#CEC2FF;" cx="1388.92" cy="318.914" rx="115.797" ry="115.074"/>
		<path style="fill:#CEC2FF;" d="M1388.921,260.917L1388.921,260.917c-0.816,0-1.477-0.661-1.477-1.477V138.728
			c0-0.816,0.661-1.477,1.477-1.477l0,0c0.816,0,1.477,0.661,1.477,1.477V259.44
			C1390.398,260.255,1389.736,260.917,1388.921,260.917z"/>
		<rect x="1681.156" y="331.331" style="fill:#CEC2FF;" width="256.582" height="104.857"/>
		<rect x="1759.988" y="226.474" style="fill:#CEC2FF;" width="119.721" height="104.857"/>
		<rect x="947.38" y="408.414" style="fill:#CEC2FF;" width="214.132" height="1124.073"/>
		<rect x="1617.542" y="436.187" style="fill:#CEC2FF;" width="320.195" height="1096.204"/>
		<polygon style="fill:#CEC2FF;" points="2232.667,1532.551 2008.286,1532.551 2008.286,465.624 2232.667,522.323 		"/>
		<polygon style="fill:#CEC2FF;" points="390.953,1532.551 608.162,1532.551 608.162,658.538 390.953,704.985 		"/>
		<rect x="1193.494" y="309.892" style="fill:#CEC2FF;" width="376.187" height="1222.499"/>
		<rect x="1281.301" y="547.06" style="fill:#CEC2FF;" width="570.662" height="985.331"/>
		<rect x="1571.76" y="547.06" style="fill:#BAB0F8;" width="570.662" height="985.331"/>
		<rect x="2164.126" y="779.279" style="fill:#CEC2FF;" width="192.386" height="753.112"/>
		<rect x="536.45" y="779.279" style="fill:#CEC2FF;" width="192.386" height="753.112"/>
		<rect x="1777.64" y="137.251" style="fill:#CEC2FF;" width="7.587" height="125.422"/>
		<rect x="1849.505" y="137.251" style="fill:#CEC2FF;" width="7.587" height="125.422"/>
		<rect x="1078.649" y="587.941" style="fill:#BAB0F8;" width="455.382" height="944.45"/>
	</g>
	<path style="fill:#CAD889;" d="M2166.161,1307.931c0,0,1.281-187.469-218.538-184.496
		c-219.819,2.973-258.783,229.219-258.783,229.219s-24.667-132.455-186.761-148.659
		c-162.095-16.203-208.087,191.383-208.087,191.383s-53.71-75.1-180.322-74.612c-126.612,0.488-163.167,84.46-163.167,84.46
		s-34.813-195.033-224.237-177.034c-189.424,17.999-182.853,247.165-182.853,247.165s-52.263-124.176-192.034-73.04
		s-43.465,192.899-43.465,192.899l1869.782,40.835L2166.161,1307.931z"/>
	<g>
		<g>
			<ellipse style="fill:#FBE9DD;" cx="1371.76" cy="1627.461" rx="1248.788" ry="101.092"/>
		</g>
	</g>
	<g>
		<g style="opacity:0.5;">
			<path style="fill:#C1B2FF;" d="M2292.088,870.549L2292.088,870.549c-3.254,2.369-7.813,1.652-10.183-1.602l-6.548-8.994
				l-23.326,16.984l6.548,8.994c2.37,3.254,1.652,7.813-1.602,10.183l0,0c-8.322,6.059-10.156,17.717-4.097,26.039l77.267,106.123
				c6.059,8.322,17.717,10.156,26.038,4.097l35.112-25.564c8.322-6.059,10.156-17.717,4.097-26.038l-77.267-106.123
				C2312.067,866.324,2300.409,864.49,2292.088,870.549z"/>
			<path style="fill:#A89BED;" d="M2281.601,869.161l-22.927,16.693c-0.981,0.714-2.355,0.498-3.069-0.483l-4.758-6.535
				c-0.714-0.981-0.498-2.355,0.483-3.069l22.927-16.693c0.981-0.714,2.354-0.498,3.069,0.483l4.758,6.535
				C2282.798,867.073,2282.582,868.447,2281.601,869.161z"/>
			
				<rect x="2280.489" y="922.09" transform="matrix(0.8084 -0.5886 0.5886 0.8084 -112.7475 1547.4698)" style="fill:#A89BED;" width="80.709" height="49.695"/>
		</g>
		<path style="fill:#FF6A51;" d="M2098.954,894.519c-30.795,7.061-59.356,18.761-82.454,33.775l-2.845,0.991
			c-4.126,0.126-8.27,0.696-12.197,1.677c12.417,16.812,22.011,34.547,28.585,52.843c0.407,1.134,1.042,2.439,2.816,2.759
			c1.14,0.206,2.398-0.077,3.57-0.33c9.37-2.025,19.219-2.361,28.91-3.143c29.758-2.4,60.673-9.917,80.119-24.966
			c4.383-3.392,8.439-7.282,14.689-9.116c2.621-0.769,5.5-1.127,7.998-2.06c-17.199-19.44-31.119-40.125-41.479-61.636
			C2119.469,890.241,2108.819,892.257,2098.954,894.519z"/>
		<g>
			<path style="fill:#C1B2FF;" d="M2289.583,959.293L2289.583,959.293c-0.487-3.996,2.357-7.631,6.353-8.118l11.043-1.347
				l-3.494-28.642l-11.043,1.347c-3.996,0.487-7.631-2.357-8.118-6.353v0c-1.246-10.218-10.54-17.491-20.758-16.245l-130.306,15.894
				c-10.218,1.246-17.491,10.54-16.244,20.758l5.259,43.113c1.247,10.218,10.54,17.491,20.758,16.245l130.306-15.895
				C2283.556,978.805,2290.829,969.511,2289.583,959.293z"/>
			<path style="fill:#A89BED;" d="M2295.896,950.805l-3.434-28.151c-0.147-1.204,0.71-2.3,1.914-2.446l8.025-0.979
				c1.204-0.147,2.3,0.71,2.447,1.915l3.434,28.151c0.147,1.204-0.71,2.299-1.915,2.446l-8.025,0.979
				C2297.138,952.867,2296.043,952.01,2295.896,950.805z"/>
			
				<rect x="2168.498" y="922.416" transform="matrix(0.1211 0.9926 -0.9926 0.1211 2881.7034 -1360.0314)" style="fill:#A89BED;" width="80.709" height="49.695"/>
		</g>
		<g>
			<path style="fill:#FFBF61;" d="M2225.679,990.613c-5.508-6.49-12.155-12.446-14.948-20.487c-0.855-2.462-1.401-5.2-3.286-7
				c-1.483-1.417-3.561-2.005-5.574-2.395c-11.868-2.3-24.033,0.597-35.946,2.653c-2.164,0.374-4.838,0.52-6.081-1.29
				c-0.912-1.329-0.587-3.113-0.226-4.684c3.31-14.365,6.724-29.322,3.419-43.688c-0.459-1.995-1.214-4.174-3.04-5.101
				c-1.558-0.79-3.439-0.419-5.104,0.111c-9.856,3.138-17.583,11.121-22.608,20.162c-4.777,8.595-9.944,26.332-17.736,30.435
				c-7.918,4.168-22.963-1.521-35.769-1.322c-9.575,0.148-20.675,1.228-27.695,6.84c-1.507,1.205-0.175,3.614,1.642,2.965
				c13.286-4.747,25.223,3.066,41.342,5.499c1.37,0.207,1.932,1.884,0.977,2.887c-7.148,7.508-10.517,5.882-22.201,9.97
				c-8.738,3.057-18.115,4.573-26.146,9.177c-7.228,4.144-13.292,11.874-12.927,19.957c0.058,1.278,1.518,1.96,2.617,1.307
				c30.825-18.312,71.467-10.397,105.049-23.723c2.867-1.138,5.689-2.433,8.683-3.178c2.294-0.571,4.658-0.81,7.015-0.994
				c15.723-1.224,31.631-0.035,46.998,3.511c10.138,2.34,21.151,6.85,26.688,15.081c1.042,1.55,3.474,0.584,3.126-1.25
				C2232.885,1000.455,2229.463,995.071,2225.679,990.613z"/>
			<g>
				<path style="fill:#FFBF61;" d="M2155.517,898.938c-0.201,8.286-2.696,15.89-7.413,22.699c-3.251,4.693,4.226,9.433,7.468,4.754
					c5.536-7.991,8.552-17.29,8.789-27.006C2164.499,893.689,2155.656,893.237,2155.517,898.938L2155.517,898.938z"/>
			</g>
		</g>
		<g>
			<g>
				<path style="fill:#2A2C4B;" d="M1771.149,1592.666c-0.176,7.441-0.394,14.69-0.36,21.427c0.025,4.014,2.866,7.483,6.805,8.263
					c9.972,1.986,20.371,1.835,30.603,1.659c33.21-0.57,66.428-1.148,99.646-1.718c3.419-0.059,7.24-0.268,9.126-3.687
					c1.198-2.17,1.031-4.818-0.109-7.022c-2.313-4.441-6.98-6.302-11.422-7.953c-21.562-8.003-44.967-16.048-61.148-31.517
					c-0.511-0.486-1.014-0.989-1.517-1.492c-3.411-3.461-6.469-7.282-9.084-11.547c-2.02-3.293-3.729-6.846-4.718-10.567
					c-0.344-1.282-0.603-2.581-0.754-3.905c-0.067-0.511-0.117-1.022-0.143-1.542l-11.732-0.52l-3.377-0.151l-43.365-6.577
					c3.092,11.472,1.801,29.513,1.759,43.038C1771.35,1583.482,1771.258,1588.107,1771.149,1592.666z"/>
			</g>
			<g>
				<path style="fill:#2A2C4B;" d="M1537.212,1622.356c9.972,1.986,20.372,1.835,30.603,1.659c33.21-0.57,66.428-1.148,99.646-1.718
					c3.419-0.059,7.24-0.268,9.126-3.687c1.198-2.17,1.031-4.818-0.109-7.022c-2.313-4.441-6.98-6.302-11.422-7.953
					c-21.562-8.003-44.967-16.048-61.148-31.517c-0.511-0.486-1.014-0.989-1.517-1.492c-3.411-3.461-6.469-7.282-9.084-11.547
					c-2.02-3.293-3.729-6.846-4.718-10.567c-0.344-1.282-0.603-2.581-0.754-3.905c-0.067-0.511-0.117-1.022-0.142-1.542
					l-11.732-0.52l-3.377-0.151l-26.022-54.922c3.092,11.472-7.592,60.537-9.86,76.413
					C1530.364,1608.254,1533.273,1621.577,1537.212,1622.356z"/>
			</g>
			<g>
				<path style="fill:#FF6A51;" d="M1888.552,977.714c0,0-0.182,5.345-0.495,14.662c0,0.041-0.01,0.081-0.01,0.111v0.131
					c0,0.01,0,0.01,0,0.02c-0.01,0.151-0.01,0.313-0.02,0.475c0,0.01,0,0.01,0,0.02c-0.384,10.964-0.96,27.171-1.667,46.522
					c-0.01,0.475-0.03,0.96-0.051,1.445c-2.698,73.43-7.316,190.755-11.024,241.077c-4.477,60.699-23.686,226.718-28.546,268.298
					c-0.041,0.414-0.091,0.808-0.132,1.193c-0.626,5.365-0.98,8.346-0.98,8.346s-0.424,2.829-8.013,4.729
					c-4.385,1.091-11.166,1.88-21.654,1.627c-29.04-0.697-40.732-5.325-45.37-8.498c-2.516-1.718-2.95-3.011-2.95-3.011
					s0.05-1.778,0.131-5.012c0.01-0.364,0.02-0.758,0.03-1.162c0.05-1.93,0.111-4.264,0.172-6.972v-0.01
					c0.01-0.424,0.02-0.849,0.03-1.293c1.021-40.984,3.749-157.824,2.769-200.658c-1.081-47.634-10.974-178.761-12.388-197.334
					c-0.111-1.435-0.172-2.203-0.172-2.203s-0.202,0.667-0.596,1.92c-5.022,16.299-40.742,131.855-54.949,171.739
					c-18.795,52.736-74.663,191.382-92.619,235.772l-0.475,1.152c-3.264,8.084-5.153,12.732-5.153,12.732s-1.475,1.516-6.134,2.536
					c-5.719,1.253-16.228,1.758-34.709-2.183c-13.571-2.89-21.119-6.406-25.312-9.417c-5.265-3.789-5.265-6.78-5.265-6.78
					s0.364-1.758,1.031-4.982v-0.01c0.081-0.354,0.162-0.718,0.242-1.101c6.75-32.466,38.499-185.703,47.967-241.107
					c9.539-55.838,36.67-203.861,52.332-288.973c0.071-0.374,0.131-0.748,0.202-1.111c1.263-6.841,2.445-13.267,3.536-19.189
					c4.769-25.898,7.801-42.278,7.801-42.278L1888.552,977.714z"/>
			</g>
			<g>
				<path style="fill:#FFBF61;" d="M1619.088,677.177c0,0,36.385,160.896,9.533,305.341c0,0,6.062,18.426,74.274,22.274
					c190.774,10.761,185.146-12.2,185.146-12.2s21.86-229.798,8.106-319.885C1884.469,596.219,1619.088,677.177,1619.088,677.177z"
					/>
			</g>
			<path style="fill:#FFBF61;" d="M2040.152,740.528c-1.576,0.573-43.706,19.939-78.416,35.919
				c-8.484-2.857-14.923-30.63-19.346-44.026c-20.4-61.785-40.949-104.319-79.092-129.312
				c-35.521-28.638-180.943-35.821-226.43-5.512c-155.212,103.42-162.244,209.276-137.769,237.782
				c29.14,33.939,89.695,16.714,142.193,5.968c32.628,52.733,72.619,110.701,114.388,110.701c43.607,0,84.272-34.874,112.594-83.926
				c2.234,0.941,25.428,29.015,90.031,26.368c49.743-2.038,79.321-33.494,134.899-105.153L2040.152,740.528z"/>
			<g>
				<g>
					<path style="fill:#FFFFFF;" d="M1758.647,1142.061c1.943-11.359,4.813-22.539,8.672-33.4c1.978-5.568,4.206-11.046,6.68-16.412
						c2.295-4.978,4.568-11.255,9.735-13.887c0.648-0.33,0.077-1.305-0.57-0.975c-4.434,2.259-6.542,6.771-8.615,11.06
						c-2.613,5.407-4.979,10.935-7.092,16.557c-4.475,11.907-7.755,24.222-9.899,36.757
						C1757.437,1142.472,1758.525,1142.777,1758.647,1142.061L1758.647,1142.061z"/>
				</g>
			</g>
			<g>
				<g>
					<path style="fill:#FFFFFF;" d="M1641.54,1064.675c30.017,5.078,65.166-16.208,71.97-46.434c0.159-0.708-0.929-1.01-1.089-0.3
						c-6.658,29.578-41.148,50.624-70.581,45.645C1641.129,1063.466,1640.824,1064.554,1641.54,1064.675L1641.54,1064.675z"/>
				</g>
			</g>
			<g>
				<g>
					<path style="fill:#FFFFFF;" d="M1628.471,1010.206c29.818,6.738,60.441,7.909,90.894,8.604
						c31.356,0.715,62.869,1.852,94.228,0.909c16.93-0.509,33.848-2.142,50.293-6.337c0.704-0.18,0.406-1.269-0.3-1.089
						c-29.771,7.595-60.772,6.679-91.245,6.31c-30.685-0.372-61.497-0.424-92.127-2.455c-17.292-1.147-34.525-3.207-51.442-7.03
						C1628.064,1008.957,1627.761,1010.046,1628.471,1010.206L1628.471,1010.206z"/>
				</g>
			</g>
			<g>
				<g>
					<path style="fill:#FFFFFF;" d="M1641.145,1063.98c-3.495,18.907-7.103,37.794-10.675,56.686
						c-6.986,36.943-13.995,73.882-21.023,110.817c-8.261,43.42-16.548,86.836-24.881,130.242
						c-7.353,38.301-14.729,76.597-22.232,114.869c-4.231,21.579-8.219,43.249-13.078,64.699c-0.213,0.941-0.429,1.88-0.664,2.816
						c-0.177,0.705,0.912,1.006,1.089,0.3c4.677-18.606,7.87-37.677,11.576-56.49c7.266-36.885,14.385-73.799,21.483-110.717
						c8.345-43.404,16.639-86.818,24.907-130.236c7.296-38.315,14.572-76.635,21.824-114.958
						c4.092-21.625,8.198-43.248,12.235-64.883c0.177-0.948,0.354-1.897,0.529-2.845
						C1642.366,1063.57,1641.277,1063.265,1641.145,1063.98L1641.145,1063.98z"/>
				</g>
			</g>
			<g>
				<g>
					<path style="fill:#FFFFFF;" d="M1863.316,1014.299c6.219,10.134,13.964,19.162,23.046,26.838
						c0.552,0.466,1.355-0.329,0.799-0.799c-9.014-7.618-16.696-16.548-22.87-26.609
						C1863.912,1013.11,1862.934,1013.677,1863.316,1014.299L1863.316,1014.299z"/>
				</g>
			</g>
			<g>
				<path style="fill:#262F36;" d="M1769.064,408.39c0,0-37.925-5.943-52.514,35.149c-13.035,36.715,17.86,91.197,39.6,92.853
					C1777.892,538.049,1775,412.538,1769.064,408.39z"/>
			</g>
			<g>
				<path style="fill:#FBC7B1;" d="M1766.225,615.095c11.678,1.205,17.96-0.532,21.493-3.171c9.257-6.453,0.933-18.939,0.355-22.917
					c-1.642-11.283,1.439-37.806,3.055-48.906c-47.665-29.985-10.093-6.352-45.812-28.805
					c-10.791,46.715-20.175,66.216-20.752,69.392c-0.888,4.89-0.551,10.843,3.021,16.53
					C1732.786,605.5,1744.789,612.888,1766.225,615.095z"/>
			</g>
			<g>
				<path style="fill:#FC9171;" d="M1788.072,589.038v-0.031c-0.423-2.909-0.538-6.788-0.439-11.105
					c0.077-4.063,0.346-8.527,0.708-12.89c0.023-0.262,0.046-0.523,0.069-0.785c-7.296-5.526-19.531-17.2-25.28-22.787
					c-1.962-1.893-3.163-3.086-3.163-3.086c-0.031,0.339-3.802-2.293-3.817-1.962
					C1754.681,562.857,1776.175,584.905,1788.072,589.038z"/>
			</g>
			<g>
				<path style="fill:#FBC7B1;" d="M1749.718,494.197c0,0-16.268,65.644,38.625,79.947c53.987,14.067,54.844-28.504,62.722-87.356
					C1855.819,451.266,1772.603,390.106,1749.718,494.197z"/>
			</g>
			<g>
				<g>
					<path style="fill:#F69582;" d="M1746.952,525.4c3.18,15.348,10.123,29.56,20.332,41.46c0.468,0.546,1.403-0.089,0.929-0.642
						c-10.066-11.732-16.999-25.761-20.135-40.903C1747.932,524.613,1746.805,524.689,1746.952,525.4L1746.952,525.4z"/>
				</g>
			</g>
			<g>
				<g>
					<path style="fill:#F69582;" d="M1790.756,533.984c3.459,9.571,11.766,17.181,22.453,16.197c0.795-0.073,0.802-1.324,0-1.25
						c-10.133,0.933-17.965-6.197-21.247-15.279C1791.691,532.9,1790.482,533.224,1790.756,533.984L1790.756,533.984z"/>
				</g>
			</g>
			<g>
				<g>
					<path style="fill:#F69582;" d="M1815.702,503.825c-3.216,3.967-3.256,9.262-3.197,14.148c0.04,3.285,0.278,6.567,0.221,9.853
						c-0.031,1.768,0.57,4.877-1.84,5.347c-0.961,0.187-2.501-0.385-3.571-0.375c-0.804,0.007-0.806,1.258,0,1.251
						c1.675-0.015,3.86,0.961,5.386-0.166c1.619-1.196,1.247-4.359,1.275-6.056c0.118-7.097-2.232-17.144,2.61-23.117
						C1817.089,504.09,1816.209,503.2,1815.702,503.825L1815.702,503.825z"/>
				</g>
			</g>
			<g>
				<path style="fill:#E8775A;" d="M1808.842,494.082c-0.238,3.294-5.656,3.617-12.276,3.139c-6.62-0.478-11.936-1.574-11.698-4.868
					c0.238-3.294,5.879-6.709,12.499-6.232C1803.987,486.599,1809.08,490.788,1808.842,494.082z"/>
			</g>
			<g>
				<path style="fill:#E8775A;" d="M1844.924,503.992c-0.854,3.19-6.613,2.385-13.491,0.545c-6.878-1.841-12.269-4.02-11.415-7.211
					c0.854-3.19,7.415-5.381,14.293-3.54S1845.778,500.802,1844.924,503.992z"/>
			</g>
			<g>
				<path style="fill:#262F36;" d="M1799.986,512.135c-0.55,2.848-2.612,4.845-4.604,4.46c-1.992-0.385-3.161-3.006-2.611-5.854
					c0.551-2.848,2.612-4.845,4.604-4.46C1799.368,506.666,1800.537,509.287,1799.986,512.135z"/>
			</g>
			<g>
				<path style="fill:#262F36;" d="M1827.394,515.583c-0.551,2.848-2.612,4.845-4.604,4.46c-1.992-0.385-3.161-3.006-2.61-5.854
					c0.55-2.848,2.612-4.845,4.604-4.46C1826.775,510.114,1827.944,512.735,1827.394,515.583z"/>
			</g>
			<g>
				<path style="fill:#262F36;" d="M1740.614,488.001c1.849,1.013,3.338,2.577,5.217,3.524c5.638,2.839,12.349,3.581,18.428,1.839
					c7.6-2.177,14.183-8.488,15.512-16.281c0.664-3.895,0.42-7.907-0.076-11.827c-0.008-0.066-0.016-0.133-0.024-0.199
					c-0.744-6.336,5.587-11.283,11.547-9.006c2.723,1.04,5.304,2.429,7.291,3.793c7.628,5.237,14.96,10.905,21.949,16.969
					c4.611,4.001,9.712,7.418,15.232,10.026c27.385,12.94,36.056-6.397,31.264-23.77c-2.761-10.01-16.987-24.271-31.986-28.074
					c0,0,18.485,3.578,19.79-5.753c2.071-14.813-57.311-35.292-85.692-20.853c0,0-22.762,0.02-31.719,16.443
					C1728.389,441.257,1725.098,479.502,1740.614,488.001z"/>
			</g>
			<g>
				<g>
					<path style="fill:#FBC7B1;" d="M1738.966,484.361c6.312-4.959,16.488-2.538,22.73,5.407c6.241,7.945,6.185,18.405-0.127,23.364
						c-6.312,4.959-16.488,2.538-22.73-5.407C1732.598,499.78,1732.655,489.319,1738.966,484.361z"/>
				</g>
				<g>
					<g>
						<path style="fill:#F69582;" d="M1734.13,490.955c-0.964,5.48-0.72,11.125,2.899,15.634c4.005,4.99,9.999,9.12,16.245,10.557
							c0.707,0.163,1.009-0.926,0.3-1.089c-5.648-1.299-10.566-4.742-14.525-8.906c-4.233-4.452-4.864-10.019-3.83-15.896
							C1735.344,490.544,1734.256,490.239,1734.13,490.955L1734.13,490.955z"/>
					</g>
				</g>
			</g>
			<g>
				<g>
					<path style="fill:#F69582;" d="M1753.95,497.01c0.812,1.469,1.453,3.128,0.291,4.605c-0.359,0.457-0.958,0.759-1.337,1.236
						c-1.017,1.283-1.392,2.854-1.255,4.466c0.068,0.796,1.319,0.803,1.25,0c-0.154-1.801,0.408-3.277,1.793-4.467
						c0.568-0.488,1.239-0.823,1.536-1.554c0.618-1.517-0.485-3.627-1.199-4.918C1754.64,495.674,1753.56,496.304,1753.95,497.01
						L1753.95,497.01z"/>
				</g>
			</g>
			<g>
				<g>
					<path style="fill:#F69582;" d="M1759.461,488.331c1.232,1.092,2.211,2.412,2.845,3.936c0.304,0.732,1.515,0.411,1.206-0.332
						c-0.719-1.729-1.762-3.242-3.166-4.487C1759.745,486.914,1758.857,487.795,1759.461,488.331L1759.461,488.331z"/>
				</g>
			</g>
			<g>
				<g>
					<path style="fill:#FFFFFF;" d="M1695.876,758.019c-43.658-4.041-87.858,0.278-129.911,12.682c-0.696,0.205-0.4,1.295,0.3,1.089
						c41.964-12.378,86.046-16.674,129.611-12.642C1696.599,759.215,1696.595,758.085,1695.876,758.019L1695.876,758.019z"/>
				</g>
			</g>
			<g>
				<g>
					<path style="fill:#FFFFFF;" d="M1666.686,724.247c-11.573,9.974-21.737,21.405-30.306,34.052
						c-0.409,0.603,0.569,1.169,0.975,0.57c8.516-12.57,18.629-23.912,30.129-33.823
						C1668.036,724.57,1667.234,723.774,1666.686,724.247L1666.686,724.247z"/>
				</g>
			</g>
			<g>
				<g>
					<path style="fill:#FFFFFF;" d="M1669.908,835.168c-41.558,8.14-83.116,16.281-124.673,24.421
						c-0.713,0.139-0.411,1.228,0.3,1.089c41.558-8.14,83.115-16.281,124.673-24.421
						C1670.921,836.117,1670.62,835.029,1669.908,835.168L1669.908,835.168z"/>
				</g>
			</g>
			<g>
				<path style="fill:#353659;" d="M1661.48,823.342c0.037,1.371,0.138,2.669,0.322,3.866c0.699,4.621,2.448,7.861,5.283,9.039
					c0.451,0.193,0.93,0.322,1.417,0.405c0,0,0,0,0.009,0c1.841,0.294,3.903-0.193,6.103-1.353
					c4.796-2.513,10.189-8.229,15.141-16.025c0.009,0,0.009,0,0.009,0c2.844-4.473,5.541-9.637,7.907-15.27
					c0-0.009,0.009-0.018,0.009-0.028c0.635-1.51,1.224-3.01,1.767-4.501c2.669-7.308,4.326-14.341,4.943-20.425
					c0.746-7.345,0.009-13.319-2.246-16.789c-0.285-0.442-0.599-0.847-0.939-1.206c-0.654-0.69-1.399-1.224-2.237-1.574
					c-2.439-1.022-5.385-0.396-8.551,1.574c-4.989,3.093-10.521,9.499-15.5,17.995c-0.037,0.064-0.074,0.12-0.111,0.184
					c-2.227,3.82-4.344,8.054-6.24,12.592c-1.896,4.547-3.424,9.02-4.556,13.291C1662.189,811.928,1661.342,818.206,1661.48,823.342
					z"/>
			</g>
			<g>
				<g>
					<path style="fill:#FFFFFF;" d="M1695.726,758.039c-4.863,1.204-8.898,4.765-12.227,8.346
						c-4.708,5.064-8.541,10.955-11.815,17.025c-6.373,11.815-12.169,26.223-11.255,39.914c0.343,5.146,1.958,10.356,6.372,13.411
						c0.599,0.415,1.164-0.564,0.57-0.975c-9.226-6.384-5.86-21.842-3.345-30.729c3.625-12.81,9.845-25.601,18.47-35.807
						c3.562-4.215,7.995-8.723,13.531-10.094C1696.731,758.953,1696.433,757.864,1695.726,758.039L1695.726,758.039z"/>
				</g>
			</g>
			<g>
				<g>
					<path style="fill:#FFFFFF;" d="M1791.239,600.715c3.052,9.074-7.335,13.522-14.515,13.923c-7.53,0.421-15.214-0.576-22.488-2.5
						c-7.037-1.862-14.132-4.636-20.259-8.615c-6.984-4.535-10.383-14.424-8.341-22.475c0.179-0.705-0.91-1.005-1.089-0.3
						c-1.918,7.563,0.75,17.674,7.085,22.523c6.915,5.293,16.154,8.556,24.547,10.514c8.239,1.922,18.12,3.399,26.424,1.121
						c6.292-1.726,12.058-7.553,9.725-14.491C1792.097,599.73,1791.006,600.024,1791.239,600.715L1791.239,600.715z"/>
				</g>
			</g>
			<g>
				<g>
					<path style="fill:#FFFFFF;" d="M1846.739,1550.476c-0.041,0.414-0.091,0.808-0.132,1.193
						c-5.143,1.081-10.327,1.92-15.541,2.536c-20.462,2.385-41.328,1.111-61.386-3.87c-0.637-0.151-1.273-0.313-1.91-0.485
						c0.01-0.364,0.02-0.758,0.03-1.162c0.566,0.162,1.132,0.303,1.698,0.445c19.957,5.002,40.701,6.325,61.083,3.991h0.01
						C1836.008,1552.507,1841.394,1551.628,1846.739,1550.476z"/>
				</g>
			</g>
			<g>
				<g>
					<path style="fill:#FFFFFF;" d="M1610.048,1549.647l-0.475,1.152c-6.719,0.384-13.469,0.445-20.199,0.233
						c-4.85-0.152-9.69-0.455-14.51-0.869c-11.641-1.01-23.413-2.718-34.79-5.729c-2.021-0.535-4.042-1.111-6.043-1.728v-0.01
						c0.081-0.354,0.162-0.718,0.242-1.101c1.991,0.616,3.992,1.192,6.002,1.718c11.317,3.001,23.008,4.709,34.588,5.719
						c4.688,0.414,9.407,0.707,14.126,0.869C1596.002,1550.132,1603.035,1550.072,1610.048,1549.647z"/>
				</g>
			</g>
			<g>
				<path style="fill:#C1B2FF;" d="M1781.95,687.093L1781.95,687.093c-3.993,0.512-7.645-2.31-8.157-6.303l-1.414-11.035
					l-28.62,3.668l1.414,11.035c0.512,3.993-2.31,7.645-6.303,8.156l0,0c-10.21,1.309-17.426,10.647-16.118,20.857l16.688,130.207
					c1.309,10.21,10.647,17.426,20.857,16.118l43.08-5.521c10.21-1.309,17.426-10.646,16.118-20.857l-16.688-130.207
					C1801.498,693.001,1792.16,685.785,1781.95,687.093z"/>
				<path style="fill:#A89BED;" d="M1773.423,680.831l-28.13,3.605c-1.203,0.154-2.304-0.696-2.458-1.9l-1.028-8.018
					c-0.154-1.203,0.696-2.304,1.9-2.458l28.13-3.605c1.203-0.154,2.304,0.696,2.458,1.9l1.028,8.018
					C1775.477,679.577,1774.627,680.677,1773.423,680.831z"/>
				
					<rect x="1730.057" y="743.048" transform="matrix(0.9919 -0.1271 0.1271 0.9919 -83.2546 231.293)" style="fill:#A89BED;" width="80.709" height="49.695"/>
			</g>
			<g>
				<g>
					<path style="fill:#FBC7B1;" d="M1705.145,805.898c3.889,0.583,7.877,0.211,11.625-0.959c5.991-1.871,11.376-5.795,14.717-11.12
						c1.94-3.071,3.22-6.508,4.959-9.691c2.708-4.982,6.57-9.311,11.158-12.636c0.144,0.006,0.276,0.016,0.415,0.031
						c4.44,0.237,8.84,1.073,13.289,1.199c5.383,0.151,11.202-0.994,14.905-4.906c0.406-0.427,0.79-0.909,0.873-1.494
						c0.187-1.339-1.259-2.28-2.492-2.829c-6.868-3.104-14.168-5.754-21.59-7.502c0.268-0.009,0.533-0.03,0.801-0.039
						c5.385-0.08,10.725,1.132,16.116,1.287c5.387,0.142,11.202-0.994,14.905-4.906c0.406-0.427,0.794-0.917,0.873-1.495
						c0.187-1.339-1.259-2.28-2.487-2.837c-4.953-2.229-10.127-4.233-15.409-5.833c2.224,0.036,4.456,0.056,6.676-0.11
						c5.37-0.394,11.041-2.106,14.339-6.369c0.354-0.466,0.699-0.991,0.721-1.579c0.047-1.354-1.484-2.142-2.771-2.574
						c-10.362-3.468-21.523-5.938-32.433-6.035c1.903-0.827,3.85-1.545,5.871-2.053c4.825-1.213,9.865-1.243,14.73-2.244
						c4.877-1.005,9.847-3.254,12.352-7.548c0.28-0.466,0.525-0.982,0.474-1.516c-0.118-1.245-1.606-1.789-2.832-2.028
						c-16.034-3.137-33.67-3.605-48.114,3.369c-2.357,1.132-4.624,2.462-6.786,4.019c-6.71,4.81-11.916,11.404-16.807,18.057
						c-5.006,6.821-9.78,13.813-14.306,20.965c-2.062,3.403-4.226,6.802-6.151,10.187c-0.183,0.309-0.362,0.631-0.536,0.945
						c-6.627,11.913-9.92,23.721,5.208,35.549C1699.763,804.611,1702.443,805.491,1705.145,805.898z"/>
				</g>
				<g>
					<path style="fill:#FBC7B1;" d="M1664.011,805.117c7.907-0.792,43.361,1.053,43.361,1.053l9.81-40.158
						c0,0-13.315-17.277-16.067-12.919c-3.111,4.927-10.697,7.962-10.697,7.962c-4.989,3.093-10.521,9.499-15.5,17.995
						c-0.037,0.064-0.074,0.12-0.111,0.184c-2.227,3.82-4.344,8.054-6.24,12.592
						C1666.671,796.373,1665.143,800.846,1664.011,805.117z"/>
				</g>
				<g>
					<g>
						<path style="fill:#FC9171;" d="M1767.278,740.709c-4.4-0.062-8.823-0.258-13.222-0.149c-3.164,0.078-6.152,0.568-8.797,2.404
							c-0.606,0.421-0.023,1.413,0.586,0.99c3.037-2.109,6.577-2.277,10.16-2.252c3.766,0.027,7.532,0.104,11.297,0.157
							C1768.043,741.87,1768.019,740.719,1767.278,740.709L1767.278,740.709z"/>
					</g>
				</g>
				<g>
					<g>
						<path style="fill:#FC9171;" d="M1753.922,755.808c-5.215-1.558-10.793-0.525-15.086,2.828c-0.577,0.45,0.004,1.445,0.586,0.99
							c4.079-3.185,9.265-4.182,14.228-2.7C1754.359,757.138,1754.631,756.02,1753.922,755.808L1753.922,755.808z"/>
					</g>
				</g>
				<g>
					<g>
						<path style="fill:#FC9171;" d="M1754.429,724.843c-4.255,0.791-8.54,1.156-12.867,1.114c-0.741-0.007-0.717,1.143,0.025,1.151
							c4.425,0.043,8.809-0.349,13.158-1.158C1755.473,725.814,1755.152,724.708,1754.429,724.843L1754.429,724.843z"/>
					</g>
				</g>
			</g>
			<path style="fill:#FF6A51;" d="M2109.382,761.886c-7.457-31.25-22.611-60.634-43.749-84.828l-1.23-2.913
				c0.313-4.123-0.082-8.299-1.163-12.29c-28.44,11.074-58.004,19.26-88.089,24.393c-1.865,0.318-4.031,0.85-4.765,2.593
				c-0.471,1.121-0.176,2.397,0.083,3.585c2.071,9.499,1.382,19.345,1.424,29.067c0.13,29.854,8.3,61.26,29.95,81.816
				c4.879,4.633,10.596,8.979,12.751,15.353c0.904,2.673,1.118,5.571,2.298,8.134c33.24-15.637,68.063-27.908,103.763-36.565
				C2113.669,782.672,2111.771,771.897,2109.382,761.886z"/>
			<g>
				<g>
					<path style="fill:#FBC7B1;" d="M2116.798,732.14l-18.746-39.292c-3.123-6.546-10.999-9.26-17.501-6.048
						c-6.147,3.037-11.187,6.09-10.959,7.078c0.52,2.277,5.378,2.457,11.528,1.742c-0.254,0.539-0.474,1.108-0.672,1.685
						c-17.599,6.103-29.569,13.638-28.167,18.094c1.508,4.796,11.578,1.51,28.286-3.268l0.052,0.867
						c-19.836,7.913-33.25,15.513-30.992,21.335c2.404,6.225,12.875,3.529,32.119-3.6l0.062,0.908
						c-18.413,7.178-26.125,14.216-23.761,20.339c2.719,7.022,10.658,2.931,29.087-4.135c0.23,0.151,0.452,0.305,0.685,0.444
						c-11.632,7.146-13.738,12.958-12.007,16.431c2.402,4.803,17.307-1.503,32.677-8.937
						C2117.29,751.528,2121.008,740.965,2116.798,732.14z"/>
				</g>
				<g>
					<g>
						<path style="fill:#FC9171;" d="M2074.803,714.92c6.196-2.956,12.503-5.646,18.926-8.072c0.693-0.262,0.194-1.299-0.495-1.039
							c-6.423,2.426-12.729,5.116-18.926,8.072C2073.64,714.201,2074.134,715.24,2074.803,714.92L2074.803,714.92z"/>
					</g>
				</g>
				<g>
					<g>
						<path style="fill:#FC9171;" d="M2077.808,732.403c6.508-1.577,12.641-4.08,18.385-7.528c0.629-0.378,0.14-1.42-0.496-1.038
							c-5.665,3.401-11.664,5.875-18.091,7.433C2076.889,731.444,2077.088,732.578,2077.808,732.403L2077.808,732.403z"/>
					</g>
				</g>
				<g>
					<g>
						<path style="fill:#FC9171;" d="M2085.202,749.552c5.5-2.972,11-5.944,16.499-8.915c0.649-0.351,0.158-1.391-0.495-1.039
							c-5.5,2.972-11,5.944-16.499,8.915C2084.057,748.864,2084.549,749.905,2085.202,749.552L2085.202,749.552z"/>
					</g>
				</g>
				<g>
					<g>
						<path style="fill:#FC9171;" d="M2078.446,697.645c3.214-1.848,6.56-3.363,10.069-4.559c0.699-0.239,0.198-1.275-0.495-1.039
							c-3.509,1.197-6.855,2.712-10.069,4.559C2077.313,696.973,2077.802,698.015,2078.446,697.645L2078.446,697.645z"/>
					</g>
				</g>
			</g>
			<g>
				<path style="fill:#FFFFFF;" d="M1902.81,726.322c-4.568,64.863-7.412,129.838-8.528,194.852c-0.014,0.813,1.249,0.813,1.263,0
					c1.116-65.014,3.96-129.989,8.528-194.852C1904.13,725.51,1902.867,725.514,1902.81,726.322L1902.81,726.322z"/>
			</g>
			<g>
				<path style="fill:#FFFFFF;" d="M1964.454,774.031c-13.113,6.295-20.682,20.811-24.603,34.209
					c-4.397,15.027-4.87,30.887-4.863,46.436c0,0.813,1.263,0.814,1.263,0c-0.007-14.389,0.398-28.975,3.969-42.992
					c3.602-14.14,11.073-29.938,24.871-36.562C1965.824,774.77,1965.185,773.681,1964.454,774.031L1964.454,774.031z"/>
			</g>
		</g>
		<g>
			<path style="fill:#353659;" d="M2030.567,1631.227h-24.744c-4.554,0-8.245-3.692-8.245-8.245v-26.766
				c0-4.554,3.692-8.245,8.245-8.245h24.744c4.554,0,8.245,3.692,8.245,8.245v26.766
				C2038.813,1627.535,2035.121,1631.227,2030.567,1631.227z"/>
			<path style="fill:#353659;" d="M2391.068,1631.227h-24.744c-4.554,0-8.245-3.692-8.245-8.245v-26.766
				c0-4.554,3.691-8.245,8.245-8.245h24.744c4.554,0,8.245,3.692,8.245,8.245v26.766
				C2399.313,1627.535,2395.621,1631.227,2391.068,1631.227z"/>
			<path style="fill:#8A80EE;" d="M2346.296,1631.227h-294.025c-13.996,0-25.691-10.656-26.99-24.591l-56.308-604.055
				c-1.482-15.896,11.026-29.623,26.99-29.623h391.872c15.703,0,28.121,13.301,27.043,28.967l-41.539,604.055
				C2372.362,1620.195,2360.545,1631.227,2346.296,1631.227z"/>
			<path style="fill:#8A80EE;" d="M2414.055,1010.945h-452.713c-6.816,0-12.342-5.526-12.342-12.342V964.85
				c0-6.816,5.526-12.342,12.342-12.342h452.713c6.816,0,12.342,5.526,12.342,12.342v33.753
				C2426.397,1005.42,2420.872,1010.945,2414.055,1010.945z"/>
			<path style="fill:#645ECF;" d="M1983.269,1010.945c0,0,220.531,17.315,396.209,1.842L1983.269,1010.945z"/>
			<g>
				<path style="fill:#645ECF;" d="M2116.222,1305.643c0-0.125-0.076-0.219-0.175-0.284l22.045-35.924l15.351,9.496l-19.204-50.099
					h-61.788l19.952,12.342l-24.788,39.98c-0.106-0.063-0.232-0.088-0.362-0.03c-0.167,0.111-0.216,0.32-0.118,0.487
					c0.032,0.053,0.751,1.194,2.173,2.947l32.83,54.907c8.517,14.244,23.892,22.964,40.488,22.964h37.537v-56.778h-63.943
					C2116.22,1305.647,2116.222,1305.645,2116.222,1305.643z"/>
				<path style="fill:#645ECF;" d="M2200.568,1172.349l19.932,37.114l-15.933,8.483l52.955,8.629l31.107-53.387l-20.708,11.026
					l-22.066-41.547c0.115-0.062,0.207-0.161,0.202-0.308c-0.007-0.181-0.16-0.347-0.354-0.347h-0.007
					c-0.061,0.003-1.43,0.051-3.697,0.407l-63.904,0.724c-16.595,0.188-31.87,9.082-40.225,23.421l-18.897,32.433l49.058,28.584
					l32.186-55.24c0.055,0.027,0.117,0.055,0.179,0.055C2200.456,1172.397,2200.515,1172.379,2200.568,1172.349z"/>
				<path style="fill:#645ECF;" d="M2312.847,1253.035l-19.812-31.883l-48.226,29.967l33.744,54.304
					c-0.109,0.074-0.144,0.189-0.14,0.307l-42.159,0.237l-0.037-18.051l-32.417,42.753l32.611,52.482l-0.048-23.461l47.04-0.047
					c0.001,0.127,0.046,0.252,0.17,0.321c0.049,0.028,0.104,0.042,0.16,0.042c0.132,0,0.257-0.083,0.32-0.208
					c0.027-0.053,0.615-1.263,1.352-3.392l29.306-56.86C2322.314,1284.793,2321.606,1267.131,2312.847,1253.035z"/>
			</g>
			<g>
				<path style="fill:#FFFFFF;" d="M2121.135,1300.223l22.223-36.215l15.351,9.496l-19.204-50.099h-61.789l19.952,12.342
					l-24.962,40.262l34.698,58.029c8.516,14.244,23.891,22.964,40.487,22.964h37.537v-56.778H2121.135z"/>
				<g>
					<path style="fill:#9BDCA0;" d="M2121.134,1300.578c-33.423,0-48.581-24.144-48.734-24.395
						c-0.097-0.167-0.049-0.375,0.118-0.486c0.188-0.083,0.389-0.042,0.493,0.125c0.146,0.236,15.109,24.033,48.122,24.033
						c0.195,0,0.354,0.167,0.354,0.361S2121.329,1300.578,2121.134,1300.578z"/>
				</g>
				<path style="fill:#FFFFFF;" d="M2205.663,1166.604l20.103,37.433l-15.933,8.484l52.955,8.628l31.107-53.387l-20.709,11.026
					l-22.22-41.838l-67.606,0.766c-16.594,0.188-31.87,9.082-40.225,23.422l-18.898,32.433l49.059,28.584L2205.663,1166.604z"/>
				<g>
					<path style="fill:#9BDCA0;" d="M2205.66,1166.971c-0.063,0-0.125-0.028-0.181-0.056c-0.167-0.097-0.222-0.32-0.125-0.486
						c16.826-28.884,45.321-29.829,45.606-29.843h0.007c0.195,0,0.347,0.167,0.354,0.348c0.007,0.208-0.153,0.361-0.348,0.375
						c-0.278,0-28.384,0.945-45.008,29.482C2205.904,1166.901,2205.786,1166.971,2205.66,1166.971z"/>
				</g>
				<path style="fill:#FFFFFF;" d="M2284.009,1300.303l-42.489,0.238l-0.037-18.051l-32.417,42.753l32.611,52.482l-0.048-23.461
					l47.372-0.048l30.975-60.098c7.603-14.751,6.896-32.413-1.864-46.509l-19.812-31.883l-48.226,29.967L2284.009,1300.303z"/>
				<g>
					<path style="fill:#9BDCA0;" d="M2288.998,1354.58c-0.056,0-0.111-0.014-0.16-0.042c-0.174-0.097-0.243-0.306-0.16-0.473
						c0.132-0.264,12.454-25.534-4.969-53.585c-0.104-0.167-0.055-0.375,0.111-0.487c0.167-0.083,0.389-0.042,0.486,0.125
						c17.646,28.384,5.136,54.002,5.011,54.252C2289.255,1354.496,2289.13,1354.58,2288.998,1354.58z"/>
				</g>
			</g>
		</g>
	</g>
	<g>
		<g>
			<g>
				<g>
					<g>
						<g>
							<path style="fill:#FBC7B1;" d="M650.461,968.489c-0.431,3.661-1.751,7.177-3.734,10.278
								c-3.169,4.958-8.046,8.861-13.686,10.571c-3.256,0.998-6.681,1.308-9.989,2.096c-5.174,1.221-10.042,3.647-14.181,6.978
								c-0.03,0.132-0.053,0.253-0.075,0.383c-0.88,4.074-1.209,8.261-2.192,12.316c-1.191,4.906-3.661,9.887-8.112,12.273
								c-0.487,0.262-1.017,0.49-1.567,0.422c-1.257-0.161-1.752-1.701-1.945-2.951c-1.115-6.978-1.711-14.234-1.463-21.378
								c-0.074,0.24-0.159,0.475-0.233,0.715c-1.4,4.851-1.62,9.98-2.809,14.894c-1.199,4.908-3.661,9.887-8.112,12.272
								c-0.487,0.262-1.025,0.493-1.567,0.422c-1.257-0.161-1.752-1.701-1.953-2.949c-0.795-5.03-1.332-10.203-1.477-15.376
								c-0.515,2.02-1.048,4.044-1.745,6.011c-1.68,4.76-4.626,9.467-9.296,11.4c-0.509,0.206-1.069,0.388-1.606,0.262
								c-1.236-0.291-1.572-1.87-1.645-3.141c-0.582-10.228-0.064-20.932,2.537-30.825c-1.217,1.517-2.346,3.102-3.304,4.805
								c-2.287,4.065-3.556,8.617-5.661,12.771c-2.111,4.164-5.371,8.104-9.873,9.311c-0.49,0.139-1.018,0.233-1.488,0.056
								c-1.097-0.414-1.222-1.894-1.137-3.062c1.116-15.277,5.04-31.344,14.91-42.69c1.606-1.853,3.367-3.576,5.309-5.147
								c6.005-4.883,13.253-7.967,20.477-10.751c7.404-2.846,14.906-5.441,22.49-7.772c3.587-1.026,7.195-2.146,10.731-3.052
								c0.325-0.089,0.66-0.172,0.987-0.252c12.409-3.057,23.902-3.125,30.871,13.475
								C650.623,963.303,650.758,965.945,650.461,968.489z"/>
						</g>
					</g>
					<g>
						<g>
							<path style="fill:#FC9171;" d="M576.176,1008.617c1.029-3.995,1.942-8.044,3.125-11.997c0.851-2.842,2.031-5.425,4.344-7.364
								c0.53-0.444,1.284,0.328,0.752,0.774c-2.656,2.227-3.682,5.388-4.542,8.635c-0.904,3.413-1.763,6.838-2.643,10.257
								C577.038,1009.595,576.003,1009.29,576.176,1008.617L576.176,1008.617z"/>
						</g>
					</g>
					<g>
						<g>
							<path style="fill:#FC9171;" d="M593.127,1000.26c-0.123-5.101,2.186-9.892,6.277-12.948c0.55-0.411,1.306,0.36,0.751,0.774
								c-3.886,2.904-6.067,7.349-5.95,12.204C594.222,1000.983,593.144,1000.953,593.127,1000.26L593.127,1000.26z"/>
						</g>
					</g>
					<g>
						<g>
							<path style="fill:#FC9171;" d="M564.993,993.083c1.765-3.654,3.151-7.44,4.18-11.364c0.176-0.672,1.211-0.367,1.034,0.306
								c-1.052,4.013-2.487,7.882-4.291,11.617C565.614,994.267,564.693,993.704,564.993,993.083L564.993,993.083z"/>
						</g>
					</g>
				</g>
				<path style="fill:#FBC7B1;" d="M626.456,986.797c0,0-11.789,17.377-9.431,22.503c2.358,5.126,28.769-17.441,33.584-31.924
					C655.423,962.892,631.049,979.308,626.456,986.797z"/>
			</g>
			<path style="fill:#FF6A51;" d="M887.113,629.382c0,0,24.377,57.356-7.442,115.879c-31.819,58.523-68.914,122.791-110.223,161.674
				c-41.309,38.883-115.92,75.01-115.92,75.01s-35.31-12.935-45.004-37.624c0,0,86.33-86.006,101.298-106.027
				c14.968-20.021,102.602-197.921,102.602-197.921L887.113,629.382z"/>
			<g>
				<path style="fill:#2A2C4B;" d="M940.943,1600.461c0.176,7.441,0.394,14.69,0.36,21.427c-0.025,4.014-2.866,7.483-6.804,8.262
					c-9.972,1.986-20.372,1.835-30.603,1.659c-33.21-0.57-66.428-1.148-99.646-1.718c-3.419-0.059-7.24-0.268-9.126-3.687
					c-1.198-2.17-1.031-4.818,0.109-7.022c2.313-4.441,6.98-6.302,11.422-7.953c21.562-8.003,44.967-16.048,61.148-31.517
					c0.511-0.486,1.014-0.989,1.517-1.492c3.411-3.461,6.469-7.282,9.084-11.547c2.02-3.293,3.729-6.846,4.718-10.567
					c0.344-1.282,0.603-2.581,0.754-3.905c0.067-0.511,0.117-1.022,0.143-1.542l11.732-0.52l3.377-0.151l34.69-46.07
					c-3.092,11.472,6.874,69.005,6.916,82.531C940.742,1591.276,940.834,1595.902,940.943,1600.461z"/>
			</g>
			<g>
				<path style="fill:#8A80EE;" d="M941.315,1347.549c-1.051,46.249,2.213,178.751,2.981,208.934c0.01,0.414,0.02,0.798,0.03,1.162
					c0.081,3.234,0.131,5.012,0.131,5.012s-0.707,2.102-5.558,4.527c-5.941,2.961-18.097,6.396-42.773,6.982
					c-10.478,0.253-17.269-0.535-21.654-1.627c-7.589-1.9-8.013-4.729-8.013-4.729s-0.354-2.981-0.98-8.346
					c-0.04-0.384-0.091-0.778-0.131-1.192c-4.86-41.581-28.741-199.245-33.15-259.949c-9.031-124.359,2.593-404.523,2.593-404.523
					l231.184,62.932l-91.389,155.953C974.588,1112.684,942.487,1296.227,941.315,1347.549z"/>
			</g>
			<g>
				<g>
					<path style="fill:#FFFFFF;" d="M953.445,1149.856c-1.943-11.359-4.813-22.539-8.672-33.4
						c-1.978-5.567-4.206-11.046-6.68-16.412c-2.295-4.978-4.568-11.255-9.736-13.887c-0.648-0.33-0.077-1.305,0.57-0.975
						c4.434,2.259,6.542,6.771,8.615,11.06c2.613,5.407,4.979,10.935,7.092,16.557c4.475,11.907,7.755,24.222,9.899,36.757
						C954.656,1150.267,953.568,1150.572,953.445,1149.856L953.445,1149.856z"/>
				</g>
			</g>
			<g>
				<g>
					<g>
						<path style="fill:#FBC7B1;" d="M1162.495,1002.191c2.922,2.248,5.262,5.185,6.907,8.478c2.63,5.263,3.479,11.453,2.053,17.171
							c-0.814,3.307-2.304,6.406-3.325,9.65c-1.606,5.068-2.021,10.491-1.285,15.752c0.098,0.093,0.19,0.176,0.29,0.26
							c3.045,2.846,6.471,5.276,9.447,8.199c3.6,3.539,6.609,8.215,6.373,13.26c-0.025,0.552-0.101,1.124-0.442,1.561
							c-0.783,0.996-2.359,0.631-3.531,0.155c-6.561-2.623-13.096-5.833-19.101-9.711c0.168,0.187,0.326,0.38,0.494,0.566
							c3.446,3.69,7.735,6.511,11.344,10.052c3.598,3.547,6.609,8.215,6.373,13.26c-0.025,0.552-0.103,1.133-0.442,1.561
							c-0.783,0.996-2.359,0.631-3.534,0.163c-4.725-1.898-9.442-4.091-13.956-6.62c1.469,1.479,2.934,2.974,4.265,4.582
							c3.224,3.884,5.753,8.828,5.017,13.828c-0.085,0.542-0.215,1.116-0.599,1.513c-0.884,0.912-2.412,0.39-3.54-0.199
							c-9.079-4.747-18.001-10.683-25.158-17.991c0.678,1.823,1.459,3.605,2.429,5.301c2.316,4.049,5.573,7.473,8.058,11.411
							c2.491,3.949,4.201,8.768,2.928,13.252c-0.133,0.492-0.322,0.993-0.716,1.306c-0.919,0.73-2.253,0.077-3.211-0.595
							c-12.541-8.795-24.319-20.406-28.995-34.698c-0.767-2.329-1.342-4.725-1.695-7.197c-1.111-7.66-0.039-15.463,1.276-23.092
							c1.355-7.816,2.976-15.586,4.867-23.292c0.959-3.605,1.849-7.277,2.885-10.777c0.09-0.324,0.191-0.654,0.29-0.976
							c3.742-12.22,9.58-22.12,27.404-19.586C1158.127,999.391,1160.464,1000.63,1162.495,1002.191z"/>
					</g>
				</g>
				<g>
					<g>
						<path style="fill:#FC9171;" d="M1158.832,1086.541c-2.901-2.933-5.908-5.794-8.694-8.837
							c-2.003-2.188-3.615-4.526-4.093-7.506c-0.109-0.683,0.94-0.934,1.05-0.248c0.549,3.422,2.736,5.924,5.082,8.328
							c2.466,2.527,4.965,5.021,7.448,7.531C1160.114,1086.304,1159.321,1087.035,1158.832,1086.541L1158.832,1086.541z"/>
					</g>
				</g>
				<g>
					<g>
						<path style="fill:#FC9171;" d="M1160.354,1067.704c-4.442-2.511-7.369-6.951-7.895-12.031c-0.07-0.682,0.979-0.937,1.05-0.248
							c0.499,4.826,3.196,8.978,7.423,11.368C1161.537,1067.135,1160.958,1068.046,1160.354,1067.704L1160.354,1067.704z"/>
					</g>
				</g>
				<g>
					<g>
						<path style="fill:#FC9171;" d="M1139.761,1088.172c-2.231-3.389-4.77-6.522-7.61-9.418c-0.486-0.496,0.307-1.228,0.793-0.731
							c2.905,2.962,5.489,6.178,7.77,9.643C1141.096,1088.247,1140.14,1088.748,1139.761,1088.172L1139.761,1088.172z"/>
					</g>
				</g>
			</g>
			<g>
				<g>
					<path style="fill:#746EDE;" d="M944.296,1556.483c-2.162,0.576-4.335,1.101-6.528,1.566
						c-18.461,4.072-37.508,5.022-56.253,2.87h-0.01c-5.426-0.616-10.812-1.496-16.157-2.647c0.04,0.414,0.091,0.808,0.131,1.192
						c5.143,1.081,10.337,1.92,15.551,2.536c18.936,2.213,38.216,1.273,56.879-2.819c2.152-0.465,4.295-0.98,6.417-1.536
						L944.296,1556.483z"/>
				</g>
			</g>
			<g>
				<path style="fill:#2A2C4B;" d="M1264.153,1497.368c5.395,5.128,10.683,10.09,15.432,14.87c2.825,2.851,3.278,7.312,1.05,10.652
					c-5.632,8.466-13.08,15.725-20.427,22.849c-23.845,23.121-47.702,46.243-71.554,69.37c-2.455,2.38-5.301,4.939-9.054,3.861
					c-2.383-0.683-4.141-2.671-4.897-5.034c-1.513-4.773,0.464-9.393,2.429-13.704c9.551-20.922,20.373-43.179,20.838-65.561
					c0.017-0.705,0.015-1.416,0.014-2.127c-0.044-4.859-0.592-9.723-1.768-14.585c-0.907-3.755-2.217-7.474-4.155-10.801
					c-0.666-1.148-1.402-2.249-2.234-3.291c-0.315-0.408-0.641-0.805-0.991-1.189l7.913-8.677l2.277-2.499l14.91-42.472
					c5.943,10.288,30.675,29.22,40.286,38.737C1257.505,1491.028,1260.847,1494.228,1264.153,1497.368z"/>
			</g>
			<g>
				<path style="fill:#8A80EE;" d="M1137.002,1286.438c18.756,38.521,94.912,148.876,114.59,184.841
					c0.208,0.382,0.43,0.767,0.629,1.131c0.005,0.009,0.005,0.009,0.009,0.018c1.29,2.37,2.414,4.417,3.343,6.109
					c0.194,0.355,0.384,0.7,0.559,1.019c1.554,2.837,2.413,4.394,2.413,4.394s0.207,1.349-1.243,4.028
					c-2.66,4.941-10.93,14.412-36.432,28.343c-9.207,5.031-15.594,7.437-19.992,8.477c-7.615,1.789-9.289-0.531-9.289-0.531
					s-1.68-2.487-4.696-6.969c-0.212-0.323-0.437-0.65-0.663-1c-23.374-34.731-117.466-130.977-149.259-182.877
					c-39.772-64.93-150.363-307.052-150.363-307.052l151.287-136.673l35.577,90.466
					C1073.472,980.163,1114.518,1240.289,1137.002,1286.438z"/>
			</g>
			<g>
				<g>
					<path style="fill:#FFFFFF;" d="M1256.132,1479.557c-0.487,0.444-0.979,0.88-1.475,1.306
						c-15.541,13.605-33.499,24.307-52.779,31.564c-4.917,1.841-9.918,3.476-14.984,4.872c-0.212-0.323-0.437-0.65-0.663-1
						c5.279-1.426,10.469-3.112,15.574-5.051l0.009-0.005c19.176-7.26,37.008-17.943,52.454-31.533
						c0.438-0.385,0.876-0.77,1.305-1.173C1255.767,1478.892,1255.957,1479.238,1256.132,1479.557z"/>
				</g>
			</g>
			<g>
				<g>
					<path style="fill:#FF6A51;" d="M858.171,624.107c-19.823-7.81-23.915-56.297,5.166-75.872
						c29.081-19.575,126.133-1.145,126.133-1.145l-25.677,64.344C963.794,611.435,877.995,631.918,858.171,624.107z"/>
				</g>
			</g>
			<g>
				<path style="fill:#FF6A51;" d="M1005.871,1010.994c83.124,2.652,67.601-30.83,67.601-30.83
					c-10.122-124.77,11.738-284.476,11.738-284.476s33.86-123.552-198.54-112.309c-57.103,2.762-89.145,72.317-82.831,102.108
					c44.499,209.973,13.654,282.424,13.654,282.424S810.868,1004.773,1005.871,1010.994z"/>
			</g>
			<g>
				<path style="fill:#262F36;" d="M882.954,449.058l-22.547-12.65c0,0-4.373,49.957,6.078,61.251
					C876.937,508.953,882.954,449.058,882.954,449.058z"/>
			</g>
			<g>
				<path style="fill:#262F36;" d="M957.052,539.398c16.498,5.517,29.434-15.28,40.89-79.028
					c10.157-56.514-42.796-57.224-42.796-57.224C948.724,406.063,935.317,532.131,957.052,539.398z"/>
			</g>
			<g>
				<path style="fill:#FBC7B1;" d="M920.766,612.749c36.862,3.656,48.517-14.011,46.761-25.665
					c-6.883-45.823-8.116-69.97-8.118-70.071l-14.426,6.477l-3.423,1.267l-29.701,11.05c0,0-0.121,1.986-0.37,5.178
					c-0.189,2.388-0.445,5.432-0.779,8.845c-0.29,3.022-0.652,6.313-1.067,9.671c-0.03,0.256-0.06,0.511-0.09,0.767
					c-0.525,4.26-1.159,8.596-1.897,12.511c-0.767,4.163-1.653,7.862-2.64,10.568c-0.162,0.444-0.334,0.863-0.5,1.252
					C901.339,591.86,887.348,609.435,920.766,612.749z"/>
			</g>
			<g>
				<path style="fill:#FC9171;" d="M905.015,583.348l-0.006,0.03c12.243-1.588,37.275-18.449,41.154-44.138
					c0.052-0.321-4.093,1.451-4.055,1.12c0,0-1.391,0.905-3.652,2.329c-6.633,4.212-20.708,12.969-28.813,16.813
					c-0.03,0.256-0.06,0.511-0.09,0.767c-0.525,4.26-1.159,8.596-1.897,12.511C906.888,576.943,906.003,580.642,905.015,583.348z"/>
			</g>
			<g>
				<path style="fill:#FBC7B1;" d="M907.727,569.031c55.534-2.753,53.044-68.996,53.044-68.996
					c-1.155-104.459-90.027-80.219-95.771-27.367C858.712,530.529,853.11,571.739,907.727,569.031z"/>
			</g>
			<g>
				<g>
					<path style="fill:#FC9171;" d="M936.009,561.833c11.009-10.031,17.43-22.83,22.226-36.742c0.175-0.509-0.642-0.699-0.817-0.192
						c-4.752,13.783-11.1,26.408-22.013,36.351C935.006,561.614,935.612,562.195,936.009,561.833z"/>
				</g>
			</g>
			<g>
				<g>
					<path style="fill:#E8775A;" d="M892.315,519.857c-0.301,1.633-1.148,4.214,0.085,5.671c1.169,1.383,3.613,0.904,5.135,1.236
						c0.771,0.168,1.022-1.032,0.25-1.2c-1.025-0.223-2.617,0.018-3.501-0.354c-2.264-0.951-0.988-4.001-0.651-5.735
						c0.614-3.162,1.496-6.264,2.185-9.41c1.011-4.613,1.967-9.6-0.29-13.98c-0.361-0.702-1.384-0.024-1.025,0.672
						C898.013,503.57,893.595,512.902,892.315,519.857z"/>
				</g>
			</g>
			<g>
				<path style="fill:#E8775A;" d="M915.21,498.985c6.448,0.865,11.768,0.875,12.199-2.333c0.43-3.208-4.3-7.613-10.748-8.478
					c-6.448-0.865-12.172,2.137-12.603,5.346C903.627,496.728,908.762,498.12,915.21,498.985z"/>
			</g>
			<g>
				<path style="fill:#E8775A;" d="M880.29,497.28c6.968-0.392,12.577-1.405,12.395-4.637c-0.182-3.232-6.04-6.646-13.008-6.254
					c-6.968,0.391-12.406,4.44-12.225,7.672C867.634,497.292,873.322,497.671,880.29,497.28z"/>
			</g>
			<g>
				<path style="fill:#262F36;" d="M912.474,512.401c1.989,0.029,3.634-2.253,3.675-5.096c0.041-2.843-1.538-5.171-3.527-5.2
					c-1.989-0.029-3.634,2.253-3.675,5.096C908.906,510.044,910.485,512.372,912.474,512.401z"/>
			</g>
			<g>
				<path style="fill:#262F36;" d="M885.485,510.232c1.989,0.029,3.634-2.253,3.675-5.096c0.041-2.843-1.538-5.171-3.527-5.2
					c-1.989-0.029-3.634,2.253-3.675,5.096C881.917,507.875,883.496,510.203,885.485,510.232z"/>
			</g>
			<g>
				<path style="fill:#262F36;" d="M864.49,457.026c2.78,1.96,6.444,1.495,9.796,0.999c16.961-2.506,34.004-4.024,51.033-4.546
					c3.638-0.111,7.773,0.058,10.031,3.094c1.055,1.418,1.519,3.263,1.927,5.062c2.696,11.873,4.064,24.171,4.063,36.533
					l14.74,2.017c5.048,1.269,10.06-4.414,10.693-10.163c0.633-5.749-1.793-11.187-4.374-16.077
					c-0.727-1.376-1.481-2.766-1.823-4.327c-0.589-2.688,0.101-5.549,0.738-8.281c3.176-13.617,5.126-27.527,5.811-41.454
					c0.212-4.31,0.187-9.021-2.261-12.264c-1.405-1.861-3.445-2.989-5.494-3.901c-6.09-2.711-12.771-3.929-19.441-3.544
					c-4.346,0.251-8.873,1.15-12.903-0.456c-2.326-0.926-4.348-2.649-6.763-3.28c-5.446-1.424-10.779,2.918-15.89,5.826
					c-4.573,2.601-9.95,4.169-14.685,2.426c-2.151-0.792-4.056-2.225-6.229-2.947c-5.656-1.878-12.125,1.589-15.904,6.874
					c-3.779,5.285-5.346,12.012-6.25,18.567c-0.792,5.745-1.154,11.543-1.081,17.313C860.285,449.202,860.96,454.536,864.49,457.026
					z"/>
			</g>
			<g>
				<g>
					<path style="fill:#FBC7B1;" d="M956.498,513.419c7.577-6.376,9.614-16.425,4.548-22.445c-5.066-6.02-15.315-5.731-22.892,0.645
						c-7.577,6.376-9.614,16.425-4.548,22.445C938.672,520.083,948.921,519.795,956.498,513.419z"/>
				</g>
				<g>
					<g>
						<path style="fill:#E8775A;" d="M940.693,518.469c-0.712,0.016-0.642,1.121,0.07,1.105c6.313-0.141,12.924-2.92,17.774-6.946
							c4.33-3.594,5.658-8.956,5.831-14.36c0.023-0.711-1.082-0.638-1.105,0.07c-0.189,5.861-1.885,11.038-6.852,14.488
							C951.78,516.043,946.374,518.342,940.693,518.469z"/>
					</g>
				</g>
			</g>
			<g>
				<g>
					<path style="fill:#E8775A;" d="M943.23,499.295c-0.949,1.104-2.426,2.898-2.133,4.479c0.11,0.594,0.492,0.992,0.86,1.44
						c1.26,1.533,1.711,3.062,1.131,5.003c-0.226,0.756,0.975,1.001,1.2,0.25c0.454-1.52,0.408-3.101-0.312-4.536
						c-0.236-0.471-0.621-0.833-0.873-1.28c-1.041-1.841-0.164-3.138,1.037-4.535C944.654,499.518,943.745,498.696,943.23,499.295z"
						/>
				</g>
			</g>
			<g>
				<g>
					<path style="fill:#E8775A;" d="M936.893,493.815c0.938-1.366,2.139-2.456,3.574-3.282c0.469-0.27,0.035-0.987-0.433-0.719
						c-1.567,0.902-2.854,2.109-3.877,3.599C935.851,493.858,936.59,494.257,936.893,493.815z"/>
				</g>
			</g>
			<g>
				<g>
					<path style="fill:#FF6A51;" d="M918.495,621.494c0,0,38.83-24.34,57.648-64.904c11.492-24.772,31.975,5.343,46.863,16.092
						c14.888,10.749,22.66,30.134,16.845,37.073C1034.037,616.694,912.084,640.776,918.495,621.494z"/>
				</g>
			</g>
			<g>
				<path style="fill:#FFFFFF;" d="M905.216,582.838c-5.763,8.503-8.286,18.449-7.281,28.67c0.068,0.694,1.159,0.669,1.09-0.032
					c-0.988-10.051,1.483-19.758,7.148-28.115C906.567,582.78,905.607,582.261,905.216,582.838L905.216,582.838z"/>
			</g>
			<g>
				<path style="fill:#FFFFFF;" d="M1042.485,602.22c-2.382,10.103-13.709,13.594-22.22,17.005
					c-8.562,3.432-17.125,6.865-25.687,10.297c-15.62,6.262-31.421,14.074-48.081,17.09c-0.691,0.125-0.377,1.17,0.308,1.046
					c8.942-1.619,17.4-4.803,25.811-8.162c9.569-3.822,19.128-7.668,28.692-11.502c8.95-3.588,18.041-6.944,26.871-10.818
					c6.784-2.976,13.561-7.043,15.368-14.707C1043.708,601.787,1042.647,601.535,1042.485,602.22L1042.485,602.22z"/>
			</g>
			<g>
				<path style="fill:#FFFFFF;" d="M973.346,558.4c-6.639,15.079-15.866,29.279-27.95,40.569
					c-6.071,5.673-12.567,10.669-18.027,16.995c-5.182,6.002-9.473,12.634-12.744,19.86c-0.287,0.635,0.667,1.163,0.957,0.522
					c3.668-8.105,8.63-15.426,14.661-21.965c5.596-6.068,12.238-10.918,18.075-16.716c11.096-11.022,19.701-24.471,25.985-38.743
					C974.584,558.285,973.629,557.757,973.346,558.4L973.346,558.4z"/>
			</g>
			<path style="fill:#FF6A51;" d="M1050.614,613.271c0,0,43.867,20.839,69.129,82.478c25.262,61.638,54.341,129.339,58.382,185.925
				c4.042,56.586-1.796,135.402-1.796,135.402s-32.335,19.199-57.596,11.115c0,0-12.126-121.256-18.188-145.507
				c-6.063-24.251-88.638-190.995-88.638-190.995L1050.614,613.271z"/>
			<g>
				<path style="fill:#FFFFFF;" d="M880.146,625.279c4.535,11.712,0.378,23.755-2.013,35.462
					c-2.465,12.073-3.291,24.373-2.608,36.67c0.18,3.233,5.233,3.254,5.052,0c-0.763-13.735,0.543-27.166,3.575-40.572
					c2.457-10.862,5.038-22.126,0.864-32.904C883.856,620.936,878.969,622.24,880.146,625.279L880.146,625.279z"/>
			</g>
			<g>
				<path style="fill:#FFFFFF;" d="M922.844,640.76c-3.557,19.306,0.047,39.054,10.405,55.759c1.71,2.758,6.082,0.224,4.362-2.55
					c-9.62-15.514-13.207-33.887-9.895-51.865C928.301,638.924,923.433,637.561,922.844,640.76L922.844,640.76z"/>
			</g>
			<g>
				<path style="fill:#FFFFFF;" d="M1027.667,730.796c15.712,31.214,31.425,62.429,47.137,93.643
					c0.365,0.726,1.455,0.087,1.091-0.637c-15.712-31.214-31.425-62.429-47.137-93.643
					C1028.392,729.432,1027.302,730.071,1027.667,730.796L1027.667,730.796z"/>
			</g>
			<g>
				<path style="fill:#FFFFFF;" d="M820.318,739.321c5.917,37.372,7.689,75.259,5.315,113.02c-0.051,0.812,1.212,0.809,1.263,0
					c2.381-37.879,0.575-75.871-5.36-113.356C821.409,738.185,820.192,738.525,820.318,739.321L820.318,739.321z"/>
			</g>
			<g>
				<path style="fill:#FFFFFF;" d="M841.602,597.405c1.309,7.881,7.743,13.692,13.255,18.955c7.343,7.01,14.959,14.053,17.066,24.43
					c0.162,0.796,1.379,0.459,1.218-0.336c-1.627-8.013-6.495-14.314-12.168-19.986c-6.703-6.702-16.5-13.448-18.153-23.399
					C842.687,596.269,841.47,596.608,841.602,597.405L841.602,597.405z"/>
			</g>
			<g>
				<path style="fill:#E8775A;" d="M890.648,539.838c7.39-1.312,18.652-3.685,23.403-10.147c0.482-0.656-0.614-1.286-1.091-0.638
					c-4.509,6.133-15.614,8.317-22.648,9.567C889.514,538.762,889.852,539.979,890.648,539.838L890.648,539.838z"/>
			</g>
			<g>
				<path style="fill:#FFFFFF;" d="M994.909,1028.334c4.74,11.951,8.197,27.417,19.124,35.382
					c11.756,8.568,26.932,8.305,40.797,7.884c0.811-0.025,0.814-1.288,0-1.263c-13.203,0.401-27.463,0.741-38.934-6.859
					c-11.519-7.632-14.947-23.319-19.769-35.479C995.831,1027.252,994.609,1027.577,994.909,1028.334L994.909,1028.334z"/>
			</g>
			<g>
				<path style="fill:#FFFFFF;" d="M1052.549,1072.121c10.638,39.948,21.276,79.897,31.914,119.845
					c9.373,35.198,18.17,70.692,30.654,104.954c11.515,31.602,26.531,61.605,47.505,88.026
					c16.284,20.513,32.05,41.441,47.785,62.376c10.771,14.331,21.504,28.691,32.165,43.104c0.478,0.646,1.575,0.017,1.091-0.637
					c-24.02-32.471-48.189-64.859-73.039-96.7c-9.41-12.057-18.799-23.97-26.676-37.122c-9.325-15.569-17.044-32.054-23.667-48.937
					c-12.979-33.084-21.865-67.577-30.996-101.866c-11.839-44.459-23.678-88.917-35.517-133.376
					C1053.558,1071,1052.339,1071.333,1052.549,1072.121L1052.549,1072.121z"/>
			</g>
			<g>
				<path style="fill:#FFFFFF;" d="M829.789,1000.387c27.224,12.677,56.969,19.867,86.607,24.065
					c34.858,4.938,70.518,5.548,105.433,0.813c19.346-2.623,38.433-6.997,56.847-13.513c0.761-0.269,0.433-1.49-0.336-1.218
					c-63.988,22.642-137.473,21.44-202.708,4.577c-15.47-3.999-30.708-9.064-45.206-15.815
					C829.694,998.955,829.052,1000.044,829.789,1000.387L829.789,1000.387z"/>
			</g>
			<g>
				<path style="fill:#746EDE;" d="M931.638,1108.806c-14.422,54.684-18.864,111.655-19.352,168.042
					c-0.52,60.069,1.898,120.252,3.082,180.309c0.684,34.678,1.368,69.357,2.052,104.035c0.016,0.812,1.279,0.814,1.263,0
					c-1.209-61.301-2.418-122.601-3.627-183.902c-1.136-57.582-3.258-115.203,1.814-172.669
					c2.841-32.179,7.742-64.222,15.986-95.481C933.064,1108.355,931.846,1108.02,931.638,1108.806L931.638,1108.806z"/>
			</g>
			<g>
				<path style="fill:#FFFFFF;" d="M897.24,1067.652c12.521,2.547,20.012,13.605,25.698,24.165
					c6.862,12.742,12.951,25.961,18.686,39.242c11.834,27.405,21.546,55.686,29.193,84.538c0.208,0.785,1.427,0.452,1.218-0.336
					c-7.998-30.177-18.27-59.717-30.828-88.301c-5.972-13.594-12.086-27.472-19.699-40.242
					c-5.529-9.276-12.876-18.035-23.933-20.284C896.782,1066.273,896.443,1067.49,897.24,1067.652L897.24,1067.652z"/>
			</g>
		</g>
		<g>
			<path style="fill:#C1B2FF;" d="M510.984,1084.099L510.984,1084.099c-3.222,2.413-7.79,1.758-10.204-1.464l-6.67-8.904
				l-23.094,17.298l6.669,8.904c2.413,3.222,1.758,7.79-1.464,10.204l0,0c-8.239,6.171-9.915,17.853-3.744,26.092l78.699,105.066
				c6.171,8.239,17.853,9.915,26.092,3.744L612.03,1219c8.239-6.171,9.915-17.853,3.744-26.091l-78.699-105.066
				C530.904,1079.604,519.223,1077.928,510.984,1084.099z"/>
			<path style="fill:#A89BED;" d="M500.479,1082.853l-22.698,17.002c-0.971,0.727-2.348,0.53-3.075-0.441l-4.846-6.47
				c-0.727-0.971-0.53-2.348,0.441-3.075l22.698-17.002c0.971-0.727,2.348-0.53,3.075,0.441l4.846,6.47
				C501.647,1080.749,501.45,1082.126,500.479,1082.853z"/>
			
				<rect x="500.417" y="1135.243" transform="matrix(0.8004 -0.5995 0.5995 0.8004 -587.5273 555.7851)" style="fill:#A89BED;" width="80.709" height="49.695"/>
		</g>
		<path style="fill:#FF6A51;" d="M479.363,1538.954c-30.794,7.061-59.355,18.761-82.453,33.775l-2.845,0.991
			c-4.126,0.126-8.27,0.696-12.197,1.677c12.417,16.812,22.011,34.547,28.585,52.843c0.408,1.134,1.042,2.439,2.816,2.759
			c1.14,0.206,2.398-0.077,3.57-0.33c9.37-2.025,19.22-2.361,28.91-3.143c29.757-2.4,60.673-9.917,80.118-24.966
			c4.383-3.392,8.439-7.282,14.689-9.116c2.621-0.769,5.5-1.127,7.998-2.06c-17.199-19.44-31.119-40.125-41.478-61.636
			C499.878,1534.676,489.229,1536.692,479.363,1538.954z"/>
		<g>
			<path style="fill:#C1B2FF;" d="M669.992,1603.728L669.992,1603.728c-0.487-3.996,2.357-7.63,6.353-8.118l11.043-1.347
				l-3.494-28.642l-11.043,1.347c-3.996,0.487-7.631-2.357-8.118-6.353l0,0c-1.246-10.218-10.54-17.491-20.758-16.245
				l-130.306,15.894c-10.218,1.246-17.491,10.54-16.245,20.758l5.259,43.113c1.246,10.218,10.54,17.491,20.758,16.245
				l130.307-15.894C663.966,1623.24,671.239,1613.946,669.992,1603.728z"/>
			<path style="fill:#A89BED;" d="M676.306,1595.24l-3.434-28.151c-0.147-1.204,0.71-2.299,1.914-2.446l8.025-0.979
				c1.204-0.147,2.3,0.71,2.446,1.915l3.434,28.151c0.147,1.204-0.71,2.3-1.915,2.446l-8.025,0.979
				C677.548,1597.302,676.453,1596.444,676.306,1595.24z"/>
			
				<rect x="548.908" y="1566.851" transform="matrix(0.1211 0.9926 -0.9926 0.1211 2097.9026 814.0496)" style="fill:#A89BED;" width="80.709" height="49.695"/>
		</g>
		<g>
			<path style="fill:#FFBF61;" d="M595.76,1669.056c-3.97-7.53-9.167-14.785-10.15-23.241c-0.301-2.589-0.241-5.38-1.69-7.546
				c-1.141-1.705-3.041-2.729-4.922-3.547c-11.087-4.818-23.591-4.628-35.666-5.204c-2.194-0.104-4.836-0.541-5.656-2.578
				c-0.602-1.495,0.101-3.167,0.795-4.621c6.346-13.306,12.922-27.167,12.811-41.908c-0.015-2.047-0.28-4.339-1.862-5.638
				c-1.349-1.109-3.266-1.155-5.006-0.998c-10.302,0.926-19.576,7.044-26.441,14.78c-6.527,7.355-15.417,23.55-23.913,25.865
				c-8.634,2.352-22.087-6.463-34.632-9.047c-9.38-1.931-20.45-3.284-28.52,0.672c-1.733,0.849-0.955,3.49,0.96,3.25
				c13.999-1.754,23.959,8.462,39.166,14.332c1.292,0.499,1.478,2.258,0.328,3.03c-8.606,5.779-11.542,3.462-23.834,4.919
				c-9.193,1.09-18.676,0.537-27.514,3.29c-7.955,2.478-15.551,8.71-16.947,16.68c-0.221,1.26,1.057,2.242,2.272,1.843
				c34.062-11.193,72.021,5.346,107.694-0.381c3.046-0.489,6.082-1.142,9.166-1.22c2.364-0.06,4.723,0.219,7.064,0.551
				c15.614,2.214,30.886,6.824,45.118,13.618c9.389,4.482,19.163,11.273,22.783,20.509c0.682,1.739,3.265,1.324,3.322-0.543
				C600.66,1680.226,598.487,1674.228,595.76,1669.056z"/>
			<g>
				<path style="fill:#FFBF61;" d="M547.144,1564.349c-1.993,8.045-6.077,14.927-12.158,20.552c-4.192,3.876,2.08,10.125,6.26,6.26
					c7.136-6.6,12.097-15.024,14.435-24.458C557.05,1561.172,548.515,1558.813,547.144,1564.349L547.144,1564.349z"/>
			</g>
		</g>
	</g>
</g>
</svg>
